STARTFONT 2.1
COMMENT
COMMENT Converted from OpenType font "simsun.ttf" by "otf2bdf 3.0".
COMMENT
FONT -FreeType-SimSun-Medium-R-Normal--11-80-100-100-P-98-ISO10646-1
SIZE 8 100 100
FONTBOUNDINGBOX 13 15 -1 -4
STARTPROPERTIES 19
FOUNDRY "FreeType"
FAMILY_NAME "SimSun"
WEIGHT_NAME "Medium"
SLANT "R"
SETWIDTH_NAME "Normal"
ADD_STYLE_NAME ""
PIXEL_SIZE 11
POINT_SIZE 80
RESOLUTION_X 100
RESOLUTION_Y 100
SPACING "P"
AVERAGE_WIDTH 98
CHARSET_REGISTRY "ISO10646"
CHARSET_ENCODING "1"
FONT_ASCENT 9
FONT_DESCENT 1
COPYRIGHT "© Copyright ZHONGYI Electronic Co. 2001"
_OTF_FONTFILE "simsun.ttf"
_OTF_PSNAME "SimSun"
ENDPROPERTIES
CHARS 28735
STARTCHAR 0021
ENCODING 33
SWIDTH 450 0
DWIDTH 5 0
BBX 1 7 2 0
BITMAP
80
80
80
80
80
00
80
ENDCHAR
STARTCHAR 0022
ENCODING 34
SWIDTH 540 0
DWIDTH 6 0
BBX 4 2 1 6
BITMAP
50
A0
ENDCHAR
STARTCHAR 0023
ENCODING 35
SWIDTH 450 0
DWIDTH 5 0
BBX 5 7 0 0
BITMAP
48
F8
90
90
F8
90
90
ENDCHAR
STARTCHAR 0024
ENCODING 36
SWIDTH 450 0
DWIDTH 5 0
BBX 4 9 0 -1
BITMAP
20
70
B0
60
20
30
B0
70
20
ENDCHAR
STARTCHAR 0025
ENCODING 37
SWIDTH 450 0
DWIDTH 5 0
BBX 5 7 0 0
BITMAP
50
B0
A0
F8
58
58
58
ENDCHAR
STARTCHAR 0026
ENCODING 38
SWIDTH 540 0
DWIDTH 6 0
BBX 6 7 0 0
BITMAP
70
50
60
A8
B0
94
68
ENDCHAR
STARTCHAR 0027
ENCODING 39
SWIDTH 450 0
DWIDTH 5 0
BBX 1 2 1 6
BITMAP
80
80
ENDCHAR
STARTCHAR 0028
ENCODING 40
SWIDTH 450 0
DWIDTH 5 0
BBX 3 10 2 -1
BITMAP
20
40
80
80
80
80
80
80
40
20
ENDCHAR
STARTCHAR 0029
ENCODING 41
SWIDTH 450 0
DWIDTH 5 0
BBX 3 10 0 -1
BITMAP
80
40
40
20
20
20
20
40
40
80
ENDCHAR
STARTCHAR 002A
ENCODING 42
SWIDTH 450 0
DWIDTH 5 0
BBX 5 6 0 1
BITMAP
20
20
A8
70
F8
20
ENDCHAR
STARTCHAR 002B
ENCODING 43
SWIDTH 450 0
DWIDTH 5 0
BBX 5 5 0 1
BITMAP
20
20
F8
20
20
ENDCHAR
STARTCHAR 002C
ENCODING 44
SWIDTH 450 0
DWIDTH 5 0
BBX 1 2 1 -2
BITMAP
80
80
ENDCHAR
STARTCHAR 002D
ENCODING 45
SWIDTH 450 0
DWIDTH 5 0
BBX 5 1 0 3
BITMAP
F8
ENDCHAR
STARTCHAR 002E
ENCODING 46
SWIDTH 450 0
DWIDTH 5 0
BBX 1 1 1 1
BITMAP
80
ENDCHAR
STARTCHAR 002F
ENCODING 47
SWIDTH 450 0
DWIDTH 5 0
BBX 5 9 0 0
BITMAP
08
10
10
20
20
40
40
80
80
ENDCHAR
STARTCHAR 0030
ENCODING 48
SWIDTH 450 0
DWIDTH 5 0
BBX 5 7 0 0
BITMAP
70
88
88
88
88
88
70
ENDCHAR
STARTCHAR 0031
ENCODING 49
SWIDTH 450 0
DWIDTH 5 0
BBX 3 7 1 0
BITMAP
C0
40
40
40
40
40
E0
ENDCHAR
STARTCHAR 0032
ENCODING 50
SWIDTH 450 0
DWIDTH 5 0
BBX 4 7 0 0
BITMAP
60
90
10
20
40
80
F0
ENDCHAR
STARTCHAR 0033
ENCODING 51
SWIDTH 540 0
DWIDTH 6 0
BBX 4 7 1 0
BITMAP
60
90
10
60
10
90
E0
ENDCHAR
STARTCHAR 0034
ENCODING 52
SWIDTH 540 0
DWIDTH 6 0
BBX 5 7 0 0
BITMAP
10
30
50
90
F8
10
10
ENDCHAR
STARTCHAR 0035
ENCODING 53
SWIDTH 540 0
DWIDTH 6 0
BBX 4 7 1 0
BITMAP
F0
80
E0
90
10
90
E0
ENDCHAR
STARTCHAR 0036
ENCODING 54
SWIDTH 450 0
DWIDTH 5 0
BBX 5 7 0 0
BITMAP
70
80
B0
C8
88
88
70
ENDCHAR
STARTCHAR 0037
ENCODING 55
SWIDTH 540 0
DWIDTH 6 0
BBX 4 7 1 0
BITMAP
F0
20
20
40
40
40
40
ENDCHAR
STARTCHAR 0038
ENCODING 56
SWIDTH 540 0
DWIDTH 6 0
BBX 5 7 0 0
BITMAP
70
88
88
70
88
88
70
ENDCHAR
STARTCHAR 0039
ENCODING 57
SWIDTH 450 0
DWIDTH 5 0
BBX 5 7 0 0
BITMAP
70
88
88
88
78
10
E0
ENDCHAR
STARTCHAR 003A
ENCODING 58
SWIDTH 450 0
DWIDTH 5 0
BBX 1 5 2 0
BITMAP
80
00
00
00
80
ENDCHAR
STARTCHAR 003B
ENCODING 59
SWIDTH 450 0
DWIDTH 5 0
BBX 1 6 2 -2
BITMAP
80
00
00
00
80
80
ENDCHAR
STARTCHAR 003C
ENCODING 60
SWIDTH 450 0
DWIDTH 5 0
BBX 4 8 1 0
BITMAP
10
20
40
80
80
40
20
10
ENDCHAR
STARTCHAR 003D
ENCODING 61
SWIDTH 450 0
DWIDTH 5 0
BBX 5 3 0 2
BITMAP
F8
00
F8
ENDCHAR
STARTCHAR 003E
ENCODING 62
SWIDTH 450 0
DWIDTH 5 0
BBX 3 6 1 1
BITMAP
80
40
20
20
40
80
ENDCHAR
STARTCHAR 003F
ENCODING 63
SWIDTH 450 0
DWIDTH 5 0
BBX 4 7 1 0
BITMAP
E0
10
10
20
40
40
40
ENDCHAR
STARTCHAR 0040
ENCODING 64
SWIDTH 450 0
DWIDTH 5 0
BBX 5 7 0 0
BITMAP
70
78
E8
E8
E8
90
50
ENDCHAR
STARTCHAR 0041
ENCODING 65
SWIDTH 450 0
DWIDTH 5 0
BBX 5 7 0 0
BITMAP
20
60
60
50
70
90
D8
ENDCHAR
STARTCHAR 0042
ENCODING 66
SWIDTH 450 0
DWIDTH 5 0
BBX 5 7 0 0
BITMAP
F0
48
48
70
48
48
F0
ENDCHAR
STARTCHAR 0043
ENCODING 67
SWIDTH 450 0
DWIDTH 5 0
BBX 5 7 0 0
BITMAP
78
48
80
80
80
88
70
ENDCHAR
STARTCHAR 0044
ENCODING 68
SWIDTH 450 0
DWIDTH 5 0
BBX 5 7 0 0
BITMAP
F0
48
48
48
48
48
F0
ENDCHAR
STARTCHAR 0045
ENCODING 69
SWIDTH 540 0
DWIDTH 6 0
BBX 5 7 0 0
BITMAP
F8
40
40
70
40
40
F8
ENDCHAR
STARTCHAR 0046
ENCODING 70
SWIDTH 540 0
DWIDTH 6 0
BBX 5 7 0 0
BITMAP
F8
40
40
70
40
40
40
ENDCHAR
STARTCHAR 0047
ENCODING 71
SWIDTH 450 0
DWIDTH 5 0
BBX 5 7 0 0
BITMAP
78
48
80
98
88
48
70
ENDCHAR
STARTCHAR 0048
ENCODING 72
SWIDTH 450 0
DWIDTH 5 0
BBX 4 7 1 0
BITMAP
90
90
90
F0
90
90
90
ENDCHAR
STARTCHAR 0049
ENCODING 73
SWIDTH 450 0
DWIDTH 5 0
BBX 3 7 1 0
BITMAP
E0
40
40
40
40
40
E0
ENDCHAR
STARTCHAR 004A
ENCODING 74
SWIDTH 450 0
DWIDTH 5 0
BBX 5 8 0 -1
BITMAP
38
10
10
10
10
10
10
E0
ENDCHAR
STARTCHAR 004B
ENCODING 75
SWIDTH 450 0
DWIDTH 5 0
BBX 4 7 1 1
BITMAP
90
A0
C0
C0
A0
A0
90
ENDCHAR
STARTCHAR 004C
ENCODING 76
SWIDTH 450 0
DWIDTH 5 0
BBX 4 7 1 0
BITMAP
80
80
80
80
80
80
90
ENDCHAR
STARTCHAR 004D
ENCODING 77
SWIDTH 540 0
DWIDTH 6 0
BBX 4 7 1 0
BITMAP
90
90
D0
D0
B0
B0
90
ENDCHAR
STARTCHAR 004E
ENCODING 78
SWIDTH 540 0
DWIDTH 6 0
BBX 6 7 0 0
BITMAP
CC
68
68
58
58
48
48
ENDCHAR
STARTCHAR 004F
ENCODING 79
SWIDTH 450 0
DWIDTH 5 0
BBX 5 7 0 0
BITMAP
70
90
88
88
88
88
70
ENDCHAR
STARTCHAR 0050
ENCODING 80
SWIDTH 450 0
DWIDTH 5 0
BBX 5 7 0 0
BITMAP
F0
48
48
70
40
40
40
ENDCHAR
STARTCHAR 0051
ENCODING 81
SWIDTH 450 0
DWIDTH 5 0
BBX 5 8 0 -1
BITMAP
70
88
88
88
88
E8
50
38
ENDCHAR
STARTCHAR 0052
ENCODING 82
SWIDTH 450 0
DWIDTH 5 0
BBX 5 7 0 0
BITMAP
F0
48
48
70
50
50
C8
ENDCHAR
STARTCHAR 0053
ENCODING 83
SWIDTH 540 0
DWIDTH 6 0
BBX 5 7 0 0
BITMAP
60
90
80
70
08
88
F0
ENDCHAR
STARTCHAR 0054
ENCODING 84
SWIDTH 450 0
DWIDTH 5 0
BBX 4 7 0 0
BITMAP
F0
20
20
20
20
20
60
ENDCHAR
STARTCHAR 0055
ENCODING 85
SWIDTH 450 0
DWIDTH 5 0
BBX 5 7 0 0
BITMAP
C8
48
48
48
48
48
30
ENDCHAR
STARTCHAR 0056
ENCODING 86
SWIDTH 450 0
DWIDTH 5 0
BBX 5 7 0 1
BITMAP
D8
50
50
50
60
20
20
ENDCHAR
STARTCHAR 0057
ENCODING 87
SWIDTH 450 0
DWIDTH 5 0
BBX 5 6 0 1
BITMAP
A8
B0
B0
70
70
50
ENDCHAR
STARTCHAR 0058
ENCODING 88
SWIDTH 450 0
DWIDTH 5 0
BBX 4 7 1 1
BITMAP
80
A0
C0
40
C0
A0
10
ENDCHAR
STARTCHAR 0059
ENCODING 89
SWIDTH 540 0
DWIDTH 6 0
BBX 5 7 0 1
BITMAP
D8
90
50
60
20
20
60
ENDCHAR
STARTCHAR 005A
ENCODING 90
SWIDTH 450 0
DWIDTH 5 0
BBX 4 7 1 0
BITMAP
F0
20
40
40
80
90
F0
ENDCHAR
STARTCHAR 005B
ENCODING 91
SWIDTH 540 0
DWIDTH 6 0
BBX 3 10 2 -1
BITMAP
E0
80
80
80
80
80
80
80
80
E0
ENDCHAR
STARTCHAR 005C
ENCODING 92
SWIDTH 450 0
DWIDTH 5 0
BBX 4 9 1 -1
BITMAP
80
80
80
40
40
20
20
20
10
ENDCHAR
STARTCHAR 005D
ENCODING 93
SWIDTH 540 0
DWIDTH 6 0
BBX 3 10 1 -1
BITMAP
E0
20
20
20
20
20
20
20
20
E0
ENDCHAR
STARTCHAR 005E
ENCODING 94
SWIDTH 450 0
DWIDTH 5 0
BBX 2 1 2 7
BITMAP
C0
ENDCHAR
STARTCHAR 005F
ENCODING 95
SWIDTH 450 0
DWIDTH 5 0
BBX 5 1 0 -1
BITMAP
F8
ENDCHAR
STARTCHAR 0060
ENCODING 96
SWIDTH 450 0
DWIDTH 5 0
BBX 1 1 2 7
BITMAP
80
ENDCHAR
STARTCHAR 0061
ENCODING 97
SWIDTH 450 0
DWIDTH 5 0
BBX 5 5 0 0
BITMAP
60
90
30
D0
F8
ENDCHAR
STARTCHAR 0062
ENCODING 98
SWIDTH 450 0
DWIDTH 5 0
BBX 5 7 0 1
BITMAP
C0
40
50
68
48
48
70
ENDCHAR
STARTCHAR 0063
ENCODING 99
SWIDTH 540 0
DWIDTH 6 0
BBX 4 5 1 0
BITMAP
70
90
80
80
70
ENDCHAR
STARTCHAR 0064
ENCODING 100
SWIDTH 630 0
DWIDTH 7 0
BBX 5 7 1 1
BITMAP
10
10
70
90
90
90
78
ENDCHAR
STARTCHAR 0065
ENCODING 101
SWIDTH 540 0
DWIDTH 6 0
BBX 4 5 1 0
BITMAP
60
90
F0
90
60
ENDCHAR
STARTCHAR 0066
ENCODING 102
SWIDTH 450 0
DWIDTH 5 0
BBX 4 7 0 0
BITMAP
30
40
E0
40
40
40
E0
ENDCHAR
STARTCHAR 0067
ENCODING 103
SWIDTH 540 0
DWIDTH 6 0
BBX 5 6 0 -1
BITMAP
E8
90
F0
F0
88
70
ENDCHAR
STARTCHAR 0068
ENCODING 104
SWIDTH 540 0
DWIDTH 6 0
BBX 5 8 0 0
BITMAP
40
C0
40
70
48
48
48
D8
ENDCHAR
STARTCHAR 0069
ENCODING 105
SWIDTH 450 0
DWIDTH 5 0
BBX 3 7 1 0
BITMAP
40
00
C0
40
40
40
E0
ENDCHAR
STARTCHAR 006A
ENCODING 106
SWIDTH 450 0
DWIDTH 5 0
BBX 3 8 1 -1
BITMAP
20
20
60
20
20
20
20
C0
ENDCHAR
STARTCHAR 006B
ENCODING 107
SWIDTH 540 0
DWIDTH 6 0
BBX 5 7 0 1
BITMAP
C0
40
58
60
50
50
D8
ENDCHAR
STARTCHAR 006C
ENCODING 108
SWIDTH 450 0
DWIDTH 5 0
BBX 3 8 1 0
BITMAP
40
C0
40
40
40
40
40
E0
ENDCHAR
STARTCHAR 006D
ENCODING 109
SWIDTH 450 0
DWIDTH 5 0
BBX 5 5 0 0
BITMAP
F8
A8
A8
A8
A8
ENDCHAR
STARTCHAR 006E
ENCODING 110
SWIDTH 540 0
DWIDTH 6 0
BBX 5 5 0 0
BITMAP
F0
48
48
48
D8
ENDCHAR
STARTCHAR 006F
ENCODING 111
SWIDTH 450 0
DWIDTH 5 0
BBX 5 5 0 0
BITMAP
70
88
88
88
70
ENDCHAR
STARTCHAR 0070
ENCODING 112
SWIDTH 450 0
DWIDTH 5 0
BBX 5 6 0 -1
BITMAP
F0
48
48
48
70
C0
ENDCHAR
STARTCHAR 0071
ENCODING 113
SWIDTH 540 0
DWIDTH 6 0
BBX 5 6 0 -1
BITMAP
70
90
90
90
70
18
ENDCHAR
STARTCHAR 0072
ENCODING 114
SWIDTH 450 0
DWIDTH 5 0
BBX 4 5 0 0
BITMAP
D0
60
40
40
E0
ENDCHAR
STARTCHAR 0073
ENCODING 115
SWIDTH 540 0
DWIDTH 6 0
BBX 4 5 1 0
BITMAP
F0
90
60
90
F0
ENDCHAR
STARTCHAR 0074
ENCODING 116
SWIDTH 450 0
DWIDTH 5 0
BBX 3 6 1 0
BITMAP
40
E0
40
40
40
20
ENDCHAR
STARTCHAR 0075
ENCODING 117
SWIDTH 540 0
DWIDTH 6 0
BBX 5 5 0 0
BITMAP
D8
48
48
48
38
ENDCHAR
STARTCHAR 0076
ENCODING 118
SWIDTH 450 0
DWIDTH 5 0
BBX 5 5 0 0
BITMAP
D8
90
50
60
20
ENDCHAR
STARTCHAR 0077
ENCODING 119
SWIDTH 450 0
DWIDTH 5 0
BBX 5 5 0 0
BITMAP
E8
70
70
70
10
ENDCHAR
STARTCHAR 0078
ENCODING 120
SWIDTH 450 0
DWIDTH 5 0
BBX 5 5 0 0
BITMAP
D0
60
20
60
D8
ENDCHAR
STARTCHAR 0079
ENCODING 121
SWIDTH 450 0
DWIDTH 5 0
BBX 5 6 0 -1
BITMAP
D8
50
60
20
40
C0
ENDCHAR
STARTCHAR 007A
ENCODING 122
SWIDTH 540 0
DWIDTH 6 0
BBX 4 5 1 0
BITMAP
F0
20
40
90
F0
ENDCHAR
STARTCHAR 007B
ENCODING 123
SWIDTH 450 0
DWIDTH 5 0
BBX 2 10 2 -1
BITMAP
40
40
40
40
40
C0
40
40
40
40
ENDCHAR
STARTCHAR 007C
ENCODING 124
SWIDTH 540 0
DWIDTH 6 0
BBX 1 11 2 -1
BITMAP
80
80
80
80
80
80
80
80
80
80
80
ENDCHAR
STARTCHAR 007D
ENCODING 125
SWIDTH 450 0
DWIDTH 5 0
BBX 2 10 1 -1
BITMAP
80
40
40
40
40
40
40
40
40
80
ENDCHAR
STARTCHAR 007E
ENCODING 126
SWIDTH 450 0
DWIDTH 5 0
BBX 4 2 1 6
BITMAP
80
70
ENDCHAR
STARTCHAR 007F
ENCODING 127
SWIDTH 450 0
DWIDTH 5 0
BBX 0 0 0 0
BITMAP
ENDCHAR
STARTCHAR 00A1
ENCODING 161
SWIDTH 450 0
DWIDTH 5 0
BBX 1 7 1 -1
BITMAP
80
00
80
80
80
80
80
ENDCHAR
STARTCHAR 00A2
ENCODING 162
SWIDTH 540 0
DWIDTH 6 0
BBX 4 9 1 -1
BITMAP
10
20
F0
C0
C0
D0
60
80
80
ENDCHAR
STARTCHAR 00A3
ENCODING 163
SWIDTH 540 0
DWIDTH 6 0
BBX 5 7 0 0
BITMAP
38
40
40
E0
40
40
B8
ENDCHAR
STARTCHAR 00A4
ENCODING 164
SWIDTH 900 0
DWIDTH 10 0
BBX 8 8 1 0
BITMAP
BD
42
82
81
81
82
42
BD
ENDCHAR
STARTCHAR 00A5
ENCODING 165
SWIDTH 450 0
DWIDTH 5 0
BBX 5 7 0 1
BITMAP
40
50
60
F8
F8
20
70
ENDCHAR
STARTCHAR 00A6
ENCODING 166
SWIDTH 540 0
DWIDTH 6 0
BBX 1 10 1 -1
BITMAP
80
80
80
80
00
00
80
80
80
80
ENDCHAR
STARTCHAR 00A7
ENCODING 167
SWIDTH 990 0
DWIDTH 11 0
BBX 4 9 3 0
BITMAP
F0
80
60
D0
90
50
20
10
10
ENDCHAR
STARTCHAR 00A8
ENCODING 168
SWIDTH 990 0
DWIDTH 11 0
BBX 4 1 3 6
BITMAP
90
ENDCHAR
STARTCHAR 00A9
ENCODING 169
SWIDTH 540 0
DWIDTH 6 0
BBX 6 6 0 1
BITMAP
78
B8
C4
C4
7C
78
ENDCHAR
STARTCHAR 00AA
ENCODING 170
SWIDTH 540 0
DWIDTH 6 0
BBX 3 4 0 5
BITMAP
60
A0
60
A0
ENDCHAR
STARTCHAR 00AB
ENCODING 171
SWIDTH 450 0
DWIDTH 5 0
BBX 5 5 0 1
BITMAP
08
50
90
50
08
ENDCHAR
STARTCHAR 00AC
ENCODING 172
SWIDTH 540 0
DWIDTH 6 0
BBX 6 3 0 3
BITMAP
FC
04
04
ENDCHAR
STARTCHAR 00AD
ENCODING 173
SWIDTH 450 0
DWIDTH 5 0
BBX 3 1 0 3
BITMAP
E0
ENDCHAR
STARTCHAR 00AE
ENCODING 174
SWIDTH 540 0
DWIDTH 6 0
BBX 6 6 0 1
BITMAP
78
4C
E4
E4
48
78
ENDCHAR
STARTCHAR 00AF
ENCODING 175
SWIDTH 450 0
DWIDTH 5 0
BBX 5 1 0 8
BITMAP
F8
ENDCHAR
STARTCHAR 00B0
ENCODING 176
SWIDTH 900 0
DWIDTH 10 0
BBX 2 3 1 5
BITMAP
40
C0
C0
ENDCHAR
STARTCHAR 00B1
ENCODING 177
SWIDTH 990 0
DWIDTH 11 0
BBX 7 8 2 0
BITMAP
10
10
10
FE
10
10
10
FE
ENDCHAR
STARTCHAR 00B2
ENCODING 178
SWIDTH 540 0
DWIDTH 6 0
BBX 3 4 0 5
BITMAP
E0
20
40
E0
ENDCHAR
STARTCHAR 00B3
ENCODING 179
SWIDTH 540 0
DWIDTH 6 0
BBX 3 4 0 4
BITMAP
E0
60
20
C0
ENDCHAR
STARTCHAR 00B4
ENCODING 180
SWIDTH 450 0
DWIDTH 5 0
BBX 2 2 1 6
BITMAP
40
80
ENDCHAR
STARTCHAR 00B5
ENCODING 181
SWIDTH 540 0
DWIDTH 6 0
BBX 5 7 1 0
BITMAP
90
90
90
90
F8
00
80
ENDCHAR
STARTCHAR 00B6
ENCODING 182
SWIDTH 450 0
DWIDTH 5 0
BBX 4 10 0 -1
BITMAP
70
F0
F0
F0
70
30
30
30
30
30
ENDCHAR
STARTCHAR 00B7
ENCODING 183
SWIDTH 990 0
DWIDTH 11 0
BBX 3 2 4 2
BITMAP
E0
E0
ENDCHAR
STARTCHAR 00B8
ENCODING 184
SWIDTH 540 0
DWIDTH 6 0
BBX 2 1 1 0
BITMAP
C0
ENDCHAR
STARTCHAR 00B9
ENCODING 185
SWIDTH 540 0
DWIDTH 6 0
BBX 2 4 1 5
BITMAP
40
40
40
C0
ENDCHAR
STARTCHAR 00BA
ENCODING 186
SWIDTH 450 0
DWIDTH 5 0
BBX 3 3 0 5
BITMAP
E0
A0
C0
ENDCHAR
STARTCHAR 00BB
ENCODING 187
SWIDTH 450 0
DWIDTH 5 0
BBX 4 3 1 2
BITMAP
A0
50
A0
ENDCHAR
STARTCHAR 00BC
ENCODING 188
SWIDTH 450 0
DWIDTH 5 0
BBX 5 8 0 0
BITMAP
80
90
A0
A0
48
58
98
88
ENDCHAR
STARTCHAR 00BD
ENCODING 189
SWIDTH 450 0
DWIDTH 5 0
BBX 5 8 0 0
BITMAP
80
A0
A0
A0
48
48
90
98
ENDCHAR
STARTCHAR 00BE
ENCODING 190
SWIDTH 450 0
DWIDTH 5 0
BBX 5 7 0 0
BITMAP
C0
90
60
E8
48
58
58
ENDCHAR
STARTCHAR 00BF
ENCODING 191
SWIDTH 540 0
DWIDTH 6 0
BBX 4 7 1 0
BITMAP
40
00
40
80
80
90
E0
ENDCHAR
STARTCHAR 00C0
ENCODING 192
SWIDTH 450 0
DWIDTH 5 0
BBX 5 9 0 0
BITMAP
20
00
20
60
50
50
70
90
D8
ENDCHAR
STARTCHAR 00C1
ENCODING 193
SWIDTH 450 0
DWIDTH 5 0
BBX 5 9 0 0
BITMAP
20
00
20
60
50
50
70
90
D8
ENDCHAR
STARTCHAR 00C2
ENCODING 194
SWIDTH 450 0
DWIDTH 5 0
BBX 5 9 0 0
BITMAP
20
00
20
60
50
50
70
90
D8
ENDCHAR
STARTCHAR 00C3
ENCODING 195
SWIDTH 450 0
DWIDTH 5 0
BBX 5 9 0 0
BITMAP
70
00
20
60
60
50
70
90
88
ENDCHAR
STARTCHAR 00C4
ENCODING 196
SWIDTH 450 0
DWIDTH 5 0
BBX 5 9 0 0
BITMAP
50
00
20
60
50
90
70
90
98
ENDCHAR
STARTCHAR 00C5
ENCODING 197
SWIDTH 450 0
DWIDTH 5 0
BBX 5 9 0 0
BITMAP
30
30
20
20
50
50
70
90
D8
ENDCHAR
STARTCHAR 00C6
ENCODING 198
SWIDTH 540 0
DWIDTH 6 0
BBX 6 7 0 1
BITMAP
3C
30
50
30
50
50
FC
ENDCHAR
STARTCHAR 00C7
ENCODING 199
SWIDTH 540 0
DWIDTH 6 0
BBX 5 8 0 -1
BITMAP
70
40
80
80
80
48
70
10
ENDCHAR
STARTCHAR 00C8
ENCODING 200
SWIDTH 540 0
DWIDTH 6 0
BBX 5 9 0 0
BITMAP
20
00
F8
40
40
70
40
40
F8
ENDCHAR
STARTCHAR 00C9
ENCODING 201
SWIDTH 540 0
DWIDTH 6 0
BBX 5 9 0 0
BITMAP
10
00
F8
40
40
70
40
40
F8
ENDCHAR
STARTCHAR 00CA
ENCODING 202
SWIDTH 540 0
DWIDTH 6 0
BBX 5 9 0 0
BITMAP
30
00
F8
40
40
70
40
40
F8
ENDCHAR
STARTCHAR 00CB
ENCODING 203
SWIDTH 450 0
DWIDTH 5 0
BBX 5 9 0 0
BITMAP
50
00
F0
48
40
70
40
48
F8
ENDCHAR
STARTCHAR 00CC
ENCODING 204
SWIDTH 450 0
DWIDTH 5 0
BBX 3 9 1 0
BITMAP
40
00
E0
40
40
40
40
40
E0
ENDCHAR
STARTCHAR 00CD
ENCODING 205
SWIDTH 450 0
DWIDTH 5 0
BBX 3 9 1 0
BITMAP
40
40
E0
40
40
40
40
40
E0
ENDCHAR
STARTCHAR 00CE
ENCODING 206
SWIDTH 450 0
DWIDTH 5 0
BBX 3 9 1 1
BITMAP
40
00
E0
40
40
40
40
40
40
ENDCHAR
STARTCHAR 00CF
ENCODING 207
SWIDTH 450 0
DWIDTH 5 0
BBX 3 9 1 0
BITMAP
A0
00
E0
40
40
40
40
40
E0
ENDCHAR
STARTCHAR 00D0
ENCODING 208
SWIDTH 450 0
DWIDTH 5 0
BBX 5 7 0 0
BITMAP
70
48
48
E8
48
50
F0
ENDCHAR
STARTCHAR 00D1
ENCODING 209
SWIDTH 540 0
DWIDTH 6 0
BBX 6 9 0 0
BITMAP
10
00
CC
68
68
58
58
48
40
ENDCHAR
STARTCHAR 00D2
ENCODING 210
SWIDTH 450 0
DWIDTH 5 0
BBX 5 9 0 0
BITMAP
20
00
70
90
88
88
88
88
70
ENDCHAR
STARTCHAR 00D3
ENCODING 211
SWIDTH 450 0
DWIDTH 5 0
BBX 5 9 0 0
BITMAP
20
00
70
90
88
88
88
88
70
ENDCHAR
STARTCHAR 00D4
ENCODING 212
SWIDTH 450 0
DWIDTH 5 0
BBX 5 9 0 0
BITMAP
20
00
70
90
88
88
88
88
70
ENDCHAR
STARTCHAR 00D5
ENCODING 213
SWIDTH 450 0
DWIDTH 5 0
BBX 5 9 0 0
BITMAP
30
00
70
90
88
88
88
88
70
ENDCHAR
STARTCHAR 00D6
ENCODING 214
SWIDTH 360 0
DWIDTH 4 0
BBX 4 9 0 0
BITMAP
40
00
60
90
90
90
90
90
60
ENDCHAR
STARTCHAR 00D7
ENCODING 215
SWIDTH 990 0
DWIDTH 11 0
BBX 6 6 2 1
BITMAP
84
48
30
10
68
04
ENDCHAR
STARTCHAR 00D8
ENCODING 216
SWIDTH 450 0
DWIDTH 5 0
BBX 5 8 0 0
BITMAP
78
90
98
A8
C8
C8
90
60
ENDCHAR
STARTCHAR 00D9
ENCODING 217
SWIDTH 540 0
DWIDTH 6 0
BBX 5 7 0 2
BITMAP
C8
48
48
48
48
48
30
ENDCHAR
STARTCHAR 00DA
ENCODING 218
SWIDTH 540 0
DWIDTH 6 0
BBX 5 7 0 3
BITMAP
C8
48
48
48
48
48
50
ENDCHAR
STARTCHAR 00DB
ENCODING 219
SWIDTH 540 0
DWIDTH 6 0
BBX 5 9 0 1
BITMAP
30
00
C8
48
48
48
48
48
50
ENDCHAR
STARTCHAR 00DC
ENCODING 220
SWIDTH 540 0
DWIDTH 6 0
BBX 6 9 0 0
BITMAP
28
00
CC
44
44
44
44
48
38
ENDCHAR
STARTCHAR 00DD
ENCODING 221
SWIDTH 540 0
DWIDTH 6 0
BBX 5 9 0 1
BITMAP
20
00
D8
90
50
60
20
20
20
ENDCHAR
STARTCHAR 00DE
ENCODING 222
SWIDTH 450 0
DWIDTH 5 0
BBX 4 7 1 0
BITMAP
80
E0
90
90
90
E0
80
ENDCHAR
STARTCHAR 00DF
ENCODING 223
SWIDTH 450 0
DWIDTH 5 0
BBX 5 7 0 0
BITMAP
38
48
50
50
48
48
F0
ENDCHAR
STARTCHAR 00E0
ENCODING 224
SWIDTH 450 0
DWIDTH 5 0
BBX 4 7 0 0
BITMAP
40
00
70
90
90
90
70
ENDCHAR
STARTCHAR 00E1
ENCODING 225
SWIDTH 450 0
DWIDTH 5 0
BBX 4 6 0 1
BITMAP
20
70
90
90
90
70
ENDCHAR
STARTCHAR 00E2
ENCODING 226
SWIDTH 450 0
DWIDTH 5 0
BBX 5 8 0 1
BITMAP
60
00
00
60
90
30
D0
F8
ENDCHAR
STARTCHAR 00E3
ENCODING 227
SWIDTH 450 0
DWIDTH 5 0
BBX 5 8 0 0
BITMAP
40
00
00
60
90
30
D0
B8
ENDCHAR
STARTCHAR 00E4
ENCODING 228
SWIDTH 450 0
DWIDTH 5 0
BBX 5 8 0 0
BITMAP
50
00
00
60
90
30
D0
E8
ENDCHAR
STARTCHAR 00E5
ENCODING 229
SWIDTH 450 0
DWIDTH 5 0
BBX 5 8 0 0
BITMAP
60
60
00
60
90
30
D0
F8
ENDCHAR
STARTCHAR 00E6
ENCODING 230
SWIDTH 540 0
DWIDTH 6 0
BBX 6 5 0 1
BITMAP
F8
A4
3C
E4
D8
ENDCHAR
STARTCHAR 00E7
ENCODING 231
SWIDTH 450 0
DWIDTH 5 0
BBX 4 6 0 -1
BITMAP
60
90
80
90
D0
60
ENDCHAR
STARTCHAR 00E8
ENCODING 232
SWIDTH 540 0
DWIDTH 6 0
BBX 4 7 1 1
BITMAP
40
00
60
90
F0
90
60
ENDCHAR
STARTCHAR 00E9
ENCODING 233
SWIDTH 540 0
DWIDTH 6 0
BBX 4 6 1 1
BITMAP
20
60
90
F0
90
60
ENDCHAR
STARTCHAR 00EA
ENCODING 234
SWIDTH 540 0
DWIDTH 6 0
BBX 4 7 1 0
BITMAP
60
00
60
90
F0
90
60
ENDCHAR
STARTCHAR 00EB
ENCODING 235
SWIDTH 450 0
DWIDTH 5 0
BBX 4 7 1 0
BITMAP
60
00
60
A0
F0
80
60
ENDCHAR
STARTCHAR 00EC
ENCODING 236
SWIDTH 540 0
DWIDTH 6 0
BBX 3 7 1 1
BITMAP
80
40
C0
40
40
40
E0
ENDCHAR
STARTCHAR 00ED
ENCODING 237
SWIDTH 540 0
DWIDTH 6 0
BBX 3 6 1 1
BITMAP
40
C0
40
40
40
E0
ENDCHAR
STARTCHAR 00EE
ENCODING 238
SWIDTH 450 0
DWIDTH 5 0
BBX 2 8 1 0
BITMAP
C0
00
00
C0
40
40
40
40
ENDCHAR
STARTCHAR 00EF
ENCODING 239
SWIDTH 450 0
DWIDTH 5 0
BBX 3 8 1 0
BITMAP
A0
00
00
C0
40
40
40
E0
ENDCHAR
STARTCHAR 00F0
ENCODING 240
SWIDTH 450 0
DWIDTH 5 0
BBX 5 8 0 0
BITMAP
40
20
10
68
88
88
50
20
ENDCHAR
STARTCHAR 00F1
ENCODING 241
SWIDTH 540 0
DWIDTH 6 0
BBX 5 8 0 0
BITMAP
60
00
00
F0
48
48
48
48
ENDCHAR
STARTCHAR 00F2
ENCODING 242
SWIDTH 450 0
DWIDTH 5 0
BBX 5 7 0 1
BITMAP
40
20
70
88
88
88
70
ENDCHAR
STARTCHAR 00F3
ENCODING 243
SWIDTH 450 0
DWIDTH 5 0
BBX 5 7 0 0
BITMAP
10
20
70
88
88
88
70
ENDCHAR
STARTCHAR 00F4
ENCODING 244
SWIDTH 450 0
DWIDTH 5 0
BBX 5 8 0 0
BITMAP
20
50
00
70
88
88
88
70
ENDCHAR
STARTCHAR 00F5
ENCODING 245
SWIDTH 450 0
DWIDTH 5 0
BBX 5 8 0 0
BITMAP
60
00
00
70
88
88
88
50
ENDCHAR
STARTCHAR 00F6
ENCODING 246
SWIDTH 450 0
DWIDTH 5 0
BBX 5 8 0 0
BITMAP
50
00
00
70
88
88
88
70
ENDCHAR
STARTCHAR 00F7
ENCODING 247
SWIDTH 1080 0
DWIDTH 12 0
BBX 8 7 2 -1
BITMAP
18
18
00
FF
00
18
18
ENDCHAR
STARTCHAR 00F8
ENCODING 248
SWIDTH 450 0
DWIDTH 5 0
BBX 5 6 0 0
BITMAP
78
98
A8
48
50
20
ENDCHAR
STARTCHAR 00F9
ENCODING 249
SWIDTH 540 0
DWIDTH 6 0
BBX 5 7 0 1
BITMAP
20
00
D8
48
48
48
38
ENDCHAR
STARTCHAR 00FA
ENCODING 250
SWIDTH 540 0
DWIDTH 6 0
BBX 5 6 0 1
BITMAP
10
D8
48
48
48
38
ENDCHAR
STARTCHAR 00FB
ENCODING 251
SWIDTH 540 0
DWIDTH 6 0
BBX 5 8 0 0
BITMAP
20
00
00
D8
48
48
48
38
ENDCHAR
STARTCHAR 00FC
ENCODING 252
SWIDTH 540 0
DWIDTH 6 0
BBX 5 6 0 1
BITMAP
48
C8
48
48
48
38
ENDCHAR
STARTCHAR 00FD
ENCODING 253
SWIDTH 450 0
DWIDTH 5 0
BBX 5 9 0 -1
BITMAP
20
20
00
D8
50
60
20
20
40
ENDCHAR
STARTCHAR 00FE
ENCODING 254
SWIDTH 450 0
DWIDTH 5 0
BBX 5 10 0 -1
BITMAP
40
40
40
50
68
48
48
70
40
E0
ENDCHAR
STARTCHAR 00FF
ENCODING 255
SWIDTH 540 0
DWIDTH 6 0
BBX 5 9 0 -1
BITMAP
50
00
00
D8
50
60
20
40
C0
ENDCHAR
STARTCHAR 0101
ENCODING 257
SWIDTH 450 0
DWIDTH 5 0
BBX 4 7 0 0
BITMAP
60
00
70
90
90
90
70
ENDCHAR
STARTCHAR 0113
ENCODING 275
SWIDTH 540 0
DWIDTH 6 0
BBX 4 7 1 0
BITMAP
60
00
60
90
F0
90
60
ENDCHAR
STARTCHAR 011B
ENCODING 283
SWIDTH 540 0
DWIDTH 6 0
BBX 4 6 1 1
BITMAP
40
60
90
F0
90
60
ENDCHAR
STARTCHAR 012B
ENCODING 299
SWIDTH 540 0
DWIDTH 6 0
BBX 3 7 1 0
BITMAP
E0
00
C0
40
40
40
E0
ENDCHAR
STARTCHAR 0144
ENCODING 324
SWIDTH 540 0
DWIDTH 6 0
BBX 5 6 0 1
BITMAP
20
D0
68
48
48
D8
ENDCHAR
STARTCHAR 0148
ENCODING 328
SWIDTH 540 0
DWIDTH 6 0
BBX 5 6 0 1
BITMAP
30
F0
48
48
48
D8
ENDCHAR
STARTCHAR 014D
ENCODING 333
SWIDTH 450 0
DWIDTH 5 0
BBX 5 6 0 0
BITMAP
70
70
88
88
88
70
ENDCHAR
STARTCHAR 0152
ENCODING 338
SWIDTH 450 0
DWIDTH 5 0
BBX 5 7 0 0
BITMAP
E0
A0
A0
B0
A0
A8
B8
ENDCHAR
STARTCHAR 0153
ENCODING 339
SWIDTH 450 0
DWIDTH 5 0
BBX 5 6 0 0
BITMAP
10
E8
B8
A0
A8
50
ENDCHAR
STARTCHAR 0160
ENCODING 352
SWIDTH 540 0
DWIDTH 6 0
BBX 5 9 0 0
BITMAP
10
20
60
90
80
70
08
88
F0
ENDCHAR
STARTCHAR 0161
ENCODING 353
SWIDTH 540 0
DWIDTH 6 0
BBX 3 7 1 0
BITMAP
80
40
E0
80
40
20
E0
ENDCHAR
STARTCHAR 016B
ENCODING 363
SWIDTH 540 0
DWIDTH 6 0
BBX 5 6 0 0
BITMAP
30
D8
48
48
48
38
ENDCHAR
STARTCHAR 0178
ENCODING 376
SWIDTH 540 0
DWIDTH 6 0
BBX 5 9 0 0
BITMAP
50
00
D8
90
60
60
20
20
60
ENDCHAR
STARTCHAR 0192
ENCODING 402
SWIDTH 450 0
DWIDTH 5 0
BBX 4 9 0 0
BITMAP
10
10
30
20
20
20
20
40
C0
ENDCHAR
STARTCHAR 01CE
ENCODING 462
SWIDTH 450 0
DWIDTH 5 0
BBX 4 7 0 0
BITMAP
40
20
70
90
90
90
70
ENDCHAR
STARTCHAR 01D0
ENCODING 464
SWIDTH 540 0
DWIDTH 6 0
BBX 3 6 1 1
BITMAP
40
C0
40
40
40
E0
ENDCHAR
STARTCHAR 01D2
ENCODING 466
SWIDTH 450 0
DWIDTH 5 0
BBX 5 7 0 0
BITMAP
50
20
70
88
88
88
70
ENDCHAR
STARTCHAR 01D4
ENCODING 468
SWIDTH 540 0
DWIDTH 6 0
BBX 5 6 0 1
BITMAP
30
D8
48
48
48
38
ENDCHAR
STARTCHAR 01D6
ENCODING 470
SWIDTH 540 0
DWIDTH 6 0
BBX 5 7 0 0
BITMAP
30
48
C8
48
48
48
38
ENDCHAR
STARTCHAR 01D8
ENCODING 472
SWIDTH 540 0
DWIDTH 6 0
BBX 5 8 0 0
BITMAP
10
20
48
C8
48
48
48
38
ENDCHAR
STARTCHAR 01DA
ENCODING 474
SWIDTH 540 0
DWIDTH 6 0
BBX 5 8 0 0
BITMAP
20
10
48
C8
48
48
48
38
ENDCHAR
STARTCHAR 01DC
ENCODING 476
SWIDTH 540 0
DWIDTH 6 0
BBX 5 8 0 0
BITMAP
20
00
50
D8
48
48
48
38
ENDCHAR
STARTCHAR 01F9
ENCODING 505
SWIDTH 540 0
DWIDTH 6 0
BBX 5 7 0 1
BITMAP
20
00
D0
68
48
48
D8
ENDCHAR
STARTCHAR 0251
ENCODING 593
SWIDTH 450 0
DWIDTH 5 0
BBX 4 5 0 0
BITMAP
70
90
90
90
70
ENDCHAR
STARTCHAR 0261
ENCODING 609
SWIDTH 450 0
DWIDTH 5 0
BBX 4 6 0 -1
BITMAP
70
90
90
F0
90
60
ENDCHAR
STARTCHAR 02C6
ENCODING 710
SWIDTH 450 0
DWIDTH 5 0
BBX 2 1 1 6
BITMAP
C0
ENDCHAR
STARTCHAR 02C7
ENCODING 711
SWIDTH 990 0
DWIDTH 11 0
BBX 2 1 4 7
BITMAP
C0
ENDCHAR
STARTCHAR 02C9
ENCODING 713
SWIDTH 990 0
DWIDTH 11 0
BBX 4 1 3 6
BITMAP
F0
ENDCHAR
STARTCHAR 02CA
ENCODING 714
SWIDTH 990 0
DWIDTH 11 0
BBX 3 2 4 7
BITMAP
60
80
ENDCHAR
STARTCHAR 02CB
ENCODING 715
SWIDTH 990 0
DWIDTH 11 0
BBX 2 2 4 6
BITMAP
80
40
ENDCHAR
STARTCHAR 02D9
ENCODING 729
SWIDTH 1080 0
DWIDTH 12 0
BBX 2 2 5 5
BITMAP
C0
C0
ENDCHAR
STARTCHAR 02DC
ENCODING 732
SWIDTH 450 0
DWIDTH 5 0
BBX 3 2 0 6
BITMAP
C0
60
ENDCHAR
STARTCHAR 0391
ENCODING 913
SWIDTH 990 0
DWIDTH 11 0
BBX 7 7 2 1
BITMAP
10
10
30
48
78
44
C6
ENDCHAR
STARTCHAR 0392
ENCODING 914
SWIDTH 900 0
DWIDTH 10 0
BBX 6 8 2 -1
BITMAP
F8
44
48
78
48
44
44
F8
ENDCHAR
STARTCHAR 0393
ENCODING 915
SWIDTH 1080 0
DWIDTH 12 0
BBX 6 8 3 -1
BITMAP
FC
44
44
40
40
40
40
E0
ENDCHAR
STARTCHAR 0394
ENCODING 916
SWIDTH 990 0
DWIDTH 11 0
BBX 6 7 2 2
BITMAP
10
10
30
48
48
84
7C
ENDCHAR
STARTCHAR 0395
ENCODING 917
SWIDTH 990 0
DWIDTH 11 0
BBX 6 7 2 0
BITMAP
7C
40
50
70
40
44
FC
ENDCHAR
STARTCHAR 0396
ENCODING 918
SWIDTH 990 0
DWIDTH 11 0
BBX 5 7 3 0
BITMAP
F8
90
20
20
40
80
F8
ENDCHAR
STARTCHAR 0397
ENCODING 919
SWIDTH 990 0
DWIDTH 11 0
BBX 7 7 2 0
BITMAP
EE
44
44
7C
44
44
EE
ENDCHAR
STARTCHAR 0398
ENCODING 920
SWIDTH 900 0
DWIDTH 10 0
BBX 6 6 2 1
BITMAP
78
CC
BC
AC
88
48
ENDCHAR
STARTCHAR 0399
ENCODING 921
SWIDTH 990 0
DWIDTH 11 0
BBX 3 8 4 -1
BITMAP
E0
40
40
40
40
40
40
E0
ENDCHAR
STARTCHAR 039A
ENCODING 922
SWIDTH 990 0
DWIDTH 11 0
BBX 7 7 2 1
BITMAP
EE
48
50
70
48
44
EE
ENDCHAR
STARTCHAR 039B
ENCODING 923
SWIDTH 900 0
DWIDTH 10 0
BBX 6 7 2 2
BITMAP
20
30
50
50
48
88
CC
ENDCHAR
STARTCHAR 039C
ENCODING 924
SWIDTH 990 0
DWIDTH 11 0
BBX 8 7 1 0
BITMAP
C3
66
6A
6A
5A
52
C7
ENDCHAR
STARTCHAR 039D
ENCODING 925
SWIDTH 990 0
DWIDTH 11 0
BBX 7 7 2 -1
BITMAP
C6
64
64
54
4C
44
C4
ENDCHAR
STARTCHAR 039E
ENCODING 926
SWIDTH 1080 0
DWIDTH 12 0
BBX 6 7 3 0
BITMAP
FC
04
08
78
00
04
FC
ENDCHAR
STARTCHAR 039F
ENCODING 927
SWIDTH 990 0
DWIDTH 11 0
BBX 6 8 2 -1
BITMAP
30
48
84
84
84
84
48
38
ENDCHAR
STARTCHAR 03A0
ENCODING 928
SWIDTH 990 0
DWIDTH 11 0
BBX 7 7 2 0
BITMAP
7C
44
44
44
44
44
EE
ENDCHAR
STARTCHAR 03A1
ENCODING 929
SWIDTH 900 0
DWIDTH 10 0
BBX 6 8 2 -1
BITMAP
F8
44
44
78
40
40
40
E0
ENDCHAR
STARTCHAR 03A3
ENCODING 931
SWIDTH 990 0
DWIDTH 11 0
BBX 5 7 3 0
BITMAP
F8
80
40
20
40
80
F8
ENDCHAR
STARTCHAR 03A4
ENCODING 932
SWIDTH 990 0
DWIDTH 11 0
BBX 6 8 2 -1
BITMAP
7C
94
10
10
10
10
10
38
ENDCHAR
STARTCHAR 03A5
ENCODING 933
SWIDTH 990 0
DWIDTH 11 0
BBX 5 8 3 0
BITMAP
18
F8
20
20
20
20
20
60
ENDCHAR
STARTCHAR 03A6
ENCODING 934
SWIDTH 990 0
DWIDTH 11 0
BBX 7 8 2 -1
BITMAP
38
7C
92
92
92
92
7C
38
ENDCHAR
STARTCHAR 03A7
ENCODING 935
SWIDTH 990 0
DWIDTH 11 0
BBX 7 7 2 1
BITMAP
E6
48
30
10
28
44
CE
ENDCHAR
STARTCHAR 03A8
ENCODING 936
SWIDTH 990 0
DWIDTH 11 0
BBX 8 7 1 0
BITMAP
DB
4A
4A
4A
4A
3C
18
ENDCHAR
STARTCHAR 03A9
ENCODING 937
SWIDTH 990 0
DWIDTH 11 0
BBX 6 8 3 0
BITMAP
78
48
84
84
84
48
34
FC
ENDCHAR
STARTCHAR 03B1
ENCODING 945
SWIDTH 1080 0
DWIDTH 12 0
BBX 4 6 3 0
BITMAP
60
90
90
90
90
60
ENDCHAR
STARTCHAR 03B2
ENCODING 946
SWIDTH 990 0
DWIDTH 11 0
BBX 5 9 2 0
BITMAP
70
48
48
58
48
48
58
40
C0
ENDCHAR
STARTCHAR 03B3
ENCODING 947
SWIDTH 990 0
DWIDTH 11 0
BBX 5 7 3 -1
BITMAP
C8
30
30
20
20
20
20
ENDCHAR
STARTCHAR 03B4
ENCODING 948
SWIDTH 900 0
DWIDTH 10 0
BBX 4 7 3 1
BITMAP
70
80
60
90
90
90
60
ENDCHAR
STARTCHAR 03B5
ENCODING 949
SWIDTH 990 0
DWIDTH 11 0
BBX 3 4 4 2
BITMAP
E0
80
80
E0
ENDCHAR
STARTCHAR 03B6
ENCODING 950
SWIDTH 900 0
DWIDTH 10 0
BBX 4 8 3 1
BITMAP
70
40
40
80
80
C0
30
30
ENDCHAR
STARTCHAR 03B7
ENCODING 951
SWIDTH 1080 0
DWIDTH 12 0
BBX 6 7 3 -2
BITMAP
78
48
48
48
C8
08
0C
ENDCHAR
STARTCHAR 03B8
ENCODING 952
SWIDTH 1080 0
DWIDTH 12 0
BBX 4 7 4 1
BITMAP
60
90
90
F0
90
90
60
ENDCHAR
STARTCHAR 03B9
ENCODING 953
SWIDTH 990 0
DWIDTH 11 0
BBX 3 5 4 1
BITMAP
C0
40
40
40
60
ENDCHAR
STARTCHAR 03BA
ENCODING 954
SWIDTH 990 0
DWIDTH 11 0
BBX 4 5 3 1
BITMAP
50
60
60
60
D0
ENDCHAR
STARTCHAR 03BB
ENCODING 955
SWIDTH 990 0
DWIDTH 11 0
BBX 5 7 3 0
BITMAP
40
40
20
20
20
D0
18
ENDCHAR
STARTCHAR 03BC
ENCODING 956
SWIDTH 1080 0
DWIDTH 12 0
BBX 5 7 3 -1
BITMAP
58
48
48
48
48
70
C0
ENDCHAR
STARTCHAR 03BD
ENCODING 957
SWIDTH 900 0
DWIDTH 10 0
BBX 4 4 3 1
BITMAP
90
90
60
60
ENDCHAR
STARTCHAR 03BE
ENCODING 958
SWIDTH 900 0
DWIDTH 10 0
BBX 4 9 3 -1
BITMAP
E0
80
60
60
80
80
60
10
60
ENDCHAR
STARTCHAR 03BF
ENCODING 959
SWIDTH 900 0
DWIDTH 10 0
BBX 4 6 3 0
BITMAP
60
90
90
90
A0
40
ENDCHAR
STARTCHAR 03C0
ENCODING 960
SWIDTH 900 0
DWIDTH 10 0
BBX 4 5 3 0
BITMAP
F0
50
50
50
D0
ENDCHAR
STARTCHAR 03C1
ENCODING 961
SWIDTH 990 0
DWIDTH 11 0
BBX 5 7 3 -1
BITMAP
30
48
48
48
48
70
C0
ENDCHAR
STARTCHAR 03C3
ENCODING 963
SWIDTH 990 0
DWIDTH 11 0
BBX 4 5 3 1
BITMAP
70
90
90
90
A0
ENDCHAR
STARTCHAR 03C4
ENCODING 964
SWIDTH 990 0
DWIDTH 11 0
BBX 3 5 4 1
BITMAP
E0
40
40
40
60
ENDCHAR
STARTCHAR 03C5
ENCODING 965
SWIDTH 990 0
DWIDTH 11 0
BBX 5 5 3 1
BITMAP
D8
48
48
50
70
ENDCHAR
STARTCHAR 03C6
ENCODING 966
SWIDTH 990 0
DWIDTH 11 0
BBX 6 8 3 0
BITMAP
10
10
78
94
94
94
78
30
ENDCHAR
STARTCHAR 03C7
ENCODING 967
SWIDTH 990 0
DWIDTH 11 0
BBX 5 5 3 0
BITMAP
98
50
60
60
90
ENDCHAR
STARTCHAR 03C8
ENCODING 968
SWIDTH 990 0
DWIDTH 11 0
BBX 4 8 4 0
BITMAP
20
20
B0
B0
B0
A0
60
60
ENDCHAR
STARTCHAR 03C9
ENCODING 969
SWIDTH 990 0
DWIDTH 11 0
BBX 6 5 2 2
BITMAP
40
84
94
94
6C
ENDCHAR
STARTCHAR 0401
ENCODING 1025
SWIDTH 990 0
DWIDTH 11 0
BBX 7 8 2 0
BITMAP
FC
44
48
78
48
4A
42
FE
ENDCHAR
STARTCHAR 0410
ENCODING 1040
SWIDTH 990 0
DWIDTH 11 0
BBX 7 7 2 2
BITMAP
10
30
30
48
78
84
C6
ENDCHAR
STARTCHAR 0411
ENCODING 1041
SWIDTH 990 0
DWIDTH 11 0
BBX 6 8 2 0
BITMAP
FC
44
44
78
44
44
44
F8
ENDCHAR
STARTCHAR 0412
ENCODING 1042
SWIDTH 990 0
DWIDTH 11 0
BBX 6 7 2 0
BITMAP
78
44
44
78
44
44
FC
ENDCHAR
STARTCHAR 0413
ENCODING 1043
SWIDTH 1080 0
DWIDTH 12 0
BBX 6 7 3 1
BITMAP
7C
44
40
40
40
40
E0
ENDCHAR
STARTCHAR 0414
ENCODING 1044
SWIDTH 990 0
DWIDTH 11 0
BBX 7 8 2 -1
BITMAP
7E
24
24
24
44
44
FE
82
ENDCHAR
STARTCHAR 0415
ENCODING 1045
SWIDTH 990 0
DWIDTH 11 0
BBX 6 8 2 0
BITMAP
FC
44
48
78
48
48
44
FC
ENDCHAR
STARTCHAR 0416
ENCODING 1046
SWIDTH 990 0
DWIDTH 11 0
BBX 9 7 1 1
BITMAP
5D00
4A00
2A00
3E00
4A00
C980
DC80
ENDCHAR
STARTCHAR 0417
ENCODING 1047
SWIDTH 990 0
DWIDTH 11 0
BBX 5 8 3 0
BITMAP
30
88
08
70
10
08
88
70
ENDCHAR
STARTCHAR 0418
ENCODING 1048
SWIDTH 990 0
DWIDTH 11 0
BBX 7 8 2 0
BITMAP
E6
42
4E
4A
52
62
42
E6
ENDCHAR
STARTCHAR 0419
ENCODING 1049
SWIDTH 990 0
DWIDTH 11 0
BBX 7 9 2 0
BITMAP
30
EE
42
4E
4A
52
62
42
E6
ENDCHAR
STARTCHAR 041A
ENCODING 1050
SWIDTH 990 0
DWIDTH 11 0
BBX 6 8 2 0
BITMAP
E4
5C
50
50
68
48
4C
E0
ENDCHAR
STARTCHAR 041B
ENCODING 1051
SWIDTH 900 0
DWIDTH 10 0
BBX 7 7 1 1
BITMAP
3E
12
12
12
12
22
C6
ENDCHAR
STARTCHAR 041C
ENCODING 1052
SWIDTH 990 0
DWIDTH 11 0
BBX 8 8 1 -1
BITMAP
C3
66
66
6A
6A
5A
52
C7
ENDCHAR
STARTCHAR 041D
ENCODING 1053
SWIDTH 990 0
DWIDTH 11 0
BBX 7 8 2 0
BITMAP
EE
44
44
7C
44
44
44
EE
ENDCHAR
STARTCHAR 041E
ENCODING 1054
SWIDTH 900 0
DWIDTH 10 0
BBX 6 8 2 -1
BITMAP
30
48
84
84
84
84
48
70
ENDCHAR
STARTCHAR 041F
ENCODING 1055
SWIDTH 990 0
DWIDTH 11 0
BBX 7 8 2 0
BITMAP
FE
44
44
44
44
44
44
EE
ENDCHAR
STARTCHAR 0420
ENCODING 1056
SWIDTH 900 0
DWIDTH 10 0
BBX 6 8 2 -1
BITMAP
F8
44
44
78
40
40
40
E0
ENDCHAR
STARTCHAR 0421
ENCODING 1057
SWIDTH 990 0
DWIDTH 11 0
BBX 6 8 3 0
BITMAP
34
4C
84
80
80
84
48
70
ENDCHAR
STARTCHAR 0422
ENCODING 1058
SWIDTH 990 0
DWIDTH 11 0
BBX 6 8 2 0
BITMAP
FC
94
90
10
10
10
10
78
ENDCHAR
STARTCHAR 0423
ENCODING 1059
SWIDTH 900 0
DWIDTH 10 0
BBX 6 8 2 0
BITMAP
CC
88
50
50
30
20
A0
C0
ENDCHAR
STARTCHAR 0424
ENCODING 1060
SWIDTH 990 0
DWIDTH 11 0
BBX 7 8 2 0
BITMAP
38
10
FC
92
92
D2
3C
38
ENDCHAR
STARTCHAR 0425
ENCODING 1061
SWIDTH 990 0
DWIDTH 11 0
BBX 7 7 2 1
BITMAP
E6
44
28
10
28
44
CE
ENDCHAR
STARTCHAR 0426
ENCODING 1062
SWIDTH 1080 0
DWIDTH 12 0
BBX 8 9 2 -1
BITMAP
E7
42
42
42
42
42
42
FF
01
ENDCHAR
STARTCHAR 0427
ENCODING 1063
SWIDTH 990 0
DWIDTH 11 0
BBX 7 8 2 0
BITMAP
EE
44
44
44
3C
04
04
0E
ENDCHAR
STARTCHAR 0428
ENCODING 1064
SWIDTH 990 0
DWIDTH 11 0
BBX 10 7 0 1
BITMAP
EDC0
4480
4480
4480
4480
4480
FFC0
ENDCHAR
STARTCHAR 0429
ENCODING 1065
SWIDTH 990 0
DWIDTH 11 0
BBX 10 9 0 -1
BITMAP
EEC0
4480
4480
4480
4480
4480
4480
FFC0
0040
ENDCHAR
STARTCHAR 042A
ENCODING 1066
SWIDTH 1080 0
DWIDTH 12 0
BBX 8 8 2 0
BITMAP
F0
A0
A0
3E
21
21
23
3E
ENDCHAR
STARTCHAR 042B
ENCODING 1067
SWIDTH 900 0
DWIDTH 10 0
BBX 8 8 1 0
BITMAP
E3
41
41
79
45
45
45
FB
ENDCHAR
STARTCHAR 042C
ENCODING 1068
SWIDTH 900 0
DWIDTH 10 0
BBX 6 8 2 0
BITMAP
E0
40
40
78
44
44
44
F8
ENDCHAR
STARTCHAR 042D
ENCODING 1069
SWIDTH 990 0
DWIDTH 11 0
BBX 6 7 2 1
BITMAP
B8
C8
04
1C
04
48
78
ENDCHAR
STARTCHAR 042E
ENCODING 1070
SWIDTH 990 0
DWIDTH 11 0
BBX 9 8 1 0
BITMAP
CF00
4900
5080
7080
5080
5080
4900
CE00
ENDCHAR
STARTCHAR 042F
ENCODING 1071
SWIDTH 1080 0
DWIDTH 12 0
BBX 6 8 3 -1
BITMAP
78
C8
88
88
78
48
48
1C
ENDCHAR
STARTCHAR 0430
ENCODING 1072
SWIDTH 900 0
DWIDTH 10 0
BBX 3 4 3 2
BITMAP
E0
60
A0
E0
ENDCHAR
STARTCHAR 0431
ENCODING 1073
SWIDTH 900 0
DWIDTH 10 0
BBX 4 7 3 1
BITMAP
60
E0
90
90
90
A0
40
ENDCHAR
STARTCHAR 0432
ENCODING 1074
SWIDTH 990 0
DWIDTH 11 0
BBX 5 5 3 1
BITMAP
F8
48
70
48
F8
ENDCHAR
STARTCHAR 0433
ENCODING 1075
SWIDTH 990 0
DWIDTH 11 0
BBX 5 5 3 0
BITMAP
F8
48
40
40
C0
ENDCHAR
STARTCHAR 0434
ENCODING 1076
SWIDTH 990 0
DWIDTH 11 0
BBX 5 6 3 0
BITMAP
78
50
50
90
F8
80
ENDCHAR
STARTCHAR 0435
ENCODING 1077
SWIDTH 900 0
DWIDTH 10 0
BBX 4 6 3 0
BITMAP
60
90
F0
80
90
60
ENDCHAR
STARTCHAR 0436
ENCODING 1078
SWIDTH 990 0
DWIDTH 11 0
BBX 6 5 2 1
BITMAP
B4
58
30
58
34
ENDCHAR
STARTCHAR 0437
ENCODING 1079
SWIDTH 990 0
DWIDTH 11 0
BBX 3 5 4 1
BITMAP
E0
60
20
20
C0
ENDCHAR
STARTCHAR 0438
ENCODING 1080
SWIDTH 990 0
DWIDTH 11 0
BBX 5 5 3 1
BITMAP
D8
48
78
48
D8
ENDCHAR
STARTCHAR 0439
ENCODING 1081
SWIDTH 990 0
DWIDTH 11 0
BBX 4 6 4 1
BITMAP
20
60
90
B0
D0
90
ENDCHAR
STARTCHAR 043A
ENCODING 1082
SWIDTH 990 0
DWIDTH 11 0
BBX 5 5 3 1
BITMAP
D8
60
60
50
D8
ENDCHAR
STARTCHAR 043B
ENCODING 1083
SWIDTH 990 0
DWIDTH 11 0
BBX 4 5 4 0
BITMAP
F0
50
50
50
B0
ENDCHAR
STARTCHAR 043C
ENCODING 1084
SWIDTH 990 0
DWIDTH 11 0
BBX 6 5 2 1
BITMAP
C4
4C
74
54
CC
ENDCHAR
STARTCHAR 043D
ENCODING 1085
SWIDTH 1080 0
DWIDTH 12 0
BBX 6 5 3 0
BITMAP
CC
48
78
48
CC
ENDCHAR
STARTCHAR 043E
ENCODING 1086
SWIDTH 900 0
DWIDTH 10 0
BBX 4 5 3 1
BITMAP
60
90
90
90
60
ENDCHAR
STARTCHAR 043F
ENCODING 1087
SWIDTH 990 0
DWIDTH 11 0
BBX 5 5 3 0
BITMAP
F8
48
48
48
C8
ENDCHAR
STARTCHAR 0440
ENCODING 1088
SWIDTH 990 0
DWIDTH 11 0
BBX 5 6 3 0
BITMAP
F0
48
48
50
60
C0
ENDCHAR
STARTCHAR 0441
ENCODING 1089
SWIDTH 990 0
DWIDTH 11 0
BBX 4 5 3 1
BITMAP
60
90
80
90
60
ENDCHAR
STARTCHAR 0442
ENCODING 1090
SWIDTH 990 0
DWIDTH 11 0
BBX 5 5 3 1
BITMAP
F8
A8
20
20
60
ENDCHAR
STARTCHAR 0443
ENCODING 1091
SWIDTH 1080 0
DWIDTH 12 0
BBX 6 7 3 -2
BITMAP
CC
48
50
30
20
20
C0
ENDCHAR
STARTCHAR 0444
ENCODING 1092
SWIDTH 900 0
DWIDTH 10 0
BBX 6 8 2 0
BITMAP
10
10
78
94
94
94
98
70
ENDCHAR
STARTCHAR 0445
ENCODING 1093
SWIDTH 990 0
DWIDTH 11 0
BBX 5 5 3 1
BITMAP
C8
50
20
D0
D8
ENDCHAR
STARTCHAR 0446
ENCODING 1094
SWIDTH 990 0
DWIDTH 11 0
BBX 5 5 3 0
BITMAP
48
48
48
48
F8
ENDCHAR
STARTCHAR 0447
ENCODING 1095
SWIDTH 990 0
DWIDTH 11 0
BBX 5 6 3 1
BITMAP
C8
48
48
78
08
18
ENDCHAR
STARTCHAR 0448
ENCODING 1096
SWIDTH 990 0
DWIDTH 11 0
BBX 8 5 1 1
BITMAP
49
49
49
49
FF
ENDCHAR
STARTCHAR 0449
ENCODING 1097
SWIDTH 990 0
DWIDTH 11 0
BBX 8 5 1 0
BITMAP
DB
49
49
49
FF
ENDCHAR
STARTCHAR 044A
ENCODING 1098
SWIDTH 990 0
DWIDTH 11 0
BBX 6 5 2 1
BITMAP
E0
20
38
24
78
ENDCHAR
STARTCHAR 044B
ENCODING 1099
SWIDTH 990 0
DWIDTH 11 0
BBX 6 5 2 2
BITMAP
44
44
74
4C
F4
ENDCHAR
STARTCHAR 044C
ENCODING 1100
SWIDTH 990 0
DWIDTH 11 0
BBX 5 5 3 1
BITMAP
40
40
70
48
F0
ENDCHAR
STARTCHAR 044D
ENCODING 1101
SWIDTH 900 0
DWIDTH 10 0
BBX 4 5 3 1
BITMAP
E0
90
70
10
A0
ENDCHAR
STARTCHAR 044E
ENCODING 1102
SWIDTH 990 0
DWIDTH 11 0
BBX 7 6 2 0
BITMAP
DC
52
62
62
D4
08
ENDCHAR
STARTCHAR 044F
ENCODING 1103
SWIDTH 990 0
DWIDTH 11 0
BBX 5 4 3 0
BITMAP
78
48
78
C8
ENDCHAR
STARTCHAR 0451
ENCODING 1105
SWIDTH 990 0
DWIDTH 11 0
BBX 4 7 3 0
BITMAP
60
60
90
F0
80
90
60
ENDCHAR
STARTCHAR 2010
ENCODING 8208
SWIDTH 990 0
DWIDTH 11 0
BBX 3 1 4 3
BITMAP
E0
ENDCHAR
STARTCHAR 2013
ENCODING 8211
SWIDTH 900 0
DWIDTH 10 0
BBX 4 1 3 3
BITMAP
F0
ENDCHAR
STARTCHAR 2014
ENCODING 8212
SWIDTH 900 0
DWIDTH 10 0
BBX 10 1 0 3
BITMAP
FFC0
ENDCHAR
STARTCHAR 2015
ENCODING 8213
SWIDTH 900 0
DWIDTH 10 0
BBX 8 1 1 3
BITMAP
FF
ENDCHAR
STARTCHAR 2016
ENCODING 8214
SWIDTH 990 0
DWIDTH 11 0
BBX 3 9 4 -1
BITMAP
A0
A0
A0
A0
A0
A0
A0
A0
A0
ENDCHAR
STARTCHAR 2018
ENCODING 8216
SWIDTH 900 0
DWIDTH 10 0
BBX 1 2 7 7
BITMAP
80
80
ENDCHAR
STARTCHAR 2019
ENCODING 8217
SWIDTH 900 0
DWIDTH 10 0
BBX 1 2 2 5
BITMAP
80
80
ENDCHAR
STARTCHAR 201A
ENCODING 8218
SWIDTH 540 0
DWIDTH 6 0
BBX 2 2 1 -1
BITMAP
C0
40
ENDCHAR
STARTCHAR 201C
ENCODING 8220
SWIDTH 900 0
DWIDTH 10 0
BBX 3 2 5 7
BITMAP
A0
A0
ENDCHAR
STARTCHAR 201D
ENCODING 8221
SWIDTH 900 0
DWIDTH 10 0
BBX 3 2 2 5
BITMAP
A0
A0
ENDCHAR
STARTCHAR 201E
ENCODING 8222
SWIDTH 450 0
DWIDTH 5 0
BBX 4 2 0 -1
BITMAP
F0
50
ENDCHAR
STARTCHAR 2020
ENCODING 8224
SWIDTH 540 0
DWIDTH 6 0
BBX 4 10 1 -1
BITMAP
20
20
F0
20
20
20
20
20
20
20
ENDCHAR
STARTCHAR 2021
ENCODING 8225
SWIDTH 540 0
DWIDTH 6 0
BBX 4 10 1 -1
BITMAP
40
40
F0
40
40
40
40
40
F0
40
ENDCHAR
STARTCHAR 2022
ENCODING 8226
SWIDTH 450 0
DWIDTH 5 0
BBX 3 3 1 3
BITMAP
40
E0
C0
ENDCHAR
STARTCHAR 2025
ENCODING 8229
SWIDTH 990 0
DWIDTH 11 0
BBX 6 2 3 3
BITMAP
CC
CC
ENDCHAR
STARTCHAR 2026
ENCODING 8230
SWIDTH 990 0
DWIDTH 11 0
BBX 9 2 1 3
BITMAP
D980
9100
ENDCHAR
STARTCHAR 2030
ENCODING 8240
SWIDTH 990 0
DWIDTH 11 0
BBX 9 9 1 0
BITMAP
4800
B000
B000
A000
6000
4F00
5680
9680
0B00
ENDCHAR
STARTCHAR 2032
ENCODING 8242
SWIDTH 990 0
DWIDTH 11 0
BBX 1 3 2 5
BITMAP
80
80
80
ENDCHAR
STARTCHAR 2033
ENCODING 8243
SWIDTH 1080 0
DWIDTH 12 0
BBX 4 3 2 5
BITMAP
D0
90
A0
ENDCHAR
STARTCHAR 2035
ENCODING 8245
SWIDTH 990 0
DWIDTH 11 0
BBX 1 2 4 6
BITMAP
80
80
ENDCHAR
STARTCHAR 2039
ENCODING 8249
SWIDTH 450 0
DWIDTH 5 0
BBX 2 5 1 1
BITMAP
40
80
80
80
40
ENDCHAR
STARTCHAR 203A
ENCODING 8250
SWIDTH 450 0
DWIDTH 5 0
BBX 2 3 1 2
BITMAP
80
40
80
ENDCHAR
STARTCHAR 203B
ENCODING 8251
SWIDTH 990 0
DWIDTH 11 0
BBX 7 8 2 0
BITMAP
12
84
48
30
92
28
44
92
ENDCHAR
STARTCHAR 20AC
ENCODING 8364
SWIDTH 990 0
DWIDTH 11 0
BBX 7 7 1 0
BITMAP
1C
22
40
FC
40
20
1C
ENDCHAR
STARTCHAR 2103
ENCODING 8451
SWIDTH 990 0
DWIDTH 11 0
BBX 9 8 1 0
BITMAP
C600
C980
1080
1000
1000
1000
0880
0700
ENDCHAR
STARTCHAR 2105
ENCODING 8453
SWIDTH 1080 0
DWIDTH 12 0
BBX 7 8 2 -1
BITMAP
64
88
88
90
16
1A
2A
2C
ENDCHAR
STARTCHAR 2109
ENCODING 8457
SWIDTH 1080 0
DWIDTH 12 0
BBX 9 8 1 0
BITMAP
CF80
C880
0800
0E00
0800
0800
0800
1C00
ENDCHAR
STARTCHAR 2116
ENCODING 8470
SWIDTH 990 0
DWIDTH 11 0
BBX 9 8 1 -1
BITMAP
CC00
6400
6500
5680
5680
4E80
4500
C780
ENDCHAR
STARTCHAR 2121
ENCODING 8481
SWIDTH 900 0
DWIDTH 10 0
BBX 5 2 2 6
BITMAP
B8
C8
ENDCHAR
STARTCHAR 2122
ENCODING 8482
SWIDTH 450 0
DWIDTH 5 0
BBX 4 4 1 4
BITMAP
D0
D0
D0
F0
ENDCHAR
STARTCHAR 2160
ENCODING 8544
SWIDTH 990 0
DWIDTH 11 0
BBX 3 9 4 -1
BITMAP
E0
40
40
40
40
40
40
40
E0
ENDCHAR
STARTCHAR 2161
ENCODING 8545
SWIDTH 900 0
DWIDTH 10 0
BBX 6 9 2 -1
BITMAP
FC
48
48
48
48
48
48
48
FC
ENDCHAR
STARTCHAR 2162
ENCODING 8546
SWIDTH 990 0
DWIDTH 11 0
BBX 10 9 0 -1
BITMAP
FFC0
4440
4440
4440
4440
4440
4440
4440
FFC0
ENDCHAR
STARTCHAR 2163
ENCODING 8547
SWIDTH 990 0
DWIDTH 11 0
BBX 9 9 1 -1
BITMAP
F980
5100
4900
4900
4A00
4A00
4600
4600
E000
ENDCHAR
STARTCHAR 2164
ENCODING 8548
SWIDTH 1080 0
DWIDTH 12 0
BBX 8 9 2 -1
BITMAP
E7
42
44
24
24
28
18
18
10
ENDCHAR
STARTCHAR 2165
ENCODING 8549
SWIDTH 990 0
DWIDTH 11 0
BBX 10 9 0 -1
BITMAP
E7C0
4280
4480
2480
2480
2880
1880
1880
11C0
ENDCHAR
STARTCHAR 2166
ENCODING 8550
SWIDTH 990 0
DWIDTH 11 0
BBX 10 9 0 -1
BITMAP
CFC0
4A80
4A80
4A80
5280
5280
3280
3280
27C0
ENDCHAR
STARTCHAR 2167
ENCODING 8551
SWIDTH 990 0
DWIDTH 11 0
BBX 10 9 0 -1
BITMAP
9FC0
9580
9580
9580
6580
6580
6580
6580
4FC0
ENDCHAR
STARTCHAR 2168
ENCODING 8552
SWIDTH 990 0
DWIDTH 11 0
BBX 9 9 1 -1
BITMAP
F980
4900
4900
4600
4400
4600
4900
4900
F980
ENDCHAR
STARTCHAR 2169
ENCODING 8553
SWIDTH 990 0
DWIDTH 11 0
BBX 7 9 2 -1
BITMAP
E6
44
28
30
10
30
48
44
CE
ENDCHAR
STARTCHAR 216A
ENCODING 8554
SWIDTH 990 0
DWIDTH 11 0
BBX 9 9 1 -1
BITMAP
CF80
4900
2900
3100
1100
7100
4900
8900
CF80
ENDCHAR
STARTCHAR 216B
ENCODING 8555
SWIDTH 990 0
DWIDTH 11 0
BBX 10 9 0 -1
BITMAP
E7C0
4540
2940
3140
1140
2940
4940
8540
CFC0
ENDCHAR
STARTCHAR 2170
ENCODING 8560
SWIDTH 990 0
DWIDTH 11 0
BBX 3 7 4 0
BITMAP
40
00
C0
40
40
40
E0
ENDCHAR
STARTCHAR 2171
ENCODING 8561
SWIDTH 990 0
DWIDTH 11 0
BBX 7 8 2 0
BITMAP
44
04
CC
44
44
44
44
EE
ENDCHAR
STARTCHAR 2172
ENCODING 8562
SWIDTH 990 0
DWIDTH 11 0
BBX 9 7 1 0
BITMAP
4980
0000
C980
4880
4880
4880
FF80
ENDCHAR
STARTCHAR 2173
ENCODING 8563
SWIDTH 990 0
DWIDTH 11 0
BBX 9 8 1 0
BITMAP
4000
4000
D980
4900
4900
4600
4600
E000
ENDCHAR
STARTCHAR 2174
ENCODING 8564
SWIDTH 990 0
DWIDTH 11 0
BBX 6 5 2 0
BITMAP
CC
48
50
30
20
ENDCHAR
STARTCHAR 2175
ENCODING 8565
SWIDTH 990 0
DWIDTH 11 0
BBX 9 7 1 0
BITMAP
0100
0000
EF00
4900
2900
1100
1380
ENDCHAR
STARTCHAR 2176
ENCODING 8566
SWIDTH 990 0
DWIDTH 11 0
BBX 10 8 0 0
BITMAP
0280
0000
CE80
4A80
4A80
3280
3280
03C0
ENDCHAR
STARTCHAR 2177
ENCODING 8567
SWIDTH 990 0
DWIDTH 11 0
BBX 10 7 0 1
BITMAP
0540
0000
CDC0
4D40
3540
2540
07C0
ENDCHAR
STARTCHAR 2178
ENCODING 8568
SWIDTH 990 0
DWIDTH 11 0
BBX 9 8 1 0
BITMAP
4000
0000
CD80
4500
4200
4600
4900
ED80
ENDCHAR
STARTCHAR 2179
ENCODING 8569
SWIDTH 990 0
DWIDTH 11 0
BBX 6 5 3 1
BITMAP
EC
30
20
50
98
ENDCHAR
STARTCHAR 2190
ENCODING 8592
SWIDTH 990 0
DWIDTH 11 0
BBX 9 3 1 3
BITMAP
1000
FF80
1000
ENDCHAR
STARTCHAR 2191
ENCODING 8593
SWIDTH 990 0
DWIDTH 11 0
BBX 3 8 4 0
BITMAP
40
40
E0
40
40
40
40
40
ENDCHAR
STARTCHAR 2192
ENCODING 8594
SWIDTH 990 0
DWIDTH 11 0
BBX 9 3 1 2
BITMAP
0400
FF80
0400
ENDCHAR
STARTCHAR 2193
ENCODING 8595
SWIDTH 990 0
DWIDTH 11 0
BBX 3 9 4 -1
BITMAP
40
40
40
40
40
E0
40
40
40
ENDCHAR
STARTCHAR 2196
ENCODING 8598
SWIDTH 990 0
DWIDTH 11 0
BBX 7 7 2 -1
BITMAP
C0
C0
20
10
08
04
02
ENDCHAR
STARTCHAR 2197
ENCODING 8599
SWIDTH 990 0
DWIDTH 11 0
BBX 7 7 2 0
BITMAP
06
06
08
10
20
40
80
ENDCHAR
STARTCHAR 2198
ENCODING 8600
SWIDTH 990 0
DWIDTH 11 0
BBX 7 6 2 2
BITMAP
80
40
20
10
0C
0E
ENDCHAR
STARTCHAR 2199
ENCODING 8601
SWIDTH 990 0
DWIDTH 11 0
BBX 7 7 2 0
BITMAP
02
04
08
10
20
C0
E0
ENDCHAR
STARTCHAR 2208
ENCODING 8712
SWIDTH 990 0
DWIDTH 11 0
BBX 7 6 2 1
BITMAP
7E
80
80
FE
80
7E
ENDCHAR
STARTCHAR 220F
ENCODING 8719
SWIDTH 900 0
DWIDTH 10 0
BBX 8 9 1 -1
BITMAP
FF
42
42
42
42
42
42
42
E7
ENDCHAR
STARTCHAR 2211
ENCODING 8721
SWIDTH 990 0
DWIDTH 11 0
BBX 7 9 2 -1
BITMAP
FC
82
42
40
20
20
40
82
FC
ENDCHAR
STARTCHAR 2215
ENCODING 8725
SWIDTH 990 0
DWIDTH 11 0
BBX 6 10 2 -1
BITMAP
04
08
08
10
10
20
20
40
40
80
ENDCHAR
STARTCHAR 221A
ENCODING 8730
SWIDTH 990 0
DWIDTH 11 0
BBX 6 7 3 0
BITMAP
04
08
08
08
10
D0
30
ENDCHAR
STARTCHAR 221D
ENCODING 8733
SWIDTH 990 0
DWIDTH 11 0
BBX 8 3 1 2
BITMAP
F7
88
77
ENDCHAR
STARTCHAR 221E
ENCODING 8734
SWIDTH 990 0
DWIDTH 11 0
BBX 9 3 1 2
BITMAP
7700
8880
5500
ENDCHAR
STARTCHAR 221F
ENCODING 8735
SWIDTH 990 0
DWIDTH 11 0
BBX 8 7 1 1
BITMAP
80
80
80
80
80
80
FF
ENDCHAR
STARTCHAR 2220
ENCODING 8736
SWIDTH 990 0
DWIDTH 11 0
BBX 7 7 2 2
BITMAP
06
08
10
20
40
80
FE
ENDCHAR
STARTCHAR 2223
ENCODING 8739
SWIDTH 990 0
DWIDTH 11 0
BBX 1 10 5 -1
BITMAP
80
80
80
80
80
80
80
80
80
80
ENDCHAR
STARTCHAR 2225
ENCODING 8741
SWIDTH 990 0
DWIDTH 11 0
BBX 7 7 2 0
BITMAP
10
22
24
44
48
90
90
ENDCHAR
STARTCHAR 2227
ENCODING 8743
SWIDTH 990 0
DWIDTH 11 0
BBX 8 9 1 -1
BITMAP
08
18
14
24
22
42
42
81
80
ENDCHAR
STARTCHAR 2228
ENCODING 8744
SWIDTH 990 0
DWIDTH 11 0
BBX 7 7 2 2
BITMAP
82
84
44
48
28
30
10
ENDCHAR
STARTCHAR 2229
ENCODING 8745
SWIDTH 900 0
DWIDTH 10 0
BBX 6 7 2 0
BITMAP
78
CC
84
84
84
84
84
ENDCHAR
STARTCHAR 222A
ENCODING 8746
SWIDTH 900 0
DWIDTH 10 0
BBX 6 7 2 0
BITMAP
84
84
84
84
84
CC
78
ENDCHAR
STARTCHAR 222B
ENCODING 8747
SWIDTH 990 0
DWIDTH 11 0
BBX 5 9 3 -1
BITMAP
18
28
20
20
20
20
20
20
C0
ENDCHAR
STARTCHAR 222E
ENCODING 8750
SWIDTH 900 0
DWIDTH 10 0
BBX 4 9 3 1
BITMAP
70
40
40
F0
D0
D0
60
80
80
ENDCHAR
STARTCHAR 2234
ENCODING 8756
SWIDTH 990 0
DWIDTH 11 0
BBX 7 7 2 -1
BITMAP
18
18
00
00
00
C6
C6
ENDCHAR
STARTCHAR 2235
ENCODING 8757
SWIDTH 990 0
DWIDTH 11 0
BBX 7 7 2 -1
BITMAP
C6
C6
00
00
00
18
18
ENDCHAR
STARTCHAR 2236
ENCODING 8758
SWIDTH 1080 0
DWIDTH 12 0
BBX 2 7 5 0
BITMAP
C0
C0
00
00
00
C0
C0
ENDCHAR
STARTCHAR 2237
ENCODING 8759
SWIDTH 990 0
DWIDTH 11 0
BBX 7 7 2 0
BITMAP
C6
C6
00
00
00
C6
C6
ENDCHAR
STARTCHAR 223D
ENCODING 8765
SWIDTH 990 0
DWIDTH 11 0
BBX 9 4 1 2
BITMAP
4700
8980
9100
6200
ENDCHAR
STARTCHAR 2248
ENCODING 8776
SWIDTH 900 0
DWIDTH 10 0
BBX 7 4 1 3
BITMAP
F0
0E
F0
0E
ENDCHAR
STARTCHAR 224C
ENCODING 8780
SWIDTH 990 0
DWIDTH 11 0
BBX 8 7 1 0
BITMAP
47
89
91
62
FF
00
FF
ENDCHAR
STARTCHAR 2252
ENCODING 8786
SWIDTH 990 0
DWIDTH 11 0
BBX 7 7 2 0
BITMAP
80
80
FE
00
FE
02
02
ENDCHAR
STARTCHAR 2260
ENCODING 8800
SWIDTH 900 0
DWIDTH 10 0
BBX 8 5 1 1
BITMAP
0C
FF
10
FF
20
ENDCHAR
STARTCHAR 2261
ENCODING 8801
SWIDTH 900 0
DWIDTH 10 0
BBX 8 4 1 2
BITMAP
FF
FF
00
FF
ENDCHAR
STARTCHAR 2264
ENCODING 8804
SWIDTH 990 0
DWIDTH 11 0
BBX 8 8 1 -1
BITMAP
01
0E
70
60
1C
C3
38
07
ENDCHAR
STARTCHAR 2265
ENCODING 8805
SWIDTH 990 0
DWIDTH 11 0
BBX 8 8 2 -1
BITMAP
C0
30
0E
04
38
43
1C
E0
ENDCHAR
STARTCHAR 2266
ENCODING 8806
SWIDTH 990 0
DWIDTH 11 0
BBX 7 6 2 2
BITMAP
0C
F0
7C
00
FE
FE
ENDCHAR
STARTCHAR 2267
ENCODING 8807
SWIDTH 990 0
DWIDTH 11 0
BBX 7 6 2 2
BITMAP
60
1E
7C
00
FE
FE
ENDCHAR
STARTCHAR 226E
ENCODING 8814
SWIDTH 990 0
DWIDTH 11 0
BBX 8 8 2 0
BITMAP
10
11
1E
70
D0
38
17
10
ENDCHAR
STARTCHAR 226F
ENCODING 8815
SWIDTH 900 0
DWIDTH 10 0
BBX 7 8 1 0
BITMAP
08
88
78
0E
0A
3C
C8
08
ENDCHAR
STARTCHAR 2295
ENCODING 8853
SWIDTH 990 0
DWIDTH 11 0
BBX 7 7 2 0
BITMAP
38
54
92
FE
92
54
3C
ENDCHAR
STARTCHAR 2299
ENCODING 8857
SWIDTH 990 0
DWIDTH 11 0
BBX 9 9 1 0
BITMAP
1E00
6300
4100
8080
8880
8080
8100
4100
3E00
ENDCHAR
STARTCHAR 22A5
ENCODING 8869
SWIDTH 1080 0
DWIDTH 12 0
BBX 1 8 5 0
BITMAP
80
80
80
80
80
80
80
80
ENDCHAR
STARTCHAR 22BF
ENCODING 8895
SWIDTH 990 0
DWIDTH 11 0
BBX 7 7 2 1
BITMAP
02
0E
12
22
42
82
FE
ENDCHAR
STARTCHAR 2312
ENCODING 8978
SWIDTH 990 0
DWIDTH 11 0
BBX 9 4 1 3
BITMAP
3C00
6300
8100
8080
ENDCHAR
STARTCHAR 2460
ENCODING 9312
SWIDTH 990 0
DWIDTH 11 0
BBX 11 10 0 -1
BITMAP
1F00
2080
4C40
8420
8420
8420
8420
4E40
20C0
1F00
ENDCHAR
STARTCHAR 2461
ENCODING 9313
SWIDTH 990 0
DWIDTH 11 0
BBX 11 10 0 -1
BITMAP
1F00
2080
5E40
9220
8220
8C20
9120
9E40
4040
2180
ENDCHAR
STARTCHAR 2462
ENCODING 9314
SWIDTH 990 0
DWIDTH 11 0
BBX 11 10 0 -1
BITMAP
1F00
2080
4E40
9220
8C20
8320
8120
5E40
20C0
1F00
ENDCHAR
STARTCHAR 2463
ENCODING 9315
SWIDTH 990 0
DWIDTH 11 0
BBX 11 10 0 -1
BITMAP
1F00
2080
4440
9C20
9420
A420
BE20
4E40
20C0
1F00
ENDCHAR
STARTCHAR 2464
ENCODING 9316
SWIDTH 990 0
DWIDTH 11 0
BBX 11 10 0 -1
BITMAP
1F00
2080
5E40
9020
9E20
8120
9120
4A40
24C0
1F00
ENDCHAR
STARTCHAR 2465
ENCODING 9317
SWIDTH 990 0
DWIDTH 11 0
BBX 11 10 0 -1
BITMAP
1F00
2080
4E40
9220
9020
9E20
9120
4E40
20C0
1F00
ENDCHAR
STARTCHAR 2466
ENCODING 9318
SWIDTH 990 0
DWIDTH 11 0
BBX 11 10 0 -1
BITMAP
1F00
2080
5F40
8220
8420
8420
8420
4440
20C0
1F00
ENDCHAR
STARTCHAR 2467
ENCODING 9319
SWIDTH 990 0
DWIDTH 11 0
BBX 11 10 0 -1
BITMAP
1F00
2080
4640
9920
9120
8E20
9B20
5140
2EC0
1F00
ENDCHAR
STARTCHAR 2468
ENCODING 9320
SWIDTH 990 0
DWIDTH 11 0
BBX 11 11 0 -1
BITMAP
1F00
2080
4E40
9220
9220
9220
8E20
8220
4C40
2080
1F00
ENDCHAR
STARTCHAR 2469
ENCODING 9321
SWIDTH 990 0
DWIDTH 11 0
BBX 11 10 0 -1
BITMAP
1F00
2080
7640
9520
9520
9520
9520
7A40
20C0
1F00
ENDCHAR
STARTCHAR 2474
ENCODING 9332
SWIDTH 900 0
DWIDTH 10 0
BBX 10 7 0 0
BITMAP
4C00
8480
8440
8440
8440
8440
4C80
ENDCHAR
STARTCHAR 2475
ENCODING 9333
SWIDTH 900 0
DWIDTH 10 0
BBX 10 7 0 -1
BITMAP
5C00
9280
8440
8840
8840
9040
9E80
ENDCHAR
STARTCHAR 2476
ENCODING 9334
SWIDTH 900 0
DWIDTH 10 0
BBX 10 8 0 -1
BITMAP
4C00
9280
8440
8840
8640
9240
4C80
4000
ENDCHAR
STARTCHAR 2477
ENCODING 9335
SWIDTH 900 0
DWIDTH 10 0
BBX 10 7 0 0
BITMAP
4480
8480
8C40
9440
9440
9E40
4E80
ENDCHAR
STARTCHAR 2478
ENCODING 9336
SWIDTH 900 0
DWIDTH 10 0
BBX 10 8 0 0
BITMAP
5E80
9080
9C40
8240
9240
9240
8C80
4000
ENDCHAR
STARTCHAR 2479
ENCODING 9337
SWIDTH 900 0
DWIDTH 10 0
BBX 10 7 0 0
BITMAP
9C80
9040
9C40
9240
9240
9480
0800
ENDCHAR
STARTCHAR 247A
ENCODING 9338
SWIDTH 900 0
DWIDTH 10 0
BBX 10 7 0 0
BITMAP
5E80
8280
8440
8440
8840
8840
8880
ENDCHAR
STARTCHAR 247B
ENCODING 9339
SWIDTH 900 0
DWIDTH 10 0
BBX 10 9 0 -1
BITMAP
2000
5C80
9280
9C40
8C40
9240
9240
4C80
2000
ENDCHAR
STARTCHAR 247C
ENCODING 9340
SWIDTH 900 0
DWIDTH 10 0
BBX 10 8 0 -1
BITMAP
0C80
9280
9240
9240
8E40
8240
9280
4C80
ENDCHAR
STARTCHAR 247D
ENCODING 9341
SWIDTH 900 0
DWIDTH 10 0
BBX 10 7 0 0
BITMAP
7600
9580
9540
9540
9540
9540
7280
ENDCHAR
STARTCHAR 247E
ENCODING 9342
SWIDTH 900 0
DWIDTH 10 0
BBX 10 8 0 0
BITMAP
7200
9280
9240
9240
9240
9240
7380
0080
ENDCHAR
STARTCHAR 247F
ENCODING 9343
SWIDTH 900 0
DWIDTH 10 0
BBX 10 7 0 0
BITMAP
7700
9580
9140
9240
9240
9440
7780
ENDCHAR
STARTCHAR 2480
ENCODING 9344
SWIDTH 900 0
DWIDTH 10 0
BBX 10 7 0 0
BITMAP
7600
9580
9240
9240
9140
9540
7280
ENDCHAR
STARTCHAR 2481
ENCODING 9345
SWIDTH 900 0
DWIDTH 10 0
BBX 10 8 0 0
BITMAP
3100
9180
9340
9540
9540
9740
7380
0080
ENDCHAR
STARTCHAR 2482
ENCODING 9346
SWIDTH 900 0
DWIDTH 10 0
BBX 10 8 0 -1
BITMAP
1600
7480
9440
9640
9140
9140
9540
7680
ENDCHAR
STARTCHAR 2483
ENCODING 9347
SWIDTH 900 0
DWIDTH 10 0
BBX 10 7 0 0
BITMAP
7780
9480
9440
9740
9540
9540
7280
ENDCHAR
STARTCHAR 2484
ENCODING 9348
SWIDTH 900 0
DWIDTH 10 0
BBX 10 8 0 -1
BITMAP
5780
B180
9240
9240
9440
9440
9440
7080
ENDCHAR
STARTCHAR 2485
ENCODING 9349
SWIDTH 900 0
DWIDTH 10 0
BBX 10 7 0 0
BITMAP
7780
9580
9540
9640
9540
9540
7280
ENDCHAR
STARTCHAR 2486
ENCODING 9350
SWIDTH 900 0
DWIDTH 10 0
BBX 10 8 0 -1
BITMAP
1200
7580
9540
9540
9540
9340
9540
7280
ENDCHAR
STARTCHAR 2487
ENCODING 9351
SWIDTH 900 0
DWIDTH 10 0
BBX 10 8 0 0
BITMAP
0200
6D80
8D40
9540
9540
A540
CD40
7280
ENDCHAR
STARTCHAR 2488
ENCODING 9352
SWIDTH 990 0
DWIDTH 11 0
BBX 6 8 4 -1
BITMAP
40
C0
40
40
40
40
40
A4
ENDCHAR
STARTCHAR 2489
ENCODING 9353
SWIDTH 900 0
DWIDTH 10 0
BBX 6 7 3 1
BITMAP
60
90
10
20
40
84
F4
ENDCHAR
STARTCHAR 248A
ENCODING 9354
SWIDTH 990 0
DWIDTH 11 0
BBX 6 8 4 0
BITMAP
60
90
10
20
30
10
94
64
ENDCHAR
STARTCHAR 248B
ENCODING 9355
SWIDTH 990 0
DWIDTH 11 0
BBX 7 7 3 1
BITMAP
10
10
70
50
90
FA
3A
ENDCHAR
STARTCHAR 248C
ENCODING 9356
SWIDTH 990 0
DWIDTH 11 0
BBX 7 8 3 1
BITMAP
78
40
40
70
08
08
CA
30
ENDCHAR
STARTCHAR 248D
ENCODING 9357
SWIDTH 900 0
DWIDTH 10 0
BBX 6 7 3 1
BITMAP
60
90
80
E0
90
90
A4
ENDCHAR
STARTCHAR 248E
ENCODING 9358
SWIDTH 990 0
DWIDTH 11 0
BBX 6 7 4 1
BITMAP
F0
10
20
40
40
40
44
ENDCHAR
STARTCHAR 248F
ENCODING 9359
SWIDTH 990 0
DWIDTH 11 0
BBX 7 7 3 1
BITMAP
70
48
30
50
88
88
72
ENDCHAR
STARTCHAR 2490
ENCODING 9360
SWIDTH 900 0
DWIDTH 10 0
BBX 7 8 3 0
BITMAP
60
90
90
90
70
10
90
62
ENDCHAR
STARTCHAR 2491
ENCODING 9361
SWIDTH 900 0
DWIDTH 10 0
BBX 9 9 1 -1
BITMAP
4C00
D200
5200
5200
5200
5200
5400
B480
0800
ENDCHAR
STARTCHAR 2492
ENCODING 9362
SWIDTH 900 0
DWIDTH 10 0
BBX 9 9 1 -1
BITMAP
4400
CC00
4400
4400
4400
4400
4400
4480
EC00
ENDCHAR
STARTCHAR 2493
ENCODING 9363
SWIDTH 990 0
DWIDTH 11 0
BBX 9 9 1 -1
BITMAP
4E00
D200
5200
4200
4400
4800
4800
5280
FE00
ENDCHAR
STARTCHAR 2494
ENCODING 9364
SWIDTH 990 0
DWIDTH 11 0
BBX 9 7 1 1
BITMAP
4C00
D200
4400
4400
4200
5280
EC80
ENDCHAR
STARTCHAR 2495
ENCODING 9365
SWIDTH 990 0
DWIDTH 11 0
BBX 9 9 1 -1
BITMAP
4200
C200
4600
4600
4A00
5200
4E00
4280
E600
ENDCHAR
STARTCHAR 2496
ENCODING 9366
SWIDTH 990 0
DWIDTH 11 0
BBX 9 9 1 0
BITMAP
4E00
D000
5000
5000
4C00
4200
4200
5480
0800
ENDCHAR
STARTCHAR 2497
ENCODING 9367
SWIDTH 900 0
DWIDTH 10 0
BBX 9 9 1 -1
BITMAP
4E00
D200
5200
5000
5C00
5200
5400
5480
E800
ENDCHAR
STARTCHAR 2498
ENCODING 9368
SWIDTH 990 0
DWIDTH 11 0
BBX 9 9 1 -1
BITMAP
4E00
D200
5400
4400
4800
4800
4800
4880
E800
ENDCHAR
STARTCHAR 2499
ENCODING 9369
SWIDTH 990 0
DWIDTH 11 0
BBX 7 9 1 -1
BITMAP
4C
D2
52
52
4C
4C
52
52
EC
ENDCHAR
STARTCHAR 249A
ENCODING 9370
SWIDTH 990 0
DWIDTH 11 0
BBX 9 7 1 1
BITMAP
4C00
D200
5200
5200
4E00
5280
EC00
ENDCHAR
STARTCHAR 249B
ENCODING 9371
SWIDTH 1080 0
DWIDTH 12 0
BBX 9 8 1 0
BITMAP
0600
F900
1900
2900
2900
4900
9900
F680
ENDCHAR
STARTCHAR 2500
ENCODING 9472
SWIDTH 990 0
DWIDTH 11 0
BBX 11 1 0 3
BITMAP
FFE0
ENDCHAR
STARTCHAR 2501
ENCODING 9473
SWIDTH 990 0
DWIDTH 11 0
BBX 11 1 0 3
BITMAP
FFE0
ENDCHAR
STARTCHAR 2502
ENCODING 9474
SWIDTH 990 0
DWIDTH 11 0
BBX 1 11 5 -1
BITMAP
80
80
80
80
80
80
80
80
80
80
80
ENDCHAR
STARTCHAR 2503
ENCODING 9475
SWIDTH 990 0
DWIDTH 11 0
BBX 1 11 5 -1
BITMAP
80
80
80
80
80
80
80
80
80
80
80
ENDCHAR
STARTCHAR 2504
ENCODING 9476
SWIDTH 990 0
DWIDTH 11 0
BBX 11 1 0 3
BITMAP
EEE0
ENDCHAR
STARTCHAR 2505
ENCODING 9477
SWIDTH 990 0
DWIDTH 11 0
BBX 11 1 0 3
BITMAP
EEE0
ENDCHAR
STARTCHAR 2506
ENCODING 9478
SWIDTH 990 0
DWIDTH 11 0
BBX 1 11 5 -1
BITMAP
80
80
80
00
80
80
80
00
80
80
80
ENDCHAR
STARTCHAR 2507
ENCODING 9479
SWIDTH 990 0
DWIDTH 11 0
BBX 1 11 5 -1
BITMAP
80
80
80
00
80
80
80
00
80
80
80
ENDCHAR
STARTCHAR 2508
ENCODING 9480
SWIDTH 990 0
DWIDTH 11 0
BBX 11 1 0 3
BITMAP
DB60
ENDCHAR
STARTCHAR 2509
ENCODING 9481
SWIDTH 990 0
DWIDTH 11 0
BBX 11 1 0 3
BITMAP
DB60
ENDCHAR
STARTCHAR 250A
ENCODING 9482
SWIDTH 990 0
DWIDTH 11 0
BBX 1 11 5 -1
BITMAP
80
80
00
80
80
00
80
80
00
80
80
ENDCHAR
STARTCHAR 250B
ENCODING 9483
SWIDTH 990 0
DWIDTH 11 0
BBX 1 11 5 -1
BITMAP
80
80
00
80
80
00
80
80
00
80
80
ENDCHAR
STARTCHAR 250C
ENCODING 9484
SWIDTH 990 0
DWIDTH 11 0
BBX 6 6 5 -1
BITMAP
FC
80
80
80
80
80
ENDCHAR
STARTCHAR 250D
ENCODING 9485
SWIDTH 990 0
DWIDTH 11 0
BBX 6 6 5 -1
BITMAP
FC
80
80
80
80
80
ENDCHAR
STARTCHAR 250E
ENCODING 9486
SWIDTH 990 0
DWIDTH 11 0
BBX 6 6 5 -1
BITMAP
FC
80
80
80
80
80
ENDCHAR
STARTCHAR 250F
ENCODING 9487
SWIDTH 990 0
DWIDTH 11 0
BBX 6 6 5 -1
BITMAP
FC
80
80
80
80
80
ENDCHAR
STARTCHAR 2510
ENCODING 9488
SWIDTH 990 0
DWIDTH 11 0
BBX 6 6 0 -1
BITMAP
FC
04
04
04
04
04
ENDCHAR
STARTCHAR 2511
ENCODING 9489
SWIDTH 990 0
DWIDTH 11 0
BBX 6 6 0 -1
BITMAP
FC
04
04
04
04
04
ENDCHAR
STARTCHAR 2512
ENCODING 9490
SWIDTH 990 0
DWIDTH 11 0
BBX 6 6 0 -1
BITMAP
FC
04
04
04
04
04
ENDCHAR
STARTCHAR 2513
ENCODING 9491
SWIDTH 990 0
DWIDTH 11 0
BBX 6 6 0 -1
BITMAP
FC
04
04
04
04
04
ENDCHAR
STARTCHAR 2514
ENCODING 9492
SWIDTH 990 0
DWIDTH 11 0
BBX 6 6 5 3
BITMAP
80
80
80
80
80
FC
ENDCHAR
STARTCHAR 2515
ENCODING 9493
SWIDTH 990 0
DWIDTH 11 0
BBX 6 6 5 3
BITMAP
80
80
80
80
80
FC
ENDCHAR
STARTCHAR 2516
ENCODING 9494
SWIDTH 990 0
DWIDTH 11 0
BBX 6 6 5 3
BITMAP
80
80
80
80
80
FC
ENDCHAR
STARTCHAR 2517
ENCODING 9495
SWIDTH 990 0
DWIDTH 11 0
BBX 6 6 5 3
BITMAP
80
80
80
80
80
FC
ENDCHAR
STARTCHAR 2518
ENCODING 9496
SWIDTH 990 0
DWIDTH 11 0
BBX 6 6 0 3
BITMAP
04
04
04
04
04
FC
ENDCHAR
STARTCHAR 2519
ENCODING 9497
SWIDTH 990 0
DWIDTH 11 0
BBX 6 6 0 3
BITMAP
04
04
04
04
04
FC
ENDCHAR
STARTCHAR 251A
ENCODING 9498
SWIDTH 990 0
DWIDTH 11 0
BBX 6 6 0 3
BITMAP
04
04
04
04
04
FC
ENDCHAR
STARTCHAR 251B
ENCODING 9499
SWIDTH 990 0
DWIDTH 11 0
BBX 6 6 0 3
BITMAP
04
04
04
04
04
FC
ENDCHAR
STARTCHAR 251C
ENCODING 9500
SWIDTH 990 0
DWIDTH 11 0
BBX 6 11 5 -1
BITMAP
80
80
80
80
80
FC
80
80
80
80
80
ENDCHAR
STARTCHAR 251D
ENCODING 9501
SWIDTH 990 0
DWIDTH 11 0
BBX 6 11 5 -1
BITMAP
80
80
80
80
80
FC
80
80
80
80
80
ENDCHAR
STARTCHAR 251E
ENCODING 9502
SWIDTH 990 0
DWIDTH 11 0
BBX 6 11 5 -1
BITMAP
80
80
80
80
80
FC
80
80
80
80
80
ENDCHAR
STARTCHAR 251F
ENCODING 9503
SWIDTH 990 0
DWIDTH 11 0
BBX 6 11 5 -1
BITMAP
80
80
80
80
80
FC
80
80
80
80
80
ENDCHAR
STARTCHAR 2520
ENCODING 9504
SWIDTH 990 0
DWIDTH 11 0
BBX 6 11 5 -1
BITMAP
80
80
80
80
80
FC
80
80
80
80
80
ENDCHAR
STARTCHAR 2521
ENCODING 9505
SWIDTH 990 0
DWIDTH 11 0
BBX 6 11 5 -1
BITMAP
80
80
80
80
80
FC
80
80
80
80
80
ENDCHAR
STARTCHAR 2522
ENCODING 9506
SWIDTH 990 0
DWIDTH 11 0
BBX 6 11 5 -1
BITMAP
80
80
80
80
80
FC
80
80
80
80
80
ENDCHAR
STARTCHAR 2523
ENCODING 9507
SWIDTH 990 0
DWIDTH 11 0
BBX 6 11 5 -1
BITMAP
80
80
80
80
80
FC
80
80
80
80
80
ENDCHAR
STARTCHAR 2524
ENCODING 9508
SWIDTH 990 0
DWIDTH 11 0
BBX 6 11 0 -1
BITMAP
04
04
04
04
04
FC
04
04
04
04
04
ENDCHAR
STARTCHAR 2525
ENCODING 9509
SWIDTH 990 0
DWIDTH 11 0
BBX 6 11 0 -1
BITMAP
04
04
04
04
04
FC
04
04
04
04
04
ENDCHAR
STARTCHAR 2526
ENCODING 9510
SWIDTH 990 0
DWIDTH 11 0
BBX 6 11 0 -1
BITMAP
04
04
04
04
04
FC
04
04
04
04
04
ENDCHAR
STARTCHAR 2527
ENCODING 9511
SWIDTH 990 0
DWIDTH 11 0
BBX 6 11 0 -1
BITMAP
04
04
04
04
04
FC
04
04
04
04
04
ENDCHAR
STARTCHAR 2528
ENCODING 9512
SWIDTH 990 0
DWIDTH 11 0
BBX 6 11 0 -1
BITMAP
04
04
04
04
04
FC
04
04
04
04
04
ENDCHAR
STARTCHAR 2529
ENCODING 9513
SWIDTH 990 0
DWIDTH 11 0
BBX 6 11 0 -1
BITMAP
04
04
04
04
04
FC
04
04
04
04
04
ENDCHAR
STARTCHAR 252A
ENCODING 9514
SWIDTH 990 0
DWIDTH 11 0
BBX 6 11 0 -1
BITMAP
04
04
04
04
04
FC
04
04
04
04
04
ENDCHAR
STARTCHAR 252B
ENCODING 9515
SWIDTH 990 0
DWIDTH 11 0
BBX 6 11 0 -1
BITMAP
04
04
04
04
04
FC
04
04
04
04
04
ENDCHAR
STARTCHAR 252C
ENCODING 9516
SWIDTH 990 0
DWIDTH 11 0
BBX 11 6 0 -1
BITMAP
FFE0
0400
0400
0400
0400
0400
ENDCHAR
STARTCHAR 252D
ENCODING 9517
SWIDTH 990 0
DWIDTH 11 0
BBX 11 6 0 -1
BITMAP
FFE0
0400
0400
0400
0400
0400
ENDCHAR
STARTCHAR 252E
ENCODING 9518
SWIDTH 990 0
DWIDTH 11 0
BBX 11 6 0 -1
BITMAP
FFE0
0400
0400
0400
0400
0400
ENDCHAR
STARTCHAR 252F
ENCODING 9519
SWIDTH 990 0
DWIDTH 11 0
BBX 11 6 0 -1
BITMAP
FFE0
0400
0400
0400
0400
0400
ENDCHAR
STARTCHAR 2530
ENCODING 9520
SWIDTH 990 0
DWIDTH 11 0
BBX 11 6 0 -1
BITMAP
FFE0
0400
0400
0400
0400
0400
ENDCHAR
STARTCHAR 2531
ENCODING 9521
SWIDTH 990 0
DWIDTH 11 0
BBX 11 6 0 -1
BITMAP
FFE0
0400
0400
0400
0400
0400
ENDCHAR
STARTCHAR 2532
ENCODING 9522
SWIDTH 990 0
DWIDTH 11 0
BBX 11 6 0 -1
BITMAP
FFE0
0400
0400
0400
0400
0400
ENDCHAR
STARTCHAR 2533
ENCODING 9523
SWIDTH 990 0
DWIDTH 11 0
BBX 11 6 0 -1
BITMAP
FFE0
0400
0400
0400
0400
0400
ENDCHAR
STARTCHAR 2534
ENCODING 9524
SWIDTH 990 0
DWIDTH 11 0
BBX 11 6 0 3
BITMAP
0400
0400
0400
0400
0400
FFE0
ENDCHAR
STARTCHAR 2535
ENCODING 9525
SWIDTH 990 0
DWIDTH 11 0
BBX 11 6 0 3
BITMAP
0400
0400
0400
0400
0400
FFE0
ENDCHAR
STARTCHAR 2536
ENCODING 9526
SWIDTH 990 0
DWIDTH 11 0
BBX 11 6 0 3
BITMAP
0400
0400
0400
0400
0400
FFE0
ENDCHAR
STARTCHAR 2537
ENCODING 9527
SWIDTH 990 0
DWIDTH 11 0
BBX 11 6 0 3
BITMAP
0400
0400
0400
0400
0400
FFE0
ENDCHAR
STARTCHAR 2538
ENCODING 9528
SWIDTH 990 0
DWIDTH 11 0
BBX 11 6 0 3
BITMAP
0400
0400
0400
0400
0400
FFE0
ENDCHAR
STARTCHAR 2539
ENCODING 9529
SWIDTH 990 0
DWIDTH 11 0
BBX 11 6 0 3
BITMAP
0400
0400
0400
0400
0400
FFE0
ENDCHAR
STARTCHAR 253A
ENCODING 9530
SWIDTH 990 0
DWIDTH 11 0
BBX 11 6 0 3
BITMAP
0400
0400
0400
0400
0400
FFE0
ENDCHAR
STARTCHAR 253B
ENCODING 9531
SWIDTH 990 0
DWIDTH 11 0
BBX 11 6 0 3
BITMAP
0400
0400
0400
0400
0400
FFE0
ENDCHAR
STARTCHAR 253C
ENCODING 9532
SWIDTH 990 0
DWIDTH 11 0
BBX 11 11 0 -1
BITMAP
0400
0400
0400
0400
0400
FFE0
0400
0400
0400
0400
0400
ENDCHAR
STARTCHAR 253D
ENCODING 9533
SWIDTH 990 0
DWIDTH 11 0
BBX 11 11 0 -1
BITMAP
0400
0400
0400
0400
0400
FFE0
0400
0400
0400
0400
0400
ENDCHAR
STARTCHAR 253E
ENCODING 9534
SWIDTH 990 0
DWIDTH 11 0
BBX 11 11 0 -1
BITMAP
0400
0400
0400
0400
0400
FFE0
0400
0400
0400
0400
0400
ENDCHAR
STARTCHAR 253F
ENCODING 9535
SWIDTH 990 0
DWIDTH 11 0
BBX 11 11 0 -1
BITMAP
0400
0400
0400
0400
0400
FFE0
0400
0400
0400
0400
0400
ENDCHAR
STARTCHAR 2540
ENCODING 9536
SWIDTH 990 0
DWIDTH 11 0
BBX 11 11 0 -1
BITMAP
0400
0400
0400
0400
0400
FFE0
0400
0400
0400
0400
0400
ENDCHAR
STARTCHAR 2541
ENCODING 9537
SWIDTH 990 0
DWIDTH 11 0
BBX 11 11 0 -1
BITMAP
0400
0400
0400
0400
0400
FFE0
0400
0400
0400
0400
0400
ENDCHAR
STARTCHAR 2542
ENCODING 9538
SWIDTH 990 0
DWIDTH 11 0
BBX 11 11 0 -1
BITMAP
0400
0400
0400
0400
0400
FFE0
0400
0400
0400
0400
0400
ENDCHAR
STARTCHAR 2543
ENCODING 9539
SWIDTH 990 0
DWIDTH 11 0
BBX 11 11 0 -1
BITMAP
0400
0400
0400
0400
0400
FFE0
0400
0400
0400
0400
0400
ENDCHAR
STARTCHAR 2544
ENCODING 9540
SWIDTH 990 0
DWIDTH 11 0
BBX 11 11 0 -1
BITMAP
0400
0400
0400
0400
0400
FFE0
0400
0400
0400
0400
0400
ENDCHAR
STARTCHAR 2545
ENCODING 9541
SWIDTH 990 0
DWIDTH 11 0
BBX 11 11 0 -1
BITMAP
0400
0400
0400
0400
0400
FFE0
0400
0400
0400
0400
0400
ENDCHAR
STARTCHAR 2546
ENCODING 9542
SWIDTH 990 0
DWIDTH 11 0
BBX 11 11 0 -1
BITMAP
0400
0400
0400
0400
0400
FFE0
0400
0400
0400
0400
0400
ENDCHAR
STARTCHAR 2547
ENCODING 9543
SWIDTH 990 0
DWIDTH 11 0
BBX 11 11 0 -1
BITMAP
0400
0400
0400
0400
0400
FFE0
0400
0400
0400
0400
0400
ENDCHAR
STARTCHAR 2548
ENCODING 9544
SWIDTH 990 0
DWIDTH 11 0
BBX 11 11 0 -1
BITMAP
0400
0400
0400
0400
0400
FFE0
0400
0400
0400
0400
0400
ENDCHAR
STARTCHAR 2549
ENCODING 9545
SWIDTH 990 0
DWIDTH 11 0
BBX 11 11 0 -1
BITMAP
0400
0400
0400
0400
0400
FFE0
0400
0400
0400
0400
0400
ENDCHAR
STARTCHAR 254A
ENCODING 9546
SWIDTH 990 0
DWIDTH 11 0
BBX 11 11 0 -1
BITMAP
0400
0400
0400
0400
0400
FFE0
0400
0400
0400
0400
0400
ENDCHAR
STARTCHAR 254B
ENCODING 9547
SWIDTH 990 0
DWIDTH 11 0
BBX 11 11 0 -1
BITMAP
0400
0400
0400
0400
0400
FFE0
0400
0400
0400
0400
0400
ENDCHAR
STARTCHAR 2550
ENCODING 9552
SWIDTH 990 0
DWIDTH 11 0
BBX 11 2 0 3
BITMAP
FFE0
FFE0
ENDCHAR
STARTCHAR 2551
ENCODING 9553
SWIDTH 1080 0
DWIDTH 12 0
BBX 2 11 5 -1
BITMAP
C0
C0
C0
C0
C0
C0
C0
C0
C0
C0
C0
ENDCHAR
STARTCHAR 2552
ENCODING 9554
SWIDTH 990 0
DWIDTH 11 0
BBX 6 6 5 -1
BITMAP
FC
FC
80
80
80
80
ENDCHAR
STARTCHAR 2553
ENCODING 9555
SWIDTH 990 0
DWIDTH 11 0
BBX 6 6 4 -1
BITMAP
FC
C0
C0
C0
C0
C0
ENDCHAR
STARTCHAR 2554
ENCODING 9556
SWIDTH 990 0
DWIDTH 11 0
BBX 6 6 4 -1
BITMAP
FC
FC
C0
C0
C0
C0
ENDCHAR
STARTCHAR 2555
ENCODING 9557
SWIDTH 990 0
DWIDTH 11 0
BBX 6 6 0 -1
BITMAP
FC
FC
04
04
04
04
ENDCHAR
STARTCHAR 2556
ENCODING 9558
SWIDTH 1080 0
DWIDTH 12 0
BBX 7 6 0 -1
BITMAP
FE
06
06
06
06
06
ENDCHAR
STARTCHAR 2557
ENCODING 9559
SWIDTH 1080 0
DWIDTH 12 0
BBX 7 6 0 -1
BITMAP
FE
FE
06
06
06
06
ENDCHAR
STARTCHAR 2558
ENCODING 9560
SWIDTH 990 0
DWIDTH 11 0
BBX 6 6 5 4
BITMAP
80
80
80
80
FC
FC
ENDCHAR
STARTCHAR 2559
ENCODING 9561
SWIDTH 990 0
DWIDTH 11 0
BBX 6 6 4 3
BITMAP
C0
C0
C0
C0
C0
FC
ENDCHAR
STARTCHAR 255A
ENCODING 9562
SWIDTH 990 0
DWIDTH 11 0
BBX 6 6 4 4
BITMAP
C0
C0
C0
C0
FC
FC
ENDCHAR
STARTCHAR 255B
ENCODING 9563
SWIDTH 990 0
DWIDTH 11 0
BBX 6 6 0 4
BITMAP
04
04
04
04
FC
FC
ENDCHAR
STARTCHAR 255C
ENCODING 9564
SWIDTH 1080 0
DWIDTH 12 0
BBX 7 6 0 3
BITMAP
06
06
06
06
06
FE
ENDCHAR
STARTCHAR 255D
ENCODING 9565
SWIDTH 1080 0
DWIDTH 12 0
BBX 7 6 0 4
BITMAP
06
06
06
06
FE
FE
ENDCHAR
STARTCHAR 255E
ENCODING 9566
SWIDTH 990 0
DWIDTH 11 0
BBX 6 11 5 -1
BITMAP
80
80
80
80
80
FC
FC
80
80
80
80
ENDCHAR
STARTCHAR 255F
ENCODING 9567
SWIDTH 990 0
DWIDTH 11 0
BBX 6 11 5 -1
BITMAP
C0
C0
C0
C0
C0
FC
C0
C0
C0
C0
C0
ENDCHAR
STARTCHAR 2560
ENCODING 9568
SWIDTH 1080 0
DWIDTH 12 0
BBX 6 11 5 -1
BITMAP
C0
C0
C0
C0
C0
FC
FC
C0
C0
C0
C0
ENDCHAR
STARTCHAR 2561
ENCODING 9569
SWIDTH 990 0
DWIDTH 11 0
BBX 6 11 0 -1
BITMAP
04
04
04
04
04
FC
FC
04
04
04
04
ENDCHAR
STARTCHAR 2562
ENCODING 9570
SWIDTH 1080 0
DWIDTH 12 0
BBX 7 11 0 -1
BITMAP
06
06
06
06
06
FE
06
06
06
06
06
ENDCHAR
STARTCHAR 2563
ENCODING 9571
SWIDTH 1080 0
DWIDTH 12 0
BBX 7 11 0 -1
BITMAP
06
06
06
06
06
FE
FE
06
06
06
06
ENDCHAR
STARTCHAR 2564
ENCODING 9572
SWIDTH 990 0
DWIDTH 11 0
BBX 11 6 0 -1
BITMAP
FFE0
FFE0
0400
0400
0400
0400
ENDCHAR
STARTCHAR 2565
ENCODING 9573
SWIDTH 990 0
DWIDTH 11 0
BBX 11 6 0 -1
BITMAP
FFE0
0C00
0C00
0C00
0C00
0C00
ENDCHAR
STARTCHAR 2566
ENCODING 9574
SWIDTH 990 0
DWIDTH 11 0
BBX 11 6 0 -1
BITMAP
FFE0
FFE0
0C00
0C00
0C00
0C00
ENDCHAR
STARTCHAR 2567
ENCODING 9575
SWIDTH 990 0
DWIDTH 11 0
BBX 11 6 0 4
BITMAP
0400
0400
0400
0400
FFE0
FFE0
ENDCHAR
STARTCHAR 2568
ENCODING 9576
SWIDTH 990 0
DWIDTH 11 0
BBX 11 6 0 3
BITMAP
0C00
0C00
0C00
0C00
0C00
FFE0
ENDCHAR
STARTCHAR 2569
ENCODING 9577
SWIDTH 990 0
DWIDTH 11 0
BBX 11 6 0 4
BITMAP
0C00
0C00
0C00
0C00
FFE0
FFE0
ENDCHAR
STARTCHAR 256A
ENCODING 9578
SWIDTH 990 0
DWIDTH 11 0
BBX 11 11 0 -1
BITMAP
0400
0400
0400
0400
0400
FFE0
FFE0
0400
0400
0400
0400
ENDCHAR
STARTCHAR 256B
ENCODING 9579
SWIDTH 990 0
DWIDTH 11 0
BBX 11 11 0 -1
BITMAP
0C00
0C00
0C00
0C00
0C00
FFE0
0C00
0C00
0C00
0C00
0C00
ENDCHAR
STARTCHAR 256C
ENCODING 9580
SWIDTH 1080 0
DWIDTH 12 0
BBX 11 10 0 0
BITMAP
0600
0600
0600
0600
FFE0
FFE0
0600
0600
0600
0600
ENDCHAR
STARTCHAR 256D
ENCODING 9581
SWIDTH 990 0
DWIDTH 11 0
BBX 6 6 5 -1
BITMAP
1C
30
40
80
80
80
ENDCHAR
STARTCHAR 256E
ENCODING 9582
SWIDTH 990 0
DWIDTH 11 0
BBX 6 6 0 -1
BITMAP
E0
10
08
08
04
04
ENDCHAR
STARTCHAR 256F
ENCODING 9583
SWIDTH 990 0
DWIDTH 11 0
BBX 6 6 0 3
BITMAP
04
04
04
08
10
E0
ENDCHAR
STARTCHAR 2570
ENCODING 9584
SWIDTH 990 0
DWIDTH 11 0
BBX 6 6 5 3
BITMAP
80
80
80
40
20
1C
ENDCHAR
STARTCHAR 2571
ENCODING 9585
SWIDTH 990 0
DWIDTH 11 0
BBX 9 9 1 -1
BITMAP
0080
0100
0200
0400
0800
1000
2000
4000
8000
ENDCHAR
STARTCHAR 2572
ENCODING 9586
SWIDTH 990 0
DWIDTH 11 0
BBX 10 10 1 0
BITMAP
8000
4000
2000
1000
0800
0400
0200
0100
0080
0040
ENDCHAR
STARTCHAR 2573
ENCODING 9587
SWIDTH 990 0
DWIDTH 11 0
BBX 10 10 0 -1
BITMAP
8000
40C0
2100
1200
0C00
0C00
1200
2100
4080
0040
ENDCHAR
STARTCHAR 2581
ENCODING 9601
SWIDTH 900 0
DWIDTH 10 0
BBX 10 1 0 -2
BITMAP
FFC0
ENDCHAR
STARTCHAR 2582
ENCODING 9602
SWIDTH 900 0
DWIDTH 10 0
BBX 10 3 0 -1
BITMAP
FFC0
FFC0
FFC0
ENDCHAR
STARTCHAR 2583
ENCODING 9603
SWIDTH 900 0
DWIDTH 10 0
BBX 10 4 0 -1
BITMAP
FFC0
FFC0
FFC0
FFC0
ENDCHAR
STARTCHAR 2584
ENCODING 9604
SWIDTH 900 0
DWIDTH 10 0
BBX 10 5 0 -1
BITMAP
FFC0
FFC0
FFC0
FFC0
FFC0
ENDCHAR
STARTCHAR 2585
ENCODING 9605
SWIDTH 900 0
DWIDTH 10 0
BBX 10 6 0 -1
BITMAP
FFC0
FFC0
FFC0
FFC0
FFC0
FFC0
ENDCHAR
STARTCHAR 2586
ENCODING 9606
SWIDTH 900 0
DWIDTH 10 0
BBX 10 8 0 -1
BITMAP
FFC0
FFC0
FFC0
FFC0
FFC0
FFC0
FFC0
FFC0
ENDCHAR
STARTCHAR 2587
ENCODING 9607
SWIDTH 900 0
DWIDTH 10 0
BBX 10 9 0 -1
BITMAP
FFC0
FFC0
FFC0
FFC0
FFC0
FFC0
FFC0
FFC0
FFC0
ENDCHAR
STARTCHAR 2588
ENCODING 9608
SWIDTH 900 0
DWIDTH 10 0
BBX 10 10 0 -1
BITMAP
FFC0
FFC0
FFC0
FFC0
FFC0
FFC0
FFC0
FFC0
FFC0
FFC0
ENDCHAR
STARTCHAR 2589
ENCODING 9609
SWIDTH 990 0
DWIDTH 11 0
BBX 9 10 0 -1
BITMAP
FF80
FF80
FF80
FF80
FF80
FF80
FF80
FF80
FF80
FF80
ENDCHAR
STARTCHAR 258A
ENCODING 9610
SWIDTH 990 0
DWIDTH 11 0
BBX 8 10 0 -1
BITMAP
FF
FF
FF
FF
FF
FF
FF
FF
FF
FF
ENDCHAR
STARTCHAR 258B
ENCODING 9611
SWIDTH 900 0
DWIDTH 10 0
BBX 6 10 0 -1
BITMAP
FC
FC
FC
FC
FC
FC
FC
FC
FC
FC
ENDCHAR
STARTCHAR 258C
ENCODING 9612
SWIDTH 900 0
DWIDTH 10 0
BBX 5 10 0 -1
BITMAP
F8
F8
F8
F8
F8
F8
F8
F8
F8
F8
ENDCHAR
STARTCHAR 258D
ENCODING 9613
SWIDTH 990 0
DWIDTH 11 0
BBX 4 10 0 -1
BITMAP
F0
F0
F0
F0
F0
F0
F0
F0
F0
F0
ENDCHAR
STARTCHAR 258E
ENCODING 9614
SWIDTH 990 0
DWIDTH 11 0
BBX 3 10 0 -1
BITMAP
E0
E0
E0
E0
E0
E0
E0
E0
E0
E0
ENDCHAR
STARTCHAR 258F
ENCODING 9615
SWIDTH 900 0
DWIDTH 10 0
BBX 1 10 0 -1
BITMAP
80
80
80
80
80
80
80
80
80
80
ENDCHAR
STARTCHAR 2593
ENCODING 9619
SWIDTH 990 0
DWIDTH 11 0
BBX 10 11 0 -2
BITMAP
FFC0
ACC0
D740
D540
AEC0
FFC0
FFC0
ACC0
D740
FFC0
FFC0
ENDCHAR
STARTCHAR 2594
ENCODING 9620
SWIDTH 900 0
DWIDTH 10 0
BBX 10 1 0 7
BITMAP
FFC0
ENDCHAR
STARTCHAR 2595
ENCODING 9621
SWIDTH 900 0
DWIDTH 10 0
BBX 1 10 9 -1
BITMAP
80
80
80
80
80
80
80
80
80
80
ENDCHAR
STARTCHAR 25A0
ENCODING 9632
SWIDTH 1080 0
DWIDTH 12 0
BBX 8 8 2 0
BITMAP
FF
FF
FF
FF
FF
FF
FF
FF
ENDCHAR
STARTCHAR 25A1
ENCODING 9633
SWIDTH 900 0
DWIDTH 10 0
BBX 8 8 1 0
BITMAP
FF
81
81
81
81
81
81
FF
ENDCHAR
STARTCHAR 25B2
ENCODING 9650
SWIDTH 990 0
DWIDTH 11 0
BBX 9 8 1 1
BITMAP
0800
1800
1C00
3E00
3E00
7F00
7F00
FF80
ENDCHAR
STARTCHAR 25B3
ENCODING 9651
SWIDTH 990 0
DWIDTH 11 0
BBX 9 9 1 0
BITMAP
0800
1800
1400
2400
2200
4200
8100
8100
FF80
ENDCHAR
STARTCHAR 25BC
ENCODING 9660
SWIDTH 990 0
DWIDTH 11 0
BBX 7 7 2 1
BITMAP
FE
FE
7C
78
38
30
10
ENDCHAR
STARTCHAR 25BD
ENCODING 9661
SWIDTH 990 0
DWIDTH 11 0
BBX 8 7 1 0
BITMAP
FF
81
42
42
24
14
18
ENDCHAR
STARTCHAR 25C6
ENCODING 9670
SWIDTH 990 0
DWIDTH 11 0
BBX 7 8 2 0
BITMAP
10
38
7C
FE
FE
7C
38
10
ENDCHAR
STARTCHAR 25C7
ENCODING 9671
SWIDTH 990 0
DWIDTH 11 0
BBX 8 8 1 0
BITMAP
18
24
42
81
81
42
24
18
ENDCHAR
STARTCHAR 25CB
ENCODING 9675
SWIDTH 900 0
DWIDTH 10 0
BBX 8 8 1 0
BITMAP
3C
42
81
81
81
81
42
3C
ENDCHAR
STARTCHAR 25CE
ENCODING 9678
SWIDTH 900 0
DWIDTH 10 0
BBX 8 8 1 0
BITMAP
3C
7E
E7
C3
C3
E7
7E
3C
ENDCHAR
STARTCHAR 25CF
ENCODING 9679
SWIDTH 900 0
DWIDTH 10 0
BBX 8 8 1 0
BITMAP
3C
7E
FF
FF
FF
FF
7E
3C
ENDCHAR
STARTCHAR 25E2
ENCODING 9698
SWIDTH 990 0
DWIDTH 11 0
BBX 7 7 3 2
BITMAP
02
06
0E
1E
3E
7E
FE
ENDCHAR
STARTCHAR 25E3
ENCODING 9699
SWIDTH 990 0
DWIDTH 11 0
BBX 7 7 2 2
BITMAP
80
C0
E0
F0
F8
FC
FE
ENDCHAR
STARTCHAR 25E4
ENCODING 9700
SWIDTH 990 0
DWIDTH 11 0
BBX 7 7 2 0
BITMAP
FE
FC
F8
F0
E0
C0
80
ENDCHAR
STARTCHAR 25E5
ENCODING 9701
SWIDTH 990 0
DWIDTH 11 0
BBX 7 7 3 0
BITMAP
FE
7E
3E
1E
0E
06
02
ENDCHAR
STARTCHAR 2605
ENCODING 9733
SWIDTH 990 0
DWIDTH 11 0
BBX 9 9 1 0
BITMAP
0800
0800
1800
FF80
3E00
3E00
3600
2200
4100
ENDCHAR
STARTCHAR 2606
ENCODING 9734
SWIDTH 990 0
DWIDTH 11 0
BBX 9 9 1 -1
BITMAP
0800
1800
1800
F780
C100
2200
2200
5E00
6000
ENDCHAR
STARTCHAR 2609
ENCODING 9737
SWIDTH 990 0
DWIDTH 11 0
BBX 7 8 2 -1
BITMAP
38
44
82
82
92
82
44
38
ENDCHAR
STARTCHAR 2640
ENCODING 9792
SWIDTH 990 0
DWIDTH 11 0
BBX 7 9 2 -1
BITMAP
38
44
44
28
10
FE
10
10
10
ENDCHAR
STARTCHAR 2642
ENCODING 9794
SWIDTH 990 0
DWIDTH 11 0
BBX 5 9 3 -1
BITMAP
20
20
70
20
20
D0
88
88
70
ENDCHAR
STARTCHAR 2E81
ENCODING 11905
SWIDTH 1080 0
DWIDTH 12 0
BBX 8 10 1 -1
BITMAP
01
3E
20
20
20
20
20
40
40
80
ENDCHAR
STARTCHAR 2E84
ENCODING 11908
SWIDTH 990 0
DWIDTH 11 0
BBX 9 9 1 -1
BITMAP
FE00
0200
0200
0200
0200
0200
0200
0180
0080
ENDCHAR
STARTCHAR 2E88
ENCODING 11912
SWIDTH 990 0
DWIDTH 11 0
BBX 8 6 1 2
BITMAP
20
20
3F
41
82
04
ENDCHAR
STARTCHAR 2E8B
ENCODING 11915
SWIDTH 990 0
DWIDTH 11 0
BBX 7 6 2 0
BITMAP
FC
84
84
8A
82
FE
ENDCHAR
STARTCHAR 2E8C
ENCODING 11916
SWIDTH 990 0
DWIDTH 11 0
BBX 5 5 3 4
BITMAP
20
20
A8
A8
20
ENDCHAR
STARTCHAR 2E97
ENCODING 11927
SWIDTH 990 0
DWIDTH 11 0
BBX 8 6 1 -1
BITMAP
10
10
50
95
90
70
ENDCHAR
STARTCHAR 2EA7
ENCODING 11943
SWIDTH 990 0
DWIDTH 11 0
BBX 7 5 2 3
BITMAP
50
50
7E
90
FE
ENDCHAR
STARTCHAR 2EAA
ENCODING 11946
SWIDTH 990 0
DWIDTH 11 0
BBX 6 9 0 -1
BITMAP
7C
08
10
50
5C
50
50
58
A0
ENDCHAR
STARTCHAR 2EAE
ENCODING 11950
SWIDTH 900 0
DWIDTH 10 0
BBX 8 5 1 3
BITMAP
44
44
77
CA
22
ENDCHAR
STARTCHAR 2EB3
ENCODING 11955
SWIDTH 990 0
DWIDTH 11 0
BBX 9 4 1 3
BITMAP
7F80
9000
2600
4100
ENDCHAR
STARTCHAR 2EB6
ENCODING 11958
SWIDTH 990 0
DWIDTH 11 0
BBX 7 9 2 -1
BITMAP
04
28
FE
10
7C
FE
20
40
80
ENDCHAR
STARTCHAR 2EB7
ENCODING 11959
SWIDTH 990 0
DWIDTH 11 0
BBX 9 6 1 2
BITMAP
1400
1400
7F00
3E00
0800
FF80
ENDCHAR
STARTCHAR 2EBB
ENCODING 11963
SWIDTH 990 0
DWIDTH 11 0
BBX 7 7 2 1
BITMAP
10
10
7C
FE
7C
10
FE
ENDCHAR
STARTCHAR 2ECA
ENCODING 11978
SWIDTH 990 0
DWIDTH 11 0
BBX 5 10 0 -1
BITMAP
78
48
48
78
10
58
50
50
58
A0
ENDCHAR
STARTCHAR 2FF0
ENCODING 12272
SWIDTH 990 0
DWIDTH 11 0
BBX 9 9 1 -1
BITMAP
CE80
8880
8880
8880
8880
8880
0000
8880
CE80
ENDCHAR
STARTCHAR 2FF1
ENCODING 12273
SWIDTH 990 0
DWIDTH 11 0
BBX 9 9 1 -1
BITMAP
CE80
0000
0080
8080
8080
8080
0000
0000
CE80
ENDCHAR
STARTCHAR 2FF2
ENCODING 12274
SWIDTH 990 0
DWIDTH 11 0
BBX 9 10 1 -1
BITMAP
CE80
0000
0000
8400
8480
8480
8480
0000
0000
CE80
ENDCHAR
STARTCHAR 2FF3
ENCODING 12275
SWIDTH 990 0
DWIDTH 11 0
BBX 9 10 1 -1
BITMAP
CE80
0000
0000
3900
8080
8080
B980
0000
0000
CE80
ENDCHAR
STARTCHAR 2FF4
ENCODING 12276
SWIDTH 990 0
DWIDTH 11 0
BBX 9 9 1 0
BITMAP
EE80
0000
3200
2200
A280
A280
A280
3200
EE80
ENDCHAR
STARTCHAR 2FF5
ENCODING 12277
SWIDTH 990 0
DWIDTH 11 0
BBX 9 9 1 -1
BITMAP
CC80
8080
BE80
A280
2200
2200
A280
A280
CC80
ENDCHAR
STARTCHAR 2FF6
ENCODING 12278
SWIDTH 990 0
DWIDTH 11 0
BBX 9 10 1 -1
BITMAP
CE80
0000
0000
8000
8080
A080
AC80
0000
0000
CE80
ENDCHAR
STARTCHAR 2FF7
ENCODING 12279
SWIDTH 990 0
DWIDTH 11 0
BBX 9 10 1 -1
BITMAP
CE80
0000
0000
BF80
8080
8080
BF80
0000
0000
CE80
ENDCHAR
STARTCHAR 2FF8
ENCODING 12280
SWIDTH 990 0
DWIDTH 11 0
BBX 9 9 1 -1
BITMAP
CE80
8080
BF80
A080
2000
2000
A080
A080
CE80
ENDCHAR
STARTCHAR 2FF9
ENCODING 12281
SWIDTH 990 0
DWIDTH 11 0
BBX 9 9 1 -1
BITMAP
CC80
8080
BE80
8280
0200
0200
8280
8280
CC80
ENDCHAR
STARTCHAR 2FFA
ENCODING 12282
SWIDTH 990 0
DWIDTH 11 0
BBX 9 10 1 -1
BITMAP
CE80
0000
2000
8000
8080
8080
BF80
0000
0000
CE80
ENDCHAR
STARTCHAR 2FFB
ENCODING 12283
SWIDTH 900 0
DWIDTH 10 0
BBX 8 8 1 0
BITMAP
E2
BF
20
A2
A2
A2
20
23
ENDCHAR
STARTCHAR 3000
ENCODING 12288
SWIDTH 990 0
DWIDTH 11 0
BBX 0 0 0 0
BITMAP
ENDCHAR
STARTCHAR 3001
ENCODING 12289
SWIDTH 990 0
DWIDTH 11 0
BBX 2 2 2 1
BITMAP
80
40
ENDCHAR
STARTCHAR 3002
ENCODING 12290
SWIDTH 900 0
DWIDTH 10 0
BBX 2 3 1 0
BITMAP
C0
C0
C0
ENDCHAR
STARTCHAR 3003
ENCODING 12291
SWIDTH 990 0
DWIDTH 11 0
BBX 4 4 4 1
BITMAP
50
60
A0
A0
ENDCHAR
STARTCHAR 3005
ENCODING 12293
SWIDTH 990 0
DWIDTH 11 0
BBX 5 8 3 0
BITMAP
40
80
F8
10
10
60
20
10
ENDCHAR
STARTCHAR 3006
ENCODING 12294
SWIDTH 990 0
DWIDTH 11 0
BBX 6 8 2 0
BITMAP
04
04
78
58
98
A0
C0
80
ENDCHAR
STARTCHAR 3007
ENCODING 12295
SWIDTH 990 0
DWIDTH 11 0
BBX 9 9 1 -1
BITMAP
3E00
6300
4100
8080
8080
8080
8180
6300
3E00
ENDCHAR
STARTCHAR 3008
ENCODING 12296
SWIDTH 990 0
DWIDTH 11 0
BBX 2 7 7 1
BITMAP
40
80
80
80
80
40
40
ENDCHAR
STARTCHAR 3009
ENCODING 12297
SWIDTH 990 0
DWIDTH 11 0
BBX 2 7 1 0
BITMAP
80
80
40
40
40
40
40
ENDCHAR
STARTCHAR 300A
ENCODING 12298
SWIDTH 990 0
DWIDTH 11 0
BBX 4 8 6 0
BITMAP
10
60
A0
C0
C0
C0
60
60
ENDCHAR
STARTCHAR 300B
ENCODING 12299
SWIDTH 990 0
DWIDTH 11 0
BBX 4 8 1 0
BITMAP
80
A0
60
50
50
60
A0
C0
ENDCHAR
STARTCHAR 300C
ENCODING 12300
SWIDTH 900 0
DWIDTH 10 0
BBX 3 10 6 -1
BITMAP
E0
80
80
80
80
80
80
80
80
80
ENDCHAR
STARTCHAR 300D
ENCODING 12301
SWIDTH 1080 0
DWIDTH 12 0
BBX 3 10 2 -1
BITMAP
20
20
20
20
20
20
20
20
20
E0
ENDCHAR
STARTCHAR 300E
ENCODING 12302
SWIDTH 990 0
DWIDTH 11 0
BBX 3 10 6 -1
BITMAP
E0
E0
C0
C0
C0
C0
C0
C0
C0
C0
ENDCHAR
STARTCHAR 300F
ENCODING 12303
SWIDTH 1080 0
DWIDTH 12 0
BBX 3 10 2 -1
BITMAP
60
60
60
60
60
60
60
60
E0
E0
ENDCHAR
STARTCHAR 3010
ENCODING 12304
SWIDTH 990 0
DWIDTH 11 0
BBX 4 9 5 -1
BITMAP
F0
E0
C0
C0
C0
C0
C0
E0
F0
ENDCHAR
STARTCHAR 3011
ENCODING 12305
SWIDTH 990 0
DWIDTH 11 0
BBX 4 9 2 -1
BITMAP
F0
70
30
30
30
30
30
70
F0
ENDCHAR
STARTCHAR 3012
ENCODING 12306
SWIDTH 900 0
DWIDTH 10 0
BBX 8 8 1 0
BITMAP
FF
00
FF
08
08
08
08
08
ENDCHAR
STARTCHAR 3013
ENCODING 12307
SWIDTH 990 0
DWIDTH 11 0
BBX 9 8 1 0
BITMAP
FF80
FF80
FF80
0000
0000
FF80
FF80
FF80
ENDCHAR
STARTCHAR 3014
ENCODING 12308
SWIDTH 990 0
DWIDTH 11 0
BBX 2 8 7 0
BITMAP
40
80
80
80
80
80
80
40
ENDCHAR
STARTCHAR 3015
ENCODING 12309
SWIDTH 990 0
DWIDTH 11 0
BBX 2 8 2 0
BITMAP
80
40
40
40
40
40
40
80
ENDCHAR
STARTCHAR 3016
ENCODING 12310
SWIDTH 990 0
DWIDTH 11 0
BBX 4 10 5 -1
BITMAP
F0
A0
A0
C0
C0
C0
C0
E0
A0
F0
ENDCHAR
STARTCHAR 3017
ENCODING 12311
SWIDTH 990 0
DWIDTH 11 0
BBX 4 9 2 -1
BITMAP
F0
90
50
30
30
30
50
90
F0
ENDCHAR
STARTCHAR 301D
ENCODING 12317
SWIDTH 990 0
DWIDTH 11 0
BBX 3 3 6 5
BITMAP
A0
A0
40
ENDCHAR
STARTCHAR 301E
ENCODING 12318
SWIDTH 990 0
DWIDTH 11 0
BBX 3 2 1 6
BITMAP
60
A0
ENDCHAR
STARTCHAR 3021
ENCODING 12321
SWIDTH 990 0
DWIDTH 11 0
BBX 1 9 5 0
BITMAP
80
80
80
80
80
80
80
80
80
ENDCHAR
STARTCHAR 3022
ENCODING 12322
SWIDTH 900 0
DWIDTH 10 0
BBX 4 9 3 0
BITMAP
10
90
90
90
90
90
90
90
10
ENDCHAR
STARTCHAR 3023
ENCODING 12323
SWIDTH 990 0
DWIDTH 11 0
BBX 7 10 2 -1
BITMAP
82
82
92
92
92
92
92
92
92
92
ENDCHAR
STARTCHAR 3024
ENCODING 12324
SWIDTH 990 0
DWIDTH 11 0
BBX 5 7 3 1
BITMAP
08
08
90
70
30
48
80
ENDCHAR
STARTCHAR 3025
ENCODING 12325
SWIDTH 990 0
DWIDTH 11 0
BBX 6 8 2 0
BITMAP
44
F8
28
44
44
44
44
38
ENDCHAR
STARTCHAR 3026
ENCODING 12326
SWIDTH 990 0
DWIDTH 11 0
BBX 9 3 1 3
BITMAP
0800
0800
FF80
ENDCHAR
STARTCHAR 3027
ENCODING 12327
SWIDTH 990 0
DWIDTH 11 0
BBX 9 7 1 0
BITMAP
0800
0800
0800
FF80
0000
0000
FF80
ENDCHAR
STARTCHAR 3028
ENCODING 12328
SWIDTH 1080 0
DWIDTH 12 0
BBX 10 7 1 1
BITMAP
0800
0800
FFC0
0000
7F80
0000
FF80
ENDCHAR
STARTCHAR 3029
ENCODING 12329
SWIDTH 990 0
DWIDTH 11 0
BBX 8 10 2 -2
BITMAP
40
40
7F
84
64
18
08
14
24
C0
ENDCHAR
STARTCHAR 303E
ENCODING 12350
SWIDTH 990 0
DWIDTH 11 0
BBX 9 10 1 -1
BITMAP
CE80
0000
0000
BC80
8080
BC80
B480
0000
0000
CE80
ENDCHAR
STARTCHAR 3041
ENCODING 12353
SWIDTH 990 0
DWIDTH 11 0
BBX 6 7 3 0
BITMAP
30
60
38
24
E4
A8
40
ENDCHAR
STARTCHAR 3042
ENCODING 12354
SWIDTH 990 0
DWIDTH 11 0
BBX 7 10 2 -2
BITMAP
20
28
70
3C
32
F2
A2
24
C0
08
ENDCHAR
STARTCHAR 3043
ENCODING 12355
SWIDTH 990 0
DWIDTH 11 0
BBX 5 4 3 1
BITMAP
88
88
80
80
ENDCHAR
STARTCHAR 3044
ENCODING 12356
SWIDTH 990 0
DWIDTH 11 0
BBX 8 5 1 2
BITMAP
82
81
81
A3
40
ENDCHAR
STARTCHAR 3045
ENCODING 12357
SWIDTH 990 0
DWIDTH 11 0
BBX 4 7 3 -1
BITMAP
20
00
F0
10
10
00
20
ENDCHAR
STARTCHAR 3046
ENCODING 12358
SWIDTH 990 0
DWIDTH 11 0
BBX 4 8 4 0
BITMAP
60
00
F0
10
10
10
20
40
ENDCHAR
STARTCHAR 3047
ENCODING 12359
SWIDTH 1080 0
DWIDTH 12 0
BBX 5 6 3 -1
BITMAP
10
30
50
20
D0
98
ENDCHAR
STARTCHAR 3048
ENCODING 12360
SWIDTH 990 0
DWIDTH 11 0
BBX 7 8 2 1
BITMAP
38
10
38
50
20
50
90
8E
ENDCHAR
STARTCHAR 3049
ENCODING 12361
SWIDTH 990 0
DWIDTH 11 0
BBX 5 7 3 -2
BITMAP
40
78
40
78
C8
68
10
ENDCHAR
STARTCHAR 304A
ENCODING 12362
SWIDTH 990 0
DWIDTH 11 0
BBX 7 8 2 0
BITMAP
40
46
64
D8
64
C4
C4
58
ENDCHAR
STARTCHAR 304B
ENCODING 12363
SWIDTH 990 0
DWIDTH 11 0
BBX 9 7 1 0
BITMAP
1000
2000
FD00
4480
4480
8800
9800
ENDCHAR
STARTCHAR 304C
ENCODING 12364
SWIDTH 900 0
DWIDTH 10 0
BBX 8 9 1 0
BITMAP
03
27
20
50
EB
49
91
90
20
ENDCHAR
STARTCHAR 304D
ENCODING 12365
SWIDTH 990 0
DWIDTH 11 0
BBX 6 8 2 0
BITMAP
20
28
74
08
38
7C
80
78
ENDCHAR
STARTCHAR 304E
ENCODING 12366
SWIDTH 1080 0
DWIDTH 12 0
BBX 8 9 2 -1
BITMAP
01
48
30
64
18
74
8C
80
78
ENDCHAR
STARTCHAR 304F
ENCODING 12367
SWIDTH 990 0
DWIDTH 11 0
BBX 4 9 3 -1
BITMAP
10
20
40
80
80
40
20
10
10
ENDCHAR
STARTCHAR 3050
ENCODING 12368
SWIDTH 990 0
DWIDTH 11 0
BBX 7 9 2 0
BITMAP
10
22
24
40
80
80
60
10
10
ENDCHAR
STARTCHAR 3051
ENCODING 12369
SWIDTH 900 0
DWIDTH 10 0
BBX 7 8 1 1
BITMAP
84
84
0E
04
44
84
88
10
ENDCHAR
STARTCHAR 3052
ENCODING 12370
SWIDTH 990 0
DWIDTH 11 0
BBX 9 9 1 0
BITMAP
0480
4400
8700
8C00
8400
8400
C800
4800
1000
ENDCHAR
STARTCHAR 3053
ENCODING 12371
SWIDTH 990 0
DWIDTH 11 0
BBX 6 7 2 1
BITMAP
38
00
00
00
00
80
7C
ENDCHAR
STARTCHAR 3054
ENCODING 12372
SWIDTH 990 0
DWIDTH 11 0
BBX 8 8 2 1
BITMAP
01
7A
00
00
00
80
80
78
ENDCHAR
STARTCHAR 3055
ENCODING 12373
SWIDTH 990 0
DWIDTH 11 0
BBX 6 8 2 0
BITMAP
20
14
78
08
3C
C4
C0
38
ENDCHAR
STARTCHAR 3056
ENCODING 12374
SWIDTH 990 0
DWIDTH 11 0
BBX 7 8 2 1
BITMAP
42
2C
70
10
78
8C
80
70
ENDCHAR
STARTCHAR 3057
ENCODING 12375
SWIDTH 990 0
DWIDTH 11 0
BBX 6 8 3 0
BITMAP
80
80
80
80
80
84
88
70
ENDCHAR
STARTCHAR 3058
ENCODING 12376
SWIDTH 900 0
DWIDTH 10 0
BBX 5 7 2 1
BITMAP
B8
90
80
80
80
80
58
ENDCHAR
STARTCHAR 3059
ENCODING 12377
SWIDTH 900 0
DWIDTH 10 0
BBX 8 8 1 -1
BITMAP
08
0F
F8
08
38
28
18
10
ENDCHAR
STARTCHAR 305A
ENCODING 12378
SWIDTH 990 0
DWIDTH 11 0
BBX 7 9 2 0
BITMAP
12
10
3E
D0
70
50
30
20
40
ENDCHAR
STARTCHAR 305B
ENCODING 12379
SWIDTH 990 0
DWIDTH 11 0
BBX 7 7 1 0
BITMAP
04
24
FE
24
20
20
1E
ENDCHAR
STARTCHAR 305C
ENCODING 12380
SWIDTH 990 0
DWIDTH 11 0
BBX 6 7 2 1
BITMAP
48
48
7C
C8
48
40
3C
ENDCHAR
STARTCHAR 305D
ENCODING 12381
SWIDTH 990 0
DWIDTH 11 0
BBX 7 8 2 0
BITMAP
0C
38
10
2E
F8
10
10
0C
ENDCHAR
STARTCHAR 305E
ENCODING 12382
SWIDTH 900 0
DWIDTH 10 0
BBX 8 9 1 -1
BITMAP
01
1A
30
20
DC
20
20
20
18
ENDCHAR
STARTCHAR 305F
ENCODING 12383
SWIDTH 990 0
DWIDTH 11 0
BBX 7 7 2 1
BITMAP
20
F2
46
40
40
90
8E
ENDCHAR
STARTCHAR 3060
ENCODING 12384
SWIDTH 900 0
DWIDTH 10 0
BBX 8 9 1 0
BITMAP
02
23
30
E6
44
40
40
90
8E
ENDCHAR
STARTCHAR 3061
ENCODING 12385
SWIDTH 990 0
DWIDTH 11 0
BBX 7 8 2 1
BITMAP
20
28
F0
40
5C
62
02
0C
ENDCHAR
STARTCHAR 3062
ENCODING 12386
SWIDTH 990 0
DWIDTH 11 0
BBX 8 8 1 1
BITMAP
20
21
F0
40
7E
42
02
0C
ENDCHAR
STARTCHAR 3063
ENCODING 12387
SWIDTH 990 0
DWIDTH 11 0
BBX 6 4 2 1
BITMAP
FC
04
04
18
ENDCHAR
STARTCHAR 3064
ENCODING 12388
SWIDTH 990 0
DWIDTH 11 0
BBX 8 6 1 1
BITMAP
1E
E1
01
01
02
0C
ENDCHAR
STARTCHAR 3065
ENCODING 12389
SWIDTH 990 0
DWIDTH 11 0
BBX 9 8 1 1
BITMAP
0100
0080
1E00
E100
0100
0100
0200
0C00
ENDCHAR
STARTCHAR 3066
ENCODING 12390
SWIDTH 990 0
DWIDTH 11 0
BBX 6 7 2 0
BITMAP
3C
D0
20
20
20
20
18
ENDCHAR
STARTCHAR 3067
ENCODING 12391
SWIDTH 990 0
DWIDTH 11 0
BBX 7 7 3 0
BITMAP
F8
24
4A
40
40
40
38
ENDCHAR
STARTCHAR 3068
ENCODING 12392
SWIDTH 900 0
DWIDTH 10 0
BBX 5 7 2 1
BITMAP
40
48
30
40
80
80
78
ENDCHAR
STARTCHAR 3069
ENCODING 12393
SWIDTH 990 0
DWIDTH 11 0
BBX 8 8 2 1
BITMAP
01
42
44
38
40
80
80
7C
ENDCHAR
STARTCHAR 306A
ENCODING 12394
SWIDTH 1080 0
DWIDTH 12 0
BBX 8 8 2 -1
BITMAP
10
7A
43
4C
88
18
6E
32
ENDCHAR
STARTCHAR 306B
ENCODING 12395
SWIDTH 990 0
DWIDTH 11 0
BBX 8 7 1 -1
BITMAP
06
88
80
80
80
A0
1F
ENDCHAR
STARTCHAR 306C
ENCODING 12396
SWIDTH 990 0
DWIDTH 11 0
BBX 8 6 1 1
BITMAP
10
5E
71
E1
AE
D5
ENDCHAR
STARTCHAR 306D
ENCODING 12397
SWIDTH 990 0
DWIDTH 11 0
BBX 8 9 2 0
BITMAP
40
40
4C
F2
42
C2
C2
DF
5C
ENDCHAR
STARTCHAR 306E
ENCODING 12398
SWIDTH 990 0
DWIDTH 11 0
BBX 8 8 1 0
BITMAP
1C
72
51
91
91
91
A2
44
ENDCHAR
STARTCHAR 306F
ENCODING 12399
SWIDTH 900 0
DWIDTH 10 0
BBX 7 9 1 -1
BITMAP
04
44
86
8C
84
84
BC
A4
18
ENDCHAR
STARTCHAR 3070
ENCODING 12400
SWIDTH 990 0
DWIDTH 11 0
BBX 9 9 0 -1
BITMAP
0580
4480
4300
8C00
8400
8400
C400
1E00
0800
ENDCHAR
STARTCHAR 3071
ENCODING 12401
SWIDTH 990 0
DWIDTH 11 0
BBX 9 8 1 1
BITMAP
0380
0580
8400
8C00
8400
9C00
A600
9800
ENDCHAR
STARTCHAR 3072
ENCODING 12402
SWIDTH 1080 0
DWIDTH 12 0
BBX 8 8 2 0
BITMAP
20
E4
42
87
84
84
88
70
ENDCHAR
STARTCHAR 3073
ENCODING 12403
SWIDTH 900 0
DWIDTH 10 0
BBX 8 9 1 1
BITMAP
03
60
24
46
84
84
88
88
70
ENDCHAR
STARTCHAR 3074
ENCODING 12404
SWIDTH 900 0
DWIDTH 10 0
BBX 8 8 1 1
BITMAP
23
E4
46
86
85
8C
88
70
ENDCHAR
STARTCHAR 3075
ENCODING 12405
SWIDTH 990 0
DWIDTH 11 0
BBX 8 6 2 2
BITMAP
08
30
20
12
89
98
ENDCHAR
STARTCHAR 3076
ENCODING 12406
SWIDTH 900 0
DWIDTH 10 0
BBX 8 6 1 1
BITMAP
0B
30
10
10
48
98
ENDCHAR
STARTCHAR 3077
ENCODING 12407
SWIDTH 1080 0
DWIDTH 12 0
BBX 8 8 2 0
BITMAP
13
0B
30
20
14
4A
88
10
ENDCHAR
STARTCHAR 3078
ENCODING 12408
SWIDTH 990 0
DWIDTH 11 0
BBX 8 5 1 2
BITMAP
30
50
88
04
03
ENDCHAR
STARTCHAR 3079
ENCODING 12409
SWIDTH 990 0
DWIDTH 11 0
BBX 7 5 2 2
BITMAP
04
70
98
04
02
ENDCHAR
STARTCHAR 307A
ENCODING 12410
SWIDTH 990 0
DWIDTH 11 0
BBX 8 6 1 1
BITMAP
07
72
48
84
04
03
ENDCHAR
STARTCHAR 307B
ENCODING 12411
SWIDTH 900 0
DWIDTH 10 0
BBX 7 8 1 -1
BITMAP
4C
44
4E
84
84
44
7E
18
ENDCHAR
STARTCHAR 307C
ENCODING 12412
SWIDTH 990 0
DWIDTH 11 0
BBX 8 8 1 0
BITMAP
9E
85
84
8C
84
84
FE
38
ENDCHAR
STARTCHAR 307D
ENCODING 12413
SWIDTH 990 0
DWIDTH 11 0
BBX 9 8 1 0
BITMAP
9F80
8680
8500
8C00
8400
8400
FE00
3800
ENDCHAR
STARTCHAR 307E
ENCODING 12414
SWIDTH 900 0
DWIDTH 10 0
BBX 5 8 2 0
BITMAP
10
18
30
18
30
10
F8
60
ENDCHAR
STARTCHAR 307F
ENCODING 12415
SWIDTH 990 0
DWIDTH 11 0
BBX 8 7 1 -1
BITMAP
38
08
12
32
EE
C5
C8
ENDCHAR
STARTCHAR 3080
ENCODING 12416
SWIDTH 990 0
DWIDTH 11 0
BBX 8 8 0 0
BITMAP
20
3A
21
E0
A0
60
41
3E
ENDCHAR
STARTCHAR 3081
ENCODING 12417
SWIDTH 900 0
DWIDTH 10 0
BBX 7 8 1 -1
BITMAP
48
5C
2A
72
92
A2
C4
08
ENDCHAR
STARTCHAR 3082
ENCODING 12418
SWIDTH 900 0
DWIDTH 10 0
BBX 5 8 3 0
BITMAP
40
40
E0
80
80
C8
90
70
ENDCHAR
STARTCHAR 3083
ENCODING 12419
SWIDTH 990 0
DWIDTH 11 0
BBX 7 6 2 -1
BITMAP
40
4C
32
EC
20
10
ENDCHAR
STARTCHAR 3084
ENCODING 12420
SWIDTH 990 0
DWIDTH 11 0
BBX 8 8 2 -1
BITMAP
10
58
5F
61
AA
24
10
10
ENDCHAR
STARTCHAR 3085
ENCODING 12421
SWIDTH 900 0
DWIDTH 10 0
BBX 6 6 2 -1
BITMAP
38
D4
D4
94
28
10
ENDCHAR
STARTCHAR 3086
ENCODING 12422
SWIDTH 990 0
DWIDTH 11 0
BBX 8 8 2 1
BITMAP
10
1C
AB
C9
89
B2
0C
30
ENDCHAR
STARTCHAR 3087
ENCODING 12423
SWIDTH 900 0
DWIDTH 10 0
BBX 4 6 3 0
BITMAP
20
30
20
20
70
C0
ENDCHAR
STARTCHAR 3088
ENCODING 12424
SWIDTH 990 0
DWIDTH 11 0
BBX 6 8 2 0
BITMAP
10
10
14
18
10
30
DC
60
ENDCHAR
STARTCHAR 3089
ENCODING 12425
SWIDTH 990 0
DWIDTH 11 0
BBX 6 7 3 0
BITMAP
10
E0
B8
C4
84
0C
70
ENDCHAR
STARTCHAR 308A
ENCODING 12426
SWIDTH 990 0
DWIDTH 11 0
BBX 5 7 3 0
BITMAP
F0
C8
88
88
08
10
20
ENDCHAR
STARTCHAR 308B
ENCODING 12427
SWIDTH 990 0
DWIDTH 11 0
BBX 7 8 2 -1
BITMAP
08
38
10
3C
42
92
6A
3C
ENDCHAR
STARTCHAR 308C
ENCODING 12428
SWIDTH 990 0
DWIDTH 11 0
BBX 9 8 1 0
BITMAP
2000
2400
3A00
6400
2400
6400
E480
2300
ENDCHAR
STARTCHAR 308D
ENCODING 12429
SWIDTH 990 0
DWIDTH 11 0
BBX 7 9 2 -1
BITMAP
08
78
10
3C
42
82
02
04
18
ENDCHAR
STARTCHAR 308E
ENCODING 12430
SWIDTH 990 0
DWIDTH 11 0
BBX 6 5 3 0
BITMAP
40
F8
44
C4
48
ENDCHAR
STARTCHAR 308F
ENCODING 12431
SWIDTH 900 0
DWIDTH 10 0
BBX 8 8 1 1
BITMAP
20
20
2E
F1
21
61
A2
64
ENDCHAR
STARTCHAR 3090
ENCODING 12432
SWIDTH 990 0
DWIDTH 11 0
BBX 8 8 1 -1
BITMAP
04
18
0C
33
51
A1
BD
4E
ENDCHAR
STARTCHAR 3091
ENCODING 12433
SWIDTH 990 0
DWIDTH 11 0
BBX 7 7 2 0
BITMAP
18
1C
22
5C
14
28
DA
ENDCHAR
STARTCHAR 3092
ENCODING 12434
SWIDTH 990 0
DWIDTH 11 0
BBX 7 8 2 0
BITMAP
20
78
40
76
98
70
80
78
ENDCHAR
STARTCHAR 3093
ENCODING 12435
SWIDTH 990 0
DWIDTH 11 0
BBX 7 8 1 -1
BITMAP
10
10
20
58
68
48
8A
84
ENDCHAR
STARTCHAR 309B
ENCODING 12443
SWIDTH 1080 0
DWIDTH 12 0
BBX 4 3 4 6
BITMAP
60
90
40
ENDCHAR
STARTCHAR 309C
ENCODING 12444
SWIDTH 990 0
DWIDTH 11 0
BBX 3 3 7 5
BITMAP
E0
20
40
ENDCHAR
STARTCHAR 309D
ENCODING 12445
SWIDTH 990 0
DWIDTH 11 0
BBX 4 5 4 2
BITMAP
80
40
20
10
70
ENDCHAR
STARTCHAR 309E
ENCODING 12446
SWIDTH 990 0
DWIDTH 11 0
BBX 6 7 4 1
BITMAP
08
14
80
40
20
10
70
ENDCHAR
STARTCHAR 30A1
ENCODING 12449
SWIDTH 990 0
DWIDTH 11 0
BBX 5 6 3 -1
BITMAP
18
F0
20
40
40
80
ENDCHAR
STARTCHAR 30A2
ENCODING 12450
SWIDTH 990 0
DWIDTH 11 0
BBX 7 7 2 0
BITMAP
06
FC
18
10
20
20
40
ENDCHAR
STARTCHAR 30A3
ENCODING 12451
SWIDTH 990 0
DWIDTH 11 0
BBX 5 6 2 1
BITMAP
08
10
70
90
10
10
ENDCHAR
STARTCHAR 30A4
ENCODING 12452
SWIDTH 990 0
DWIDTH 11 0
BBX 6 9 2 -1
BITMAP
04
08
10
30
50
90
10
10
10
ENDCHAR
STARTCHAR 30A5
ENCODING 12453
SWIDTH 990 0
DWIDTH 11 0
BBX 5 6 3 -1
BITMAP
20
38
C8
90
10
20
ENDCHAR
STARTCHAR 30A6
ENCODING 12454
SWIDTH 990 0
DWIDTH 11 0
BBX 7 8 2 0
BITMAP
10
1E
E4
84
88
08
10
20
ENDCHAR
STARTCHAR 30A7
ENCODING 12455
SWIDTH 990 0
DWIDTH 11 0
BBX 5 5 3 0
BITMAP
30
60
20
38
C0
ENDCHAR
STARTCHAR 30A8
ENCODING 12456
SWIDTH 900 0
DWIDTH 10 0
BBX 7 6 1 1
BITMAP
04
78
10
10
10
EE
ENDCHAR
STARTCHAR 30A9
ENCODING 12457
SWIDTH 1080 0
DWIDTH 12 0
BBX 4 6 4 -1
BITMAP
20
20
F0
60
A0
20
ENDCHAR
STARTCHAR 30AA
ENCODING 12458
SWIDTH 990 0
DWIDTH 11 0
BBX 6 8 3 1
BITMAP
10
14
F8
30
50
90
10
10
ENDCHAR
STARTCHAR 30AB
ENCODING 12459
SWIDTH 990 0
DWIDTH 11 0
BBX 7 8 2 0
BITMAP
10
10
2E
F6
24
24
44
88
ENDCHAR
STARTCHAR 30AC
ENCODING 12460
SWIDTH 1080 0
DWIDTH 12 0
BBX 8 8 2 -1
BITMAP
01
10
2E
76
24
44
44
88
ENDCHAR
STARTCHAR 30AD
ENCODING 12461
SWIDTH 1080 0
DWIDTH 12 0
BBX 7 8 2 0
BITMAP
10
1E
30
16
E8
08
08
08
ENDCHAR
STARTCHAR 30AE
ENCODING 12462
SWIDTH 990 0
DWIDTH 11 0
BBX 8 9 2 -1
BITMAP
11
12
1C
30
16
E8
08
08
08
ENDCHAR
STARTCHAR 30AF
ENCODING 12463
SWIDTH 900 0
DWIDTH 10 0
BBX 5 9 3 -1
BITMAP
20
40
78
88
10
20
20
40
80
ENDCHAR
STARTCHAR 30B0
ENCODING 12464
SWIDTH 900 0
DWIDTH 10 0
BBX 6 8 2 0
BITMAP
24
78
88
10
20
20
40
80
ENDCHAR
STARTCHAR 30B1
ENCODING 12465
SWIDTH 990 0
DWIDTH 11 0
BBX 7 7 2 0
BITMAP
20
42
7C
90
10
20
20
ENDCHAR
STARTCHAR 30B2
ENCODING 12466
SWIDTH 990 0
DWIDTH 11 0
BBX 8 6 1 0
BITMAP
21
40
BC
08
10
20
ENDCHAR
STARTCHAR 30B3
ENCODING 12467
SWIDTH 990 0
DWIDTH 11 0
BBX 6 6 2 1
BITMAP
0C
74
08
08
08
F8
ENDCHAR
STARTCHAR 30B4
ENCODING 12468
SWIDTH 990 0
DWIDTH 11 0
BBX 8 7 2 2
BITMAP
01
02
7C
04
08
08
F8
ENDCHAR
STARTCHAR 30B5
ENCODING 12469
SWIDTH 990 0
DWIDTH 11 0
BBX 7 6 2 1
BITMAP
48
4A
FC
48
10
10
ENDCHAR
STARTCHAR 30B6
ENCODING 12470
SWIDTH 990 0
DWIDTH 11 0
BBX 9 8 1 0
BITMAP
0080
2500
2400
FE00
2400
2400
0800
1000
ENDCHAR
STARTCHAR 30B7
ENCODING 12471
SWIDTH 990 0
DWIDTH 11 0
BBX 7 7 2 0
BITMAP
40
20
82
44
08
10
60
ENDCHAR
STARTCHAR 30B8
ENCODING 12472
SWIDTH 990 0
DWIDTH 11 0
BBX 6 8 3 1
BITMAP
04
48
00
00
CC
10
20
C0
ENDCHAR
STARTCHAR 30B9
ENCODING 12473
SWIDTH 990 0
DWIDTH 11 0
BBX 7 7 2 -1
BITMAP
0C
78
08
10
2C
42
82
ENDCHAR
STARTCHAR 30BA
ENCODING 12474
SWIDTH 990 0
DWIDTH 11 0
BBX 8 8 2 0
BITMAP
01
1A
E8
10
10
28
44
84
ENDCHAR
STARTCHAR 30BB
ENCODING 12475
SWIDTH 990 0
DWIDTH 11 0
BBX 7 7 2 0
BITMAP
20
26
3C
E0
20
20
1E
ENDCHAR
STARTCHAR 30BC
ENCODING 12476
SWIDTH 990 0
DWIDTH 11 0
BBX 8 8 1 1
BITMAP
03
20
22
3E
E4
28
20
1E
ENDCHAR
STARTCHAR 30BD
ENCODING 12477
SWIDTH 900 0
DWIDTH 10 0
BBX 6 7 2 0
BITMAP
84
44
48
08
10
20
40
ENDCHAR
STARTCHAR 30BE
ENCODING 12478
SWIDTH 990 0
DWIDTH 11 0
BBX 8 9 2 0
BITMAP
01
04
84
48
08
10
10
20
C0
ENDCHAR
STARTCHAR 30BF
ENCODING 12479
SWIDTH 990 0
DWIDTH 11 0
BBX 6 8 3 -1
BITMAP
24
3C
48
88
30
28
44
80
ENDCHAR
STARTCHAR 30C0
ENCODING 12480
SWIDTH 990 0
DWIDTH 11 0
BBX 8 9 2 -1
BITMAP
01
24
3C
48
88
30
28
44
80
ENDCHAR
STARTCHAR 30C1
ENCODING 12481
SWIDTH 990 0
DWIDTH 11 0
BBX 7 8 3 -1
BITMAP
08
70
1E
F0
20
20
40
80
ENDCHAR
STARTCHAR 30C2
ENCODING 12482
SWIDTH 990 0
DWIDTH 11 0
BBX 8 8 1 1
BITMAP
08
31
12
FC
10
20
40
80
ENDCHAR
STARTCHAR 30C3
ENCODING 12483
SWIDTH 990 0
DWIDTH 11 0
BBX 5 5 3 0
BITMAP
08
88
10
10
20
ENDCHAR
STARTCHAR 30C4
ENCODING 12484
SWIDTH 990 0
DWIDTH 11 0
BBX 7 6 2 0
BITMAP
A2
04
08
10
20
40
ENDCHAR
STARTCHAR 30C5
ENCODING 12485
SWIDTH 990 0
DWIDTH 11 0
BBX 8 8 2 0
BITMAP
01
04
A8
88
10
10
20
40
ENDCHAR
STARTCHAR 30C6
ENCODING 12486
SWIDTH 990 0
DWIDTH 11 0
BBX 7 7 2 -1
BITMAP
08
30
0E
F0
10
20
40
ENDCHAR
STARTCHAR 30C7
ENCODING 12487
SWIDTH 990 0
DWIDTH 11 0
BBX 8 7 2 0
BITMAP
01
70
1E
F0
20
20
40
ENDCHAR
STARTCHAR 30C8
ENCODING 12488
SWIDTH 990 0
DWIDTH 11 0
BBX 4 8 4 -1
BITMAP
80
80
80
E0
90
80
80
80
ENDCHAR
STARTCHAR 30C9
ENCODING 12489
SWIDTH 990 0
DWIDTH 11 0
BBX 6 8 4 -1
BITMAP
88
94
80
E0
90
80
80
80
ENDCHAR
STARTCHAR 30CA
ENCODING 12490
SWIDTH 990 0
DWIDTH 11 0
BBX 7 8 2 -1
BITMAP
10
10
16
F8
10
10
20
40
ENDCHAR
STARTCHAR 30CB
ENCODING 12491
SWIDTH 990 0
DWIDTH 11 0
BBX 8 4 1 1
BITMAP
3E
00
00
FF
ENDCHAR
STARTCHAR 30CC
ENCODING 12492
SWIDTH 990 0
DWIDTH 11 0
BBX 6 7 2 0
BITMAP
1C
28
08
30
28
40
80
ENDCHAR
STARTCHAR 30CD
ENCODING 12493
SWIDTH 990 0
DWIDTH 11 0
BBX 7 8 2 0
BITMAP
10
18
70
20
54
92
10
10
ENDCHAR
STARTCHAR 30CE
ENCODING 12494
SWIDTH 990 0
DWIDTH 11 0
BBX 6 7 3 -1
BITMAP
04
08
08
10
20
40
80
ENDCHAR
STARTCHAR 30CF
ENCODING 12495
SWIDTH 990 0
DWIDTH 11 0
BBX 8 5 1 1
BITMAP
10
22
21
40
80
ENDCHAR
STARTCHAR 30D0
ENCODING 12496
SWIDTH 900 0
DWIDTH 10 0
BBX 7 6 2 2
BITMAP
06
00
20
44
42
82
ENDCHAR
STARTCHAR 30D1
ENCODING 12497
SWIDTH 990 0
DWIDTH 11 0
BBX 8 6 2 2
BITMAP
07
02
20
42
41
81
ENDCHAR
STARTCHAR 30D2
ENCODING 12498
SWIDTH 900 0
DWIDTH 10 0
BBX 6 7 2 0
BITMAP
80
80
98
E0
80
80
FC
ENDCHAR
STARTCHAR 30D3
ENCODING 12499
SWIDTH 990 0
DWIDTH 11 0
BBX 6 7 3 0
BITMAP
84
80
88
F0
80
80
7C
ENDCHAR
STARTCHAR 30D4
ENCODING 12500
SWIDTH 990 0
DWIDTH 11 0
BBX 7 8 3 0
BITMAP
04
0A
84
88
F0
80
80
F8
ENDCHAR
STARTCHAR 30D5
ENCODING 12501
SWIDTH 990 0
DWIDTH 11 0
BBX 7 7 2 -1
BITMAP
0E
F2
04
08
10
20
40
ENDCHAR
STARTCHAR 30D6
ENCODING 12502
SWIDTH 990 0
DWIDTH 11 0
BBX 9 8 1 0
BITMAP
0080
0700
FC00
0400
0800
1000
2000
4000
ENDCHAR
STARTCHAR 30D7
ENCODING 12503
SWIDTH 990 0
DWIDTH 11 0
BBX 9 8 1 0
BITMAP
0380
0F00
F400
0400
0800
1000
2000
4000
ENDCHAR
STARTCHAR 30D8
ENCODING 12504
SWIDTH 990 0
DWIDTH 11 0
BBX 7 4 2 2
BITMAP
E0
90
08
06
ENDCHAR
STARTCHAR 30D9
ENCODING 12505
SWIDTH 990 0
DWIDTH 11 0
BBX 8 6 1 1
BITMAP
01
32
48
84
02
01
ENDCHAR
STARTCHAR 30DA
ENCODING 12506
SWIDTH 990 0
DWIDTH 11 0
BBX 7 6 2 1
BITMAP
1C
2C
50
88
04
02
ENDCHAR
STARTCHAR 30DB
ENCODING 12507
SWIDTH 990 0
DWIDTH 11 0
BBX 7 7 2 0
BITMAP
10
10
7C
14
92
92
10
ENDCHAR
STARTCHAR 30DC
ENCODING 12508
SWIDTH 990 0
DWIDTH 11 0
BBX 8 8 2 1
BITMAP
15
12
10
7C
14
52
92
10
ENDCHAR
STARTCHAR 30DD
ENCODING 12509
SWIDTH 990 0
DWIDTH 11 0
BBX 7 8 2 1
BITMAP
1E
14
12
7C
14
52
92
10
ENDCHAR
STARTCHAR 30DE
ENCODING 12510
SWIDTH 990 0
DWIDTH 11 0
BBX 7 5 2 1
BITMAP
FE
04
08
10
10
ENDCHAR
STARTCHAR 30DF
ENCODING 12511
SWIDTH 990 0
DWIDTH 11 0
BBX 3 8 4 1
BITMAP
40
20
00
C0
20
00
80
60
ENDCHAR
STARTCHAR 30E0
ENCODING 12512
SWIDTH 990 0
DWIDTH 11 0
BBX 7 7 2 -1
BITMAP
10
10
20
40
44
8A
F2
ENDCHAR
STARTCHAR 30E1
ENCODING 12513
SWIDTH 990 0
DWIDTH 11 0
BBX 6 7 3 -1
BITMAP
04
08
28
18
24
40
80
ENDCHAR
STARTCHAR 30E2
ENCODING 12514
SWIDTH 1080 0
DWIDTH 12 0
BBX 6 7 3 0
BITMAP
08
F0
20
2C
F0
20
1C
ENDCHAR
STARTCHAR 30E3
ENCODING 12515
SWIDTH 990 0
DWIDTH 11 0
BBX 6 6 3 0
BITMAP
40
5C
A8
20
20
10
ENDCHAR
STARTCHAR 30E4
ENCODING 12516
SWIDTH 990 0
DWIDTH 11 0
BBX 8 8 1 -2
BITMAP
20
23
1E
F2
10
10
08
08
ENDCHAR
STARTCHAR 30E5
ENCODING 12517
SWIDTH 990 0
DWIDTH 11 0
BBX 7 4 2 1
BITMAP
08
78
10
FE
ENDCHAR
STARTCHAR 30E6
ENCODING 12518
SWIDTH 900 0
DWIDTH 10 0
BBX 8 4 1 1
BITMAP
3C
08
08
FF
ENDCHAR
STARTCHAR 30E7
ENCODING 12519
SWIDTH 990 0
DWIDTH 11 0
BBX 5 5 3 0
BITMAP
78
08
78
10
F8
ENDCHAR
STARTCHAR 30E8
ENCODING 12520
SWIDTH 990 0
DWIDTH 11 0
BBX 6 5 2 1
BITMAP
3C
08
78
08
F8
ENDCHAR
STARTCHAR 30E9
ENCODING 12521
SWIDTH 990 0
DWIDTH 11 0
BBX 6 7 3 0
BITMAP
70
0C
F4
08
10
20
40
ENDCHAR
STARTCHAR 30EA
ENCODING 12522
SWIDTH 990 0
DWIDTH 11 0
BBX 4 8 3 -2
BITMAP
90
90
90
90
90
20
20
40
ENDCHAR
STARTCHAR 30EB
ENCODING 12523
SWIDTH 990 0
DWIDTH 11 0
BBX 8 6 2 0
BITMAP
10
50
51
52
54
98
ENDCHAR
STARTCHAR 30EC
ENCODING 12524
SWIDTH 990 0
DWIDTH 11 0
BBX 5 6 3 2
BITMAP
80
80
80
88
B0
C0
ENDCHAR
STARTCHAR 30ED
ENCODING 12525
SWIDTH 1080 0
DWIDTH 12 0
BBX 6 6 3 1
BITMAP
FC
84
88
88
F8
80
ENDCHAR
STARTCHAR 30EE
ENCODING 12526
SWIDTH 990 0
DWIDTH 11 0
BBX 5 5 3 0
BITMAP
F8
88
90
20
40
ENDCHAR
STARTCHAR 30EF
ENCODING 12527
SWIDTH 900 0
DWIDTH 10 0
BBX 6 7 2 -1
BITMAP
04
FC
84
84
08
10
20
ENDCHAR
STARTCHAR 30F0
ENCODING 12528
SWIDTH 900 0
DWIDTH 10 0
BBX 8 9 1 0
BITMAP
08
0A
7C
28
28
FF
08
08
08
ENDCHAR
STARTCHAR 30F1
ENCODING 12529
SWIDTH 990 0
DWIDTH 11 0
BBX 7 6 2 0
BITMAP
7C
18
10
10
1E
E0
ENDCHAR
STARTCHAR 30F2
ENCODING 12530
SWIDTH 900 0
DWIDTH 10 0
BBX 6 7 2 0
BITMAP
7C
08
FC
10
20
40
80
ENDCHAR
STARTCHAR 30F3
ENCODING 12531
SWIDTH 990 0
DWIDTH 11 0
BBX 6 6 2 1
BITMAP
80
40
04
18
20
C0
ENDCHAR
STARTCHAR 30F4
ENCODING 12532
SWIDTH 990 0
DWIDTH 11 0
BBX 9 7 1 0
BITMAP
1080
1100
FE00
8400
0400
0800
1000
ENDCHAR
STARTCHAR 30F5
ENCODING 12533
SWIDTH 990 0
DWIDTH 11 0
BBX 5 6 3 0
BITMAP
20
20
D8
50
90
10
ENDCHAR
STARTCHAR 30F6
ENCODING 12534
SWIDTH 990 0
DWIDTH 11 0
BBX 4 5 3 0
BITMAP
40
B0
20
40
40
ENDCHAR
STARTCHAR 30FC
ENCODING 12540
SWIDTH 990 0
DWIDTH 11 0
BBX 7 1 2 4
BITMAP
FE
ENDCHAR
STARTCHAR 30FD
ENCODING 12541
SWIDTH 990 0
DWIDTH 11 0
BBX 4 4 4 3
BITMAP
80
60
30
10
ENDCHAR
STARTCHAR 30FE
ENCODING 12542
SWIDTH 990 0
DWIDTH 11 0
BBX 7 6 3 1
BITMAP
08
06
B8
40
30
10
ENDCHAR
STARTCHAR 3105
ENCODING 12549
SWIDTH 990 0
DWIDTH 11 0
BBX 7 9 2 -1
BITMAP
40
40
4E
F2
02
02
04
04
08
ENDCHAR
STARTCHAR 3106
ENCODING 12550
SWIDTH 990 0
DWIDTH 11 0
BBX 7 9 2 -1
BITMAP
20
20
46
FA
04
24
18
24
40
ENDCHAR
STARTCHAR 3107
ENCODING 12551
SWIDTH 990 0
DWIDTH 11 0
BBX 7 6 2 1
BITMAP
0E
F6
84
84
84
84
ENDCHAR
STARTCHAR 3108
ENCODING 12552
SWIDTH 900 0
DWIDTH 10 0
BBX 8 8 1 0
BITMAP
06
FC
40
40
40
40
40
3F
ENDCHAR
STARTCHAR 3109
ENCODING 12553
SWIDTH 900 0
DWIDTH 10 0
BBX 7 8 2 1
BITMAP
40
4E
32
24
44
44
84
08
ENDCHAR
STARTCHAR 310A
ENCODING 12554
SWIDTH 990 0
DWIDTH 11 0
BBX 8 8 2 0
BITMAP
10
10
13
FC
20
20
44
7A
ENDCHAR
STARTCHAR 310B
ENCODING 12555
SWIDTH 990 0
DWIDTH 11 0
BBX 7 9 2 -2
BITMAP
08
FC
10
20
1E
04
04
04
18
ENDCHAR
STARTCHAR 310C
ENCODING 12556
SWIDTH 1080 0
DWIDTH 12 0
BBX 8 9 2 -1
BITMAP
08
28
50
53
7F
12
22
46
8C
ENDCHAR
STARTCHAR 310D
ENCODING 12557
SWIDTH 990 0
DWIDTH 11 0
BBX 6 8 2 0
BITMAP
24
24
48
88
88
48
24
24
ENDCHAR
STARTCHAR 310E
ENCODING 12558
SWIDTH 990 0
DWIDTH 11 0
BBX 8 8 2 -1
BITMAP
01
FE
20
3E
02
04
04
18
ENDCHAR
STARTCHAR 310F
ENCODING 12559
SWIDTH 990 0
DWIDTH 11 0
BBX 8 8 2 -1
BITMAP
FF
40
40
40
40
40
80
80
ENDCHAR
STARTCHAR 3110
ENCODING 12560
SWIDTH 990 0
DWIDTH 11 0
BBX 5 9 2 -1
BITMAP
08
48
48
48
88
B8
48
08
08
ENDCHAR
STARTCHAR 3111
ENCODING 12561
SWIDTH 990 0
DWIDTH 11 0
BBX 4 8 3 0
BITMAP
20
20
40
80
80
40
20
10
ENDCHAR
STARTCHAR 3112
ENCODING 12562
SWIDTH 990 0
DWIDTH 11 0
BBX 7 8 2 -1
BITMAP
02
FC
10
10
10
10
10
10
ENDCHAR
STARTCHAR 3113
ENCODING 12563
SWIDTH 990 0
DWIDTH 11 0
BBX 8 10 2 0
BITMAP
10
10
52
52
52
5E
70
10
0F
F0
ENDCHAR
STARTCHAR 3114
ENCODING 12564
SWIDTH 990 0
DWIDTH 11 0
BBX 5 9 2 -1
BITMAP
08
10
28
D0
30
50
10
10
10
ENDCHAR
STARTCHAR 3115
ENCODING 12565
SWIDTH 900 0
DWIDTH 10 0
BBX 7 8 1 0
BITMAP
0E
14
38
20
40
40
40
80
ENDCHAR
STARTCHAR 3116
ENCODING 12566
SWIDTH 990 0
DWIDTH 11 0
BBX 5 7 3 1
BITMAP
F8
88
A8
88
88
B8
C8
ENDCHAR
STARTCHAR 3117
ENCODING 12567
SWIDTH 990 0
DWIDTH 11 0
BBX 7 9 2 -1
BITMAP
FE
22
22
24
24
2C
20
20
20
ENDCHAR
STARTCHAR 3118
ENCODING 12568
SWIDTH 990 0
DWIDTH 11 0
BBX 8 9 2 -1
BITMAP
10
10
1F
E0
40
3C
08
08
08
ENDCHAR
STARTCHAR 3119
ENCODING 12569
SWIDTH 990 0
DWIDTH 11 0
BBX 7 8 2 0
BITMAP
10
10
20
20
40
44
82
FE
ENDCHAR
STARTCHAR 311A
ENCODING 12570
SWIDTH 900 0
DWIDTH 10 0
BBX 5 9 3 -1
BITMAP
08
90
50
20
20
20
20
20
20
ENDCHAR
STARTCHAR 311B
ENCODING 12571
SWIDTH 990 0
DWIDTH 11 0
BBX 7 7 2 1
BITMAP
FE
10
70
80
80
C0
3C
ENDCHAR
STARTCHAR 311C
ENCODING 12572
SWIDTH 990 0
DWIDTH 11 0
BBX 9 9 1 0
BITMAP
0800
0800
FF80
0800
3800
4000
4000
6000
1F00
ENDCHAR
STARTCHAR 311D
ENCODING 12573
SWIDTH 990 0
DWIDTH 11 0
BBX 8 8 2 1
BITMAP
48
48
4F
78
D0
50
40
3E
ENDCHAR
STARTCHAR 311E
ENCODING 12574
SWIDTH 900 0
DWIDTH 10 0
BBX 8 8 1 -1
BITMAP
01
7E
48
8F
71
12
22
44
ENDCHAR
STARTCHAR 311F
ENCODING 12575
SWIDTH 900 0
DWIDTH 10 0
BBX 6 7 2 0
BITMAP
E0
20
20
20
10
10
0C
ENDCHAR
STARTCHAR 3120
ENCODING 12576
SWIDTH 990 0
DWIDTH 11 0
BBX 7 8 2 1
BITMAP
10
20
44
84
F8
30
44
FA
ENDCHAR
STARTCHAR 3121
ENCODING 12577
SWIDTH 990 0
DWIDTH 11 0
BBX 6 7 2 0
BITMAP
7C
08
28
10
28
44
80
ENDCHAR
STARTCHAR 3122
ENCODING 12578
SWIDTH 990 0
DWIDTH 11 0
BBX 7 9 2 -1
BITMAP
0C
74
48
88
FE
02
04
04
04
ENDCHAR
STARTCHAR 3123
ENCODING 12579
SWIDTH 990 0
DWIDTH 11 0
BBX 8 9 2 0
BITMAP
40
40
80
80
8F
F1
02
02
02
ENDCHAR
STARTCHAR 3124
ENCODING 12580
SWIDTH 990 0
DWIDTH 11 0
BBX 8 9 2 0
BITMAP
10
10
17
F8
28
28
28
48
87
ENDCHAR
STARTCHAR 3125
ENCODING 12581
SWIDTH 900 0
DWIDTH 10 0
BBX 8 8 1 1
BITMAP
10
10
20
20
40
40
80
FF
ENDCHAR
STARTCHAR 3126
ENCODING 12582
SWIDTH 1080 0
DWIDTH 12 0
BBX 9 8 2 1
BITMAP
2800
2800
2800
2800
2800
4800
4800
8780
ENDCHAR
STARTCHAR 3127
ENCODING 12583
SWIDTH 900 0
DWIDTH 10 0
BBX 1 9 4 0
BITMAP
80
80
80
80
80
80
80
80
80
ENDCHAR
STARTCHAR 3128
ENCODING 12584
SWIDTH 990 0
DWIDTH 11 0
BBX 6 7 3 0
BITMAP
04
88
48
30
30
48
84
ENDCHAR
STARTCHAR 3129
ENCODING 12585
SWIDTH 990 0
DWIDTH 11 0
BBX 8 7 1 0
BITMAP
01
41
41
81
81
7F
01
ENDCHAR
STARTCHAR 3220
ENCODING 12832
SWIDTH 900 0
DWIDTH 10 0
BBX 10 8 0 0
BITMAP
4000
8080
8040
BF40
8040
8040
8080
4080
ENDCHAR
STARTCHAR 3221
ENCODING 12833
SWIDTH 900 0
DWIDTH 10 0
BBX 10 8 0 1
BITMAP
8080
9E40
8040
8040
8040
BF80
4080
0100
ENDCHAR
STARTCHAR 3222
ENCODING 12834
SWIDTH 900 0
DWIDTH 10 0
BBX 10 7 0 1
BITMAP
BE80
8040
8040
9E40
8040
BF80
4000
ENDCHAR
STARTCHAR 3223
ENCODING 12835
SWIDTH 900 0
DWIDTH 10 0
BBX 10 7 0 0
BITMAP
3F80
AD80
AD40
AD40
B340
BF80
4080
ENDCHAR
STARTCHAR 3224
ENCODING 12836
SWIDTH 900 0
DWIDTH 10 0
BBX 10 8 0 0
BITMAP
4000
BF80
8840
9E40
8A40
9240
BF80
4080
ENDCHAR
STARTCHAR 3225
ENCODING 12837
SWIDTH 900 0
DWIDTH 10 0
BBX 10 9 0 -1
BITMAP
0100
4880
8080
BF40
8040
8040
B240
A180
4000
ENDCHAR
STARTCHAR 3226
ENCODING 12838
SWIDTH 900 0
DWIDTH 10 0
BBX 10 8 0 0
BITMAP
4080
8880
8940
9E40
8840
8940
8F80
4080
ENDCHAR
STARTCHAR 3227
ENCODING 12839
SWIDTH 900 0
DWIDTH 10 0
BBX 10 7 0 0
BITMAP
4000
8080
8C40
9440
9240
A240
A180
ENDCHAR
STARTCHAR 3228
ENCODING 12840
SWIDTH 900 0
DWIDTH 10 0
BBX 10 8 0 0
BITMAP
4000
8880
BE40
8A40
8A40
9340
A380
4000
ENDCHAR
STARTCHAR 3229
ENCODING 12841
SWIDTH 900 0
DWIDTH 10 0
BBX 10 8 0 0
BITMAP
4000
8480
8440
BF40
8440
8440
8480
4480
ENDCHAR
STARTCHAR 3231
ENCODING 12849
SWIDTH 900 0
DWIDTH 10 0
BBX 10 8 0 -1
BITMAP
2280
A280
FE40
BFC0
A240
A740
AA40
A280
ENDCHAR
STARTCHAR 32A3
ENCODING 12963
SWIDTH 990 0
DWIDTH 11 0
BBX 9 9 1 -1
BITMAP
3E00
6300
7F00
8880
AE80
A880
FF00
4300
3E00
ENDCHAR
STARTCHAR 338E
ENCODING 13198
SWIDTH 990 0
DWIDTH 11 0
BBX 9 7 1 -1
BITMAP
1B80
EC80
AC80
AF00
AF80
0480
0700
ENDCHAR
STARTCHAR 338F
ENCODING 13199
SWIDTH 1080 0
DWIDTH 12 0
BBX 10 9 1 -1
BITMAP
C000
4000
4000
5B80
6480
6300
53C0
5C40
0780
ENDCHAR
STARTCHAR 339C
ENCODING 13212
SWIDTH 990 0
DWIDTH 11 0
BBX 10 5 0 0
BITMAP
F7C0
B540
B540
B540
B540
ENDCHAR
STARTCHAR 339D
ENCODING 13213
SWIDTH 1080 0
DWIDTH 12 0
BBX 10 5 1 1
BITMAP
0D80
EA80
8A80
9A80
6AC0
ENDCHAR
STARTCHAR 339E
ENCODING 13214
SWIDTH 990 0
DWIDTH 11 0
BBX 10 8 0 1
BITMAP
4000
4000
4000
57C0
6540
6540
5540
DD40
ENDCHAR
STARTCHAR 33A1
ENCODING 13217
SWIDTH 990 0
DWIDTH 11 0
BBX 9 8 1 1
BITMAP
0180
2100
FF80
5200
5200
5200
5200
DE00
ENDCHAR
STARTCHAR 33C4
ENCODING 13252
SWIDTH 990 0
DWIDTH 11 0
BBX 9 5 1 0
BITMAP
2000
D780
8400
8400
7380
ENDCHAR
STARTCHAR 33CE
ENCODING 13262
SWIDTH 990 0
DWIDTH 11 0
BBX 10 8 0 0
BITMAP
D440
6440
6640
46C0
6740
6540
5540
DC40
ENDCHAR
STARTCHAR 33D1
ENCODING 13265
SWIDTH 900 0
DWIDTH 10 0
BBX 8 8 1 0
BITMAP
40
40
5E
49
49
49
69
FB
ENDCHAR
STARTCHAR 33D2
ENCODING 13266
SWIDTH 900 0
DWIDTH 10 0
BBX 10 9 0 -1
BITMAP
C000
4000
4000
59C0
6640
6640
67C0
FA40
0380
ENDCHAR
STARTCHAR 33D5
ENCODING 13269
SWIDTH 990 0
DWIDTH 11 0
BBX 10 8 0 0
BITMAP
0480
0080
0080
F480
B480
B480
B480
BFC0
ENDCHAR
STARTCHAR 3400
ENCODING 13312
SWIDTH 990 0
DWIDTH 11 0
BBX 10 9 0 -1
BITMAP
1200
1200
1200
7380
1200
1200
1200
1200
FFC0
ENDCHAR
STARTCHAR 3401
ENCODING 13313
SWIDTH 900 0
DWIDTH 10 0
BBX 9 10 1 -1
BITMAP
FF80
0800
FF00
8900
8900
9500
9500
A300
FF00
8100
ENDCHAR
STARTCHAR 3402
ENCODING 13314
SWIDTH 990 0
DWIDTH 11 0
BBX 9 9 1 -1
BITMAP
1000
1E00
7100
1F00
4400
5480
FF00
5480
6780
ENDCHAR
STARTCHAR 3403
ENCODING 13315
SWIDTH 990 0
DWIDTH 11 0
BBX 9 10 1 -1
BITMAP
1800
2400
2200
4200
8100
FF80
0800
0800
0800
0800
ENDCHAR
STARTCHAR 3404
ENCODING 13316
SWIDTH 990 0
DWIDTH 11 0
BBX 9 11 1 -2
BITMAP
0800
0800
0800
FF80
0800
8800
FF80
0800
0800
0800
0800
ENDCHAR
STARTCHAR 3405
ENCODING 13317
SWIDTH 990 0
DWIDTH 11 0
BBX 9 9 1 0
BITMAP
0100
0200
4200
2400
1C00
0C00
1200
6100
8080
ENDCHAR
STARTCHAR 3406
ENCODING 13318
SWIDTH 990 0
DWIDTH 11 0
BBX 8 11 1 -1
BITMAP
06
38
3E
22
3E
3E
3F
22
22
42
84
ENDCHAR
STARTCHAR 3407
ENCODING 13319
SWIDTH 990 0
DWIDTH 11 0
BBX 9 10 1 -1
BITMAP
1000
FC00
2400
2480
4780
FC00
0800
7100
8100
FF00
ENDCHAR
STARTCHAR 3408
ENCODING 13320
SWIDTH 990 0
DWIDTH 11 0
BBX 9 9 1 0
BITMAP
1800
1400
6300
BE00
0400
1800
2080
4080
3F80
ENDCHAR
STARTCHAR 3409
ENCODING 13321
SWIDTH 990 0
DWIDTH 11 0
BBX 9 10 1 0
BITMAP
FF80
0800
0800
0800
0800
7E00
0800
3080
4080
7F80
ENDCHAR
STARTCHAR 340A
ENCODING 13322
SWIDTH 990 0
DWIDTH 11 0
BBX 9 11 1 -1
BITMAP
0800
0800
FF80
0800
7F00
FE00
0400
3800
4080
8080
FF80
ENDCHAR
STARTCHAR 340B
ENCODING 13323
SWIDTH 990 0
DWIDTH 11 0
BBX 10 11 0 -2
BITMAP
0400
0400
3F80
0400
FFC0
7F00
0200
1C00
2040
4040
7FC0
ENDCHAR
STARTCHAR 340C
ENCODING 13324
SWIDTH 990 0
DWIDTH 11 0
BBX 10 10 0 -1
BITMAP
1000
2000
3F80
4400
A580
3E80
6480
2540
2040
3FC0
ENDCHAR
STARTCHAR 340D
ENCODING 13325
SWIDTH 990 0
DWIDTH 11 0
BBX 9 10 1 -1
BITMAP
0F00
F000
1180
4A00
0000
FF00
0600
1800
E000
FF80
ENDCHAR
STARTCHAR 340E
ENCODING 13326
SWIDTH 1080 0
DWIDTH 12 0
BBX 9 10 2 -1
BITMAP
1000
FF00
2800
1000
6F80
FC00
0C00
3000
C100
FF00
ENDCHAR
STARTCHAR 340F
ENCODING 13327
SWIDTH 990 0
DWIDTH 11 0
BBX 10 9 1 0
BITMAP
FF80
7E00
2200
FFC0
FE00
0600
1800
E000
FF80
ENDCHAR
STARTCHAR 3410
ENCODING 13328
SWIDTH 990 0
DWIDTH 11 0
BBX 9 11 0 -2
BITMAP
1000
2780
FC80
4B00
3200
2980
7E00
0200
1C00
6080
7F80
ENDCHAR
STARTCHAR 3411
ENCODING 13329
SWIDTH 990 0
DWIDTH 11 0
BBX 8 11 1 -1
BITMAP
20
3E
64
18
EF
38
FE
0C
30
C0
FF
ENDCHAR
STARTCHAR 3412
ENCODING 13330
SWIDTH 900 0
DWIDTH 10 0
BBX 8 9 1 0
BITMAP
FE
42
FE
42
7E
FC
08
F0
FF
ENDCHAR
STARTCHAR 3413
ENCODING 13331
SWIDTH 990 0
DWIDTH 11 0
BBX 9 10 1 0
BITMAP
FF80
0100
7900
7900
0300
FF00
0400
3800
C080
FF80
ENDCHAR
STARTCHAR 3414
ENCODING 13332
SWIDTH 900 0
DWIDTH 10 0
BBX 9 10 1 -1
BITMAP
1800
FF80
7E00
4200
7E00
FE00
0400
3800
C100
FF00
ENDCHAR
STARTCHAR 3415
ENCODING 13333
SWIDTH 990 0
DWIDTH 11 0
BBX 9 10 1 -1
BITMAP
0800
7F00
4900
7F00
7F00
0000
FF00
1800
E080
FF80
ENDCHAR
STARTCHAR 3416
ENCODING 13334
SWIDTH 990 0
DWIDTH 11 0
BBX 9 10 1 -1
BITMAP
2400
2400
FC00
2400
F400
F400
9400
9480
F480
0780
ENDCHAR
STARTCHAR 3417
ENCODING 13335
SWIDTH 900 0
DWIDTH 10 0
BBX 9 10 0 0
BITMAP
0800
3F00
FF80
0900
3E80
5F80
7F00
0400
7800
7F80
ENDCHAR
STARTCHAR 3418
ENCODING 13336
SWIDTH 1080 0
DWIDTH 12 0
BBX 10 10 1 -1
BITMAP
0900
0A00
FFC0
1C00
2B00
4880
7F00
0400
7800
7FC0
ENDCHAR
STARTCHAR 3419
ENCODING 13337
SWIDTH 990 0
DWIDTH 11 0
BBX 10 10 0 -1
BITMAP
7F80
3F00
2100
3F00
FFC0
0000
7F00
0C00
7040
7FC0
ENDCHAR
STARTCHAR 341A
ENCODING 13338
SWIDTH 990 0
DWIDTH 11 0
BBX 9 9 1 0
BITMAP
FF00
7E00
FF80
7F00
4100
7F00
0700
7800
FF80
ENDCHAR
STARTCHAR 341B
ENCODING 13339
SWIDTH 990 0
DWIDTH 11 0
BBX 10 10 0 -1
BITMAP
0200
2FC0
6400
A780
2C80
2780
7F00
0400
3840
7FC0
ENDCHAR
STARTCHAR 341C
ENCODING 13340
SWIDTH 990 0
DWIDTH 11 0
BBX 9 9 1 -2
BITMAP
4400
7400
6F00
4500
E500
4500
E900
4980
5180
ENDCHAR
STARTCHAR 341D
ENCODING 13341
SWIDTH 990 0
DWIDTH 11 0
BBX 9 11 1 -1
BITMAP
4000
7F80
E100
5D00
5D00
4000
FE00
0C00
7080
8080
7F80
ENDCHAR
STARTCHAR 341E
ENCODING 13342
SWIDTH 990 0
DWIDTH 11 0
BBX 8 10 1 0
BITMAP
22
7F
3E
3E
FF
22
7E
09
71
7F
ENDCHAR
STARTCHAR 341F
ENCODING 13343
SWIDTH 990 0
DWIDTH 11 0
BBX 10 11 1 -1
BITMAP
1400
F780
1400
F780
F7C0
1400
FF00
0C00
7000
8080
FF80
ENDCHAR
STARTCHAR 3420
ENCODING 13344
SWIDTH 1080 0
DWIDTH 12 0
BBX 10 10 1 -1
BITMAP
1000
6400
FC00
2400
F440
67C0
FE00
0800
7080
FF80
ENDCHAR
STARTCHAR 3421
ENCODING 13345
SWIDTH 1080 0
DWIDTH 12 0
BBX 10 9 1 -1
BITMAP
4F80
4F80
6E80
6E80
6980
6F80
A500
A0C0
3FC0
ENDCHAR
STARTCHAR 3422
ENCODING 13346
SWIDTH 990 0
DWIDTH 11 0
BBX 9 11 1 -1
BITMAP
0100
1F00
1500
DF00
BF80
8400
8C00
FE00
0C00
F080
FF80
ENDCHAR
STARTCHAR 3423
ENCODING 13347
SWIDTH 990 0
DWIDTH 11 0
BBX 9 10 1 -1
BITMAP
0C00
7F80
7F00
5F00
5F00
7F80
4400
BF00
9080
3F80
ENDCHAR
STARTCHAR 3424
ENCODING 13348
SWIDTH 900 0
DWIDTH 10 0
BBX 9 10 1 -1
BITMAP
4200
4F00
6700
6700
6700
6700
AF00
A400
A980
1F80
ENDCHAR
STARTCHAR 3425
ENCODING 13349
SWIDTH 990 0
DWIDTH 11 0
BBX 9 10 1 -1
BITMAP
5A00
EB80
6A80
FA80
E480
FF00
0C00
1000
6080
FF80
ENDCHAR
STARTCHAR 3426
ENCODING 13350
SWIDTH 990 0
DWIDTH 11 0
BBX 10 10 0 -1
BITMAP
2D80
2D00
FFC0
3D80
7F00
1400
7F00
0C00
3000
7F80
ENDCHAR
STARTCHAR 3427
ENCODING 13351
SWIDTH 990 0
DWIDTH 11 0
BBX 9 10 1 -2
BITMAP
0400
2400
1400
FF80
0C00
1400
2400
4400
8400
0C00
ENDCHAR
STARTCHAR 3428
ENCODING 13352
SWIDTH 1080 0
DWIDTH 12 0
BBX 10 10 1 -1
BITMAP
F380
2500
6300
FFC0
2100
2100
2100
2100
2100
4200
ENDCHAR
STARTCHAR 3429
ENCODING 13353
SWIDTH 990 0
DWIDTH 11 0
BBX 9 10 1 0
BITMAP
6500
6500
FF80
6500
6500
FF80
6500
6500
A900
1000
ENDCHAR
STARTCHAR 342A
ENCODING 13354
SWIDTH 990 0
DWIDTH 11 0
BBX 10 11 0 -2
BITMAP
1000
0800
FFC0
0800
4880
4880
7F80
0C00
1200
2180
C000
ENDCHAR
STARTCHAR 342B
ENCODING 13355
SWIDTH 990 0
DWIDTH 11 0
BBX 10 9 0 -1
BITMAP
0800
FFC0
0000
5280
4C80
5480
4280
7F80
0080
ENDCHAR
STARTCHAR 342C
ENCODING 13356
SWIDTH 990 0
DWIDTH 11 0
BBX 9 10 1 -2
BITMAP
1100
FF80
2000
7E00
0200
5400
5400
5480
9480
1780
ENDCHAR
STARTCHAR 342D
ENCODING 13357
SWIDTH 1080 0
DWIDTH 12 0
BBX 10 10 1 -1
BITMAP
0800
0000
FFC0
7F80
4080
5E80
5280
5E80
7F80
4080
ENDCHAR
STARTCHAR 342E
ENCODING 13358
SWIDTH 990 0
DWIDTH 11 0
BBX 10 10 0 0
BITMAP
7FC0
1100
7200
7F80
3F80
FFC0
1480
3300
5100
1080
ENDCHAR
STARTCHAR 342F
ENCODING 13359
SWIDTH 990 0
DWIDTH 11 0
BBX 8 10 1 -1
BITMAP
08
FF
3E
7F
7F
7E
FF
2C
FF
3E
ENDCHAR
STARTCHAR 3430
ENCODING 13360
SWIDTH 990 0
DWIDTH 11 0
BBX 8 9 2 -1
BITMAP
40
BF
A1
A1
A1
A1
A1
BF
A1
ENDCHAR
STARTCHAR 3431
ENCODING 13361
SWIDTH 990 0
DWIDTH 11 0
BBX 9 10 0 -2
BITMAP
0800
0C00
1200
2580
D800
0400
0900
3300
0400
1800
ENDCHAR
STARTCHAR 3432
ENCODING 13362
SWIDTH 990 0
DWIDTH 11 0
BBX 10 10 0 -1
BITMAP
1000
1200
2200
2200
2FC0
E200
2500
2500
2880
2040
ENDCHAR
STARTCHAR 3433
ENCODING 13363
SWIDTH 990 0
DWIDTH 11 0
BBX 9 11 1 -2
BITMAP
4000
5F80
4A00
CA00
4A00
4A00
4A00
4A80
5280
4380
4000
ENDCHAR
STARTCHAR 3434
ENCODING 13364
SWIDTH 990 0
DWIDTH 11 0
BBX 9 10 1 -1
BITMAP
2400
4400
4780
4880
D100
5500
4100
4200
4400
4800
ENDCHAR
STARTCHAR 3435
ENCODING 13365
SWIDTH 990 0
DWIDTH 11 0
BBX 9 10 1 -1
BITMAP
2000
5F00
4400
4400
FF80
4400
4400
4400
4400
4800
ENDCHAR
STARTCHAR 3436
ENCODING 13366
SWIDTH 990 0
DWIDTH 11 0
BBX 9 10 1 -1
BITMAP
2000
5F00
5100
5100
DF00
5000
5000
5080
5080
5F80
ENDCHAR
STARTCHAR 3437
ENCODING 13367
SWIDTH 990 0
DWIDTH 11 0
BBX 11 11 0 -2
BITMAP
1000
17C0
2480
2880
6880
A7E0
2040
2FC0
2040
2040
2080
ENDCHAR
STARTCHAR 3438
ENCODING 13368
SWIDTH 990 0
DWIDTH 11 0
BBX 9 10 1 -1
BITMAP
2800
4800
4F80
5100
E400
4C00
4C00
4A00
5100
4180
ENDCHAR
STARTCHAR 3439
ENCODING 13369
SWIDTH 990 0
DWIDTH 11 0
BBX 10 10 0 0
BITMAP
2800
2F80
2800
6780
AF00
A100
2100
2140
20C0
2000
ENDCHAR
STARTCHAR 343A
ENCODING 13370
SWIDTH 990 0
DWIDTH 11 0
BBX 9 10 1 0
BITMAP
0A00
5200
5200
D200
7200
5600
5500
5500
5880
4000
ENDCHAR
STARTCHAR 343B
ENCODING 13371
SWIDTH 990 0
DWIDTH 11 0
BBX 9 10 1 -1
BITMAP
2400
4400
5F80
5480
D480
5C80
5A80
5180
5080
5380
ENDCHAR
STARTCHAR 343C
ENCODING 13372
SWIDTH 990 0
DWIDTH 11 0
BBX 10 10 1 -1
BITMAP
2500
5900
4900
4900
DFC0
4900
4900
4900
5100
4100
ENDCHAR
STARTCHAR 343D
ENCODING 13373
SWIDTH 990 0
DWIDTH 11 0
BBX 9 11 1 -3
BITMAP
2000
5F00
5100
5300
5D00
D500
5500
5B00
6300
6080
4000
ENDCHAR
STARTCHAR 343E
ENCODING 13374
SWIDTH 990 0
DWIDTH 11 0
BBX 10 10 0 -1
BITMAP
1080
2F80
2000
2000
6FC0
A500
A500
2900
2940
31C0
ENDCHAR
STARTCHAR 343F
ENCODING 13375
SWIDTH 990 0
DWIDTH 11 0
BBX 10 9 0 -1
BITMAP
1380
2600
2F80
6200
BFC0
2200
2200
2200
2600
ENDCHAR
STARTCHAR 3440
ENCODING 13376
SWIDTH 990 0
DWIDTH 11 0
BBX 9 10 1 -1
BITMAP
2400
4400
4400
5F80
C600
4A00
4A00
4D00
5200
6000
ENDCHAR
STARTCHAR 3441
ENCODING 13377
SWIDTH 990 0
DWIDTH 11 0
BBX 9 11 1 -1
BITMAP
2400
5400
5480
5480
DF80
4400
5480
5480
5480
5F80
4080
ENDCHAR
STARTCHAR 3442
ENCODING 13378
SWIDTH 990 0
DWIDTH 11 0
BBX 10 11 0 -2
BITMAP
1000
2FC0
2200
2FC0
6A40
AA40
2D40
2CC0
2840
2840
2180
ENDCHAR
STARTCHAR 3443
ENCODING 13379
SWIDTH 990 0
DWIDTH 11 0
BBX 10 11 0 -2
BITMAP
0100
2900
2B00
2BC0
3540
6D40
A940
3340
3E40
2240
2480
ENDCHAR
STARTCHAR 3444
ENCODING 13380
SWIDTH 990 0
DWIDTH 11 0
BBX 9 11 1 -3
BITMAP
2000
4F00
5100
5500
FF80
5100
5500
5180
5F80
4100
4700
ENDCHAR
STARTCHAR 3445
ENCODING 13381
SWIDTH 990 0
DWIDTH 11 0
BBX 9 10 1 -2
BITMAP
2800
5000
5F80
4400
C400
4700
4400
4400
7F80
4000
ENDCHAR
STARTCHAR 3446
ENCODING 13382
SWIDTH 990 0
DWIDTH 11 0
BBX 9 10 1 -2
BITMAP
2000
5F00
5100
5100
DF00
5B00
4A00
4A00
5280
4380
ENDCHAR
STARTCHAR 3447
ENCODING 13383
SWIDTH 990 0
DWIDTH 11 0
BBX 9 10 1 -1
BITMAP
4800
4F00
5200
DF80
4080
4080
4F80
4080
5F80
4080
ENDCHAR
STARTCHAR 3448
ENCODING 13384
SWIDTH 990 0
DWIDTH 11 0
BBX 10 10 1 -1
BITMAP
2400
2400
5F80
4800
D200
5F80
4A00
4A80
5240
4200
ENDCHAR
STARTCHAR 3449
ENCODING 13385
SWIDTH 990 0
DWIDTH 11 0
BBX 9 9 1 0
BITMAP
3F00
5100
5100
5500
DB00
5F00
5500
6900
6080
ENDCHAR
STARTCHAR 344A
ENCODING 13386
SWIDTH 990 0
DWIDTH 11 0
BBX 9 11 1 -2
BITMAP
2000
4400
5F80
4A00
CA00
6B00
6A80
6A80
5200
5200
2400
ENDCHAR
STARTCHAR 344B
ENCODING 13387
SWIDTH 990 0
DWIDTH 11 0
BBX 9 9 1 -1
BITMAP
2A00
4A00
5F80
DA80
5F80
5A80
5A80
5F80
5080
ENDCHAR
STARTCHAR 344C
ENCODING 13388
SWIDTH 990 0
DWIDTH 11 0
BBX 9 10 1 -1
BITMAP
2080
5F80
5000
5F80
D200
5700
5200
5280
5500
5F80
ENDCHAR
STARTCHAR 344D
ENCODING 13389
SWIDTH 990 0
DWIDTH 11 0
BBX 9 11 1 -2
BITMAP
2400
4400
5F00
4400
5F00
C400
5F80
4C00
5600
5500
4400
ENDCHAR
STARTCHAR 344E
ENCODING 13390
SWIDTH 990 0
DWIDTH 11 0
BBX 9 9 1 -1
BITMAP
2000
5480
5900
5500
C080
4400
5480
5480
5F80
ENDCHAR
STARTCHAR 344F
ENCODING 13391
SWIDTH 990 0
DWIDTH 11 0
BBX 10 10 0 -1
BITMAP
1000
1000
27C0
2800
6100
AFC0
2100
2100
2100
2100
ENDCHAR
STARTCHAR 3450
ENCODING 13392
SWIDTH 990 0
DWIDTH 11 0
BBX 9 11 1 -3
BITMAP
2400
4400
4700
4400
DF80
4400
4C00
5500
4480
4400
4400
ENDCHAR
STARTCHAR 3451
ENCODING 13393
SWIDTH 990 0
DWIDTH 11 0
BBX 9 11 1 -2
BITMAP
2400
4400
5F80
5080
DF80
5080
5080
5F80
5080
5F80
5080
ENDCHAR
STARTCHAR 3452
ENCODING 13394
SWIDTH 990 0
DWIDTH 11 0
BBX 9 11 1 -1
BITMAP
0800
1400
6300
3E80
FF00
4900
7F00
1800
1600
2180
4000
ENDCHAR
STARTCHAR 3453
ENCODING 13395
SWIDTH 1080 0
DWIDTH 12 0
BBX 10 10 1 -1
BITMAP
2400
4880
4F80
C400
5FC0
4780
4D00
5300
5300
6CC0
ENDCHAR
STARTCHAR 3454
ENCODING 13396
SWIDTH 990 0
DWIDTH 11 0
BBX 11 11 0 -2
BITMAP
1000
2FE0
2200
2FC0
6840
AA40
AA40
2A40
2300
24C0
2800
ENDCHAR
STARTCHAR 3455
ENCODING 13397
SWIDTH 990 0
DWIDTH 11 0
BBX 10 11 0 -2
BITMAP
0200
2A40
2A40
6FC0
67C0
A880
2C80
3100
2200
2400
0800
ENDCHAR
STARTCHAR 3456
ENCODING 13398
SWIDTH 990 0
DWIDTH 11 0
BBX 9 10 1 -1
BITMAP
0200
5200
5F80
5A80
FA80
5F80
5A00
5200
5200
5200
ENDCHAR
STARTCHAR 3457
ENCODING 13399
SWIDTH 990 0
DWIDTH 11 0
BBX 9 11 1 -2
BITMAP
2400
4F00
4900
4F00
CF80
4900
5F00
4300
4500
4900
5100
ENDCHAR
STARTCHAR 3458
ENCODING 13400
SWIDTH 990 0
DWIDTH 11 0
BBX 9 10 1 -2
BITMAP
2300
4280
5F80
4200
DA80
7E80
5B00
5900
6B80
4480
ENDCHAR
STARTCHAR 3459
ENCODING 13401
SWIDTH 990 0
DWIDTH 11 0
BBX 10 11 0 -2
BITMAP
1000
2FC0
2B00
2F00
EB00
AF00
2B00
2B40
3F40
23C0
0200
ENDCHAR
STARTCHAR 345A
ENCODING 13402
SWIDTH 990 0
DWIDTH 11 0
BBX 10 10 0 -2
BITMAP
1000
2FC0
2B80
2F80
6B80
AB80
BF40
2B40
2BC0
3F00
ENDCHAR
STARTCHAR 345B
ENCODING 13403
SWIDTH 990 0
DWIDTH 11 0
BBX 9 9 1 -1
BITMAP
4400
5F80
5F00
D500
5F00
4600
5E00
5500
4400
ENDCHAR
STARTCHAR 345C
ENCODING 13404
SWIDTH 990 0
DWIDTH 11 0
BBX 10 10 0 -1
BITMAP
1800
2980
3F00
29C0
E980
AD80
3980
2A80
2A80
2480
ENDCHAR
STARTCHAR 345D
ENCODING 13405
SWIDTH 990 0
DWIDTH 11 0
BBX 11 10 0 -2
BITMAP
1000
2FC0
2780
2200
6FC0
A480
3FE0
2480
2880
2080
ENDCHAR
STARTCHAR 345E
ENCODING 13406
SWIDTH 990 0
DWIDTH 11 0
BBX 10 10 0 -1
BITMAP
1200
2280
2D00
2500
E8C0
A500
3FC0
2500
2500
2900
ENDCHAR
STARTCHAR 345F
ENCODING 13407
SWIDTH 990 0
DWIDTH 11 0
BBX 10 9 0 -1
BITMAP
1080
2F00
2F80
6900
A900
3FC0
2000
2980
2040
ENDCHAR
STARTCHAR 3460
ENCODING 13408
SWIDTH 990 0
DWIDTH 11 0
BBX 10 10 0 -1
BITMAP
1400
27C0
2E80
2D80
6D80
AE40
2200
2F80
2200
3FC0
ENDCHAR
STARTCHAR 3461
ENCODING 13409
SWIDTH 990 0
DWIDTH 11 0
BBX 10 10 0 -1
BITMAP
1000
2FC0
2B40
2F40
6B40
AF40
A940
2B40
2D80
2100
ENDCHAR
STARTCHAR 3462
ENCODING 13410
SWIDTH 990 0
DWIDTH 11 0
BBX 10 11 0 -1
BITMAP
1400
25C0
2540
2F40
6540
BF40
A540
2940
33C0
2D00
0100
ENDCHAR
STARTCHAR 3463
ENCODING 13411
SWIDTH 990 0
DWIDTH 11 0
BBX 9 10 1 0
BITMAP
2A00
4A00
5F80
4A00
CA00
5F00
6A80
4A00
4A00
4A00
ENDCHAR
STARTCHAR 3464
ENCODING 13412
SWIDTH 990 0
DWIDTH 11 0
BBX 10 10 0 -1
BITMAP
1080
2480
2FC0
2480
6FC0
AA40
2FC0
2A40
2FC0
2840
ENDCHAR
STARTCHAR 3465
ENCODING 13413
SWIDTH 900 0
DWIDTH 10 0
BBX 9 9 1 -1
BITMAP
5F00
5F00
5100
DF00
4F80
5B00
5500
4900
4300
ENDCHAR
STARTCHAR 3466
ENCODING 13414
SWIDTH 990 0
DWIDTH 11 0
BBX 9 9 1 -1
BITMAP
4400
5F80
5080
5F80
D500
5F80
5600
6900
6880
ENDCHAR
STARTCHAR 3467
ENCODING 13415
SWIDTH 990 0
DWIDTH 11 0
BBX 10 11 0 -2
BITMAP
1000
1F00
2200
2FC0
6280
AF00
A180
2FC0
2200
2200
2200
ENDCHAR
STARTCHAR 3468
ENCODING 13416
SWIDTH 990 0
DWIDTH 11 0
BBX 9 11 1 -2
BITMAP
2000
5F00
5100
5100
5F00
CF00
4400
7F80
4C00
4A00
5180
ENDCHAR
STARTCHAR 3469
ENCODING 13417
SWIDTH 990 0
DWIDTH 11 0
BBX 9 10 1 -1
BITMAP
1F80
5580
5580
CE00
4780
4900
5500
4200
4C00
1000
ENDCHAR
STARTCHAR 346A
ENCODING 13418
SWIDTH 990 0
DWIDTH 11 0
BBX 10 11 0 -3
BITMAP
0400
2200
2FC0
2900
2500
E700
A880
2F80
2F80
2880
2080
ENDCHAR
STARTCHAR 346B
ENCODING 13419
SWIDTH 990 0
DWIDTH 11 0
BBX 9 10 1 -1
BITMAP
2400
4600
4D00
5380
CF80
4200
4600
6A80
4900
4F00
ENDCHAR
STARTCHAR 346C
ENCODING 13420
SWIDTH 990 0
DWIDTH 11 0
BBX 9 9 1 -1
BITMAP
5100
5100
7F80
E900
6B80
6A80
5A80
6380
6280
ENDCHAR
STARTCHAR 346D
ENCODING 13421
SWIDTH 990 0
DWIDTH 11 0
BBX 11 10 0 -2
BITMAP
2FC0
2A40
2FC0
6FC0
A000
AFE0
2480
2480
2880
2880
ENDCHAR
STARTCHAR 346E
ENCODING 13422
SWIDTH 900 0
DWIDTH 10 0
BBX 10 10 0 -1
BITMAP
1F80
2B00
2F80
6F80
AF80
2A80
2F80
2FC0
2200
2200
ENDCHAR
STARTCHAR 346F
ENCODING 13423
SWIDTH 990 0
DWIDTH 11 0
BBX 10 10 0 -1
BITMAP
1000
2780
2FC0
2FC0
E840
AFC0
2FC0
2800
24C0
2800
ENDCHAR
STARTCHAR 3470
ENCODING 13424
SWIDTH 990 0
DWIDTH 11 0
BBX 10 10 0 -1
BITMAP
1400
2780
2700
2FC0
E400
2A80
2700
2B80
2540
2A00
ENDCHAR
STARTCHAR 3471
ENCODING 13425
SWIDTH 990 0
DWIDTH 11 0
BBX 10 10 0 -1
BITMAP
2F80
2200
2FC0
6680
AA00
2200
3FC0
2600
2B80
2200
ENDCHAR
STARTCHAR 3472
ENCODING 13426
SWIDTH 990 0
DWIDTH 11 0
BBX 9 11 1 -2
BITMAP
0400
2400
5F80
4400
5F80
DA80
5480
5680
5F80
5480
5100
ENDCHAR
STARTCHAR 3473
ENCODING 13427
SWIDTH 990 0
DWIDTH 11 0
BBX 10 11 0 -1
BITMAP
1000
27C0
3E40
2F40
6440
A080
27C0
2D40
2F40
2440
2880
ENDCHAR
STARTCHAR 3474
ENCODING 13428
SWIDTH 990 0
DWIDTH 11 0
BBX 9 10 1 -1
BITMAP
2F00
4F00
4100
5F80
DF00
5700
5F00
4A00
4600
1900
ENDCHAR
STARTCHAR 3475
ENCODING 13429
SWIDTH 990 0
DWIDTH 11 0
BBX 9 10 1 -2
BITMAP
0400
4200
5F80
5400
7780
DA00
7F80
5300
6500
6880
ENDCHAR
STARTCHAR 3476
ENCODING 13430
SWIDTH 900 0
DWIDTH 10 0
BBX 10 10 0 0
BITMAP
1800
2FC0
2F80
3F80
E480
AE80
2F80
2480
2F80
2440
ENDCHAR
STARTCHAR 3477
ENCODING 13431
SWIDTH 990 0
DWIDTH 11 0
BBX 10 10 1 -2
BITMAP
0A00
5280
6700
7A00
FF80
7E00
6680
7F00
6600
67C0
ENDCHAR
STARTCHAR 3478
ENCODING 13432
SWIDTH 990 0
DWIDTH 11 0
BBX 9 10 1 -1
BITMAP
2400
5F80
5F00
DF00
4000
5F00
5500
5D00
4300
4000
ENDCHAR
STARTCHAR 3479
ENCODING 13433
SWIDTH 990 0
DWIDTH 11 0
BBX 8 10 2 -2
BITMAP
10
30
4C
9B
FE
FE
FE
7E
7E
7E
ENDCHAR
STARTCHAR 347A
ENCODING 13434
SWIDTH 990 0
DWIDTH 11 0
BBX 9 10 1 -1
BITMAP
0A00
5F80
5F80
DF00
5F80
5F00
4A00
4B80
5080
6100
ENDCHAR
STARTCHAR 347B
ENCODING 13435
SWIDTH 990 0
DWIDTH 11 0
BBX 10 10 0 -1
BITMAP
1200
2A00
2FC0
2D40
F680
A780
3A00
2A40
2A40
2FC0
ENDCHAR
STARTCHAR 347C
ENCODING 13436
SWIDTH 1080 0
DWIDTH 12 0
BBX 10 11 1 -2
BITMAP
0200
4380
7A80
7D00
FB00
7AC0
7B80
7A80
6280
4380
4200
ENDCHAR
STARTCHAR 347D
ENCODING 13437
SWIDTH 990 0
DWIDTH 11 0
BBX 9 9 1 -1
BITMAP
1480
4400
7F80
DF00
5100
5F00
5F80
4400
7F80
ENDCHAR
STARTCHAR 347E
ENCODING 13438
SWIDTH 990 0
DWIDTH 11 0
BBX 10 10 1 -1
BITMAP
2400
4F80
5500
4200
FE00
5FC0
5F00
5F00
5F80
5F80
ENDCHAR
STARTCHAR 347F
ENCODING 13439
SWIDTH 990 0
DWIDTH 11 0
BBX 10 10 0 -1
BITMAP
1080
3500
2000
2F80
6F80
AF80
3FC0
2700
2A80
2200
ENDCHAR
STARTCHAR 3480
ENCODING 13440
SWIDTH 990 0
DWIDTH 11 0
BBX 9 10 1 0
BITMAP
2400
5F80
4A00
5F80
D480
5E80
5E80
5E80
5080
5180
ENDCHAR
STARTCHAR 3481
ENCODING 13441
SWIDTH 990 0
DWIDTH 11 0
BBX 10 10 0 -2
BITMAP
1000
2FC0
2A40
2FC0
6FC0
AF40
AFC0
2FC0
2A40
2FC0
ENDCHAR
STARTCHAR 3482
ENCODING 13442
SWIDTH 990 0
DWIDTH 11 0
BBX 9 10 1 -2
BITMAP
2A00
5F80
4E00
4F00
C600
5F80
4F00
5900
4F00
4F00
ENDCHAR
STARTCHAR 3483
ENCODING 13443
SWIDTH 990 0
DWIDTH 11 0
BBX 10 9 0 -1
BITMAP
11C0
2FC0
2F00
6F00
AF00
2F00
2E80
28C0
3040
ENDCHAR
STARTCHAR 3484
ENCODING 13444
SWIDTH 990 0
DWIDTH 11 0
BBX 9 10 1 -2
BITMAP
2200
5200
4E80
7F80
EA00
4B00
5480
6800
4880
6200
ENDCHAR
STARTCHAR 3485
ENCODING 13445
SWIDTH 990 0
DWIDTH 11 0
BBX 10 10 0 -1
BITMAP
2FC0
2780
3D00
6BC0
A680
2F80
2500
2C80
26C0
2400
ENDCHAR
STARTCHAR 3486
ENCODING 13446
SWIDTH 990 0
DWIDTH 11 0
BBX 9 10 1 -1
BITMAP
2400
4A00
5F80
DF00
5F00
5F80
4680
5680
7F80
4D00
ENDCHAR
STARTCHAR 3487
ENCODING 13447
SWIDTH 990 0
DWIDTH 11 0
BBX 11 10 0 -1
BITMAP
2800
2FC0
2B80
2B80
7FC0
AB80
3FE0
2000
2040
3220
ENDCHAR
STARTCHAR 3488
ENCODING 13448
SWIDTH 990 0
DWIDTH 11 0
BBX 9 10 1 -2
BITMAP
2100
5E00
4A00
5F80
DE80
5680
5E80
5500
7D00
4680
ENDCHAR
STARTCHAR 3489
ENCODING 13449
SWIDTH 990 0
DWIDTH 11 0
BBX 10 10 0 -2
BITMAP
0200
2680
2FC0
3780
E780
A200
3FC0
2300
2E80
3200
ENDCHAR
STARTCHAR 348A
ENCODING 13450
SWIDTH 990 0
DWIDTH 11 0
BBX 9 10 1 -2
BITMAP
2000
5F80
5D80
6D80
DF80
4900
5B00
5F00
5B00
7380
ENDCHAR
STARTCHAR 348B
ENCODING 13451
SWIDTH 990 0
DWIDTH 11 0
BBX 9 9 2 -1
BITMAP
6800
7F00
AC00
BF80
BD00
FD00
A500
A900
C100
ENDCHAR
STARTCHAR 348C
ENCODING 13452
SWIDTH 990 0
DWIDTH 11 0
BBX 9 9 1 -1
BITMAP
4980
6B00
5400
FF80
6000
4E00
4A00
4A80
5380
ENDCHAR
STARTCHAR 348D
ENCODING 13453
SWIDTH 990 0
DWIDTH 11 0
BBX 9 11 1 -2
BITMAP
2000
4800
4F00
4800
5A00
F780
4A00
4D00
5E80
5700
6480
ENDCHAR
STARTCHAR 348E
ENCODING 13454
SWIDTH 1080 0
DWIDTH 12 0
BBX 10 9 1 -1
BITMAP
5F80
4400
5F80
C100
5B80
4A00
5B80
7BC0
4A00
ENDCHAR
STARTCHAR 348F
ENCODING 13455
SWIDTH 990 0
DWIDTH 11 0
BBX 9 11 1 -1
BITMAP
2000
4480
5F80
6B00
DF00
DF00
7F80
5600
4300
4C00
4000
ENDCHAR
STARTCHAR 3490
ENCODING 13456
SWIDTH 990 0
DWIDTH 11 0
BBX 10 10 0 -2
BITMAP
1900
27C0
2000
27C0
E840
2740
2740
2740
2040
2080
ENDCHAR
STARTCHAR 3491
ENCODING 13457
SWIDTH 990 0
DWIDTH 11 0
BBX 9 10 1 -1
BITMAP
2000
5F80
5B00
5780
D500
5F80
5780
5D00
5F80
5F80
ENDCHAR
STARTCHAR 3492
ENCODING 13458
SWIDTH 990 0
DWIDTH 11 0
BBX 10 10 0 -1
BITMAP
1500
2500
2FC0
2400
6F80
AF80
3FC0
2700
2A80
2200
ENDCHAR
STARTCHAR 3493
ENCODING 13459
SWIDTH 990 0
DWIDTH 11 0
BBX 9 10 1 -1
BITMAP
2200
4700
5200
4500
F680
5300
5700
5F80
5200
6F80
ENDCHAR
STARTCHAR 3494
ENCODING 13460
SWIDTH 990 0
DWIDTH 11 0
BBX 10 9 0 -1
BITMAP
2FC0
2B40
2480
67C0
AFC0
2FC0
2240
2D40
21C0
ENDCHAR
STARTCHAR 3495
ENCODING 13461
SWIDTH 990 0
DWIDTH 11 0
BBX 9 9 1 0
BITMAP
2400
5F80
6F80
D500
5F80
7D00
5780
5780
6400
ENDCHAR
STARTCHAR 3496
ENCODING 13462
SWIDTH 990 0
DWIDTH 11 0
BBX 9 9 1 -1
BITMAP
0A00
7F80
5F00
DF00
5F00
7F80
6480
7B80
6180
ENDCHAR
STARTCHAR 3497
ENCODING 13463
SWIDTH 990 0
DWIDTH 11 0
BBX 10 9 1 0
BITMAP
2900
5F80
4F00
DFC0
7F00
4900
5680
5F00
7FC0
ENDCHAR
STARTCHAR 3498
ENCODING 13464
SWIDTH 990 0
DWIDTH 11 0
BBX 9 10 1 -1
BITMAP
2000
5F80
5700
5D00
DE80
4000
4F00
4800
4200
5F80
ENDCHAR
STARTCHAR 3499
ENCODING 13465
SWIDTH 990 0
DWIDTH 11 0
BBX 9 9 1 -1
BITMAP
2000
5780
5C80
D780
7780
4580
5D80
6580
4100
ENDCHAR
STARTCHAR 349A
ENCODING 13466
SWIDTH 990 0
DWIDTH 11 0
BBX 9 9 1 -1
BITMAP
2700
4C00
4600
CB00
5F00
4F00
4F00
4B80
6F00
ENDCHAR
STARTCHAR 349B
ENCODING 13467
SWIDTH 990 0
DWIDTH 11 0
BBX 9 9 1 -1
BITMAP
5D80
5580
5E80
CA00
5F80
5200
7F80
5F80
5F80
ENDCHAR
STARTCHAR 349C
ENCODING 13468
SWIDTH 990 0
DWIDTH 11 0
BBX 10 11 0 -2
BITMAP
1600
2EC0
2BC0
2A40
2B40
6940
AB40
2B40
3FC0
2480
2800
ENDCHAR
STARTCHAR 349D
ENCODING 13469
SWIDTH 990 0
DWIDTH 11 0
BBX 9 9 1 -1
BITMAP
2900
5F80
5680
D680
4900
5F80
5480
5F00
6180
ENDCHAR
STARTCHAR 349E
ENCODING 13470
SWIDTH 990 0
DWIDTH 11 0
BBX 9 11 1 -2
BITMAP
2000
3280
5F80
4A00
DF80
5F80
5F80
5D80
5680
5480
5080
ENDCHAR
STARTCHAR 349F
ENCODING 13471
SWIDTH 990 0
DWIDTH 11 0
BBX 10 10 0 -1
BITMAP
1100
2FC0
2FC0
2F80
6FC0
A0C0
25C0
2600
2D00
26C0
ENDCHAR
STARTCHAR 34A0
ENCODING 13472
SWIDTH 990 0
DWIDTH 11 0
BBX 9 10 1 -1
BITMAP
2800
4F80
5B00
5F00
F900
5A00
7B80
5B00
5B80
7F80
ENDCHAR
STARTCHAR 34A1
ENCODING 13473
SWIDTH 990 0
DWIDTH 11 0
BBX 9 10 1 -2
BITMAP
0480
3900
5680
4300
DE00
5380
7D00
7780
7500
4900
ENDCHAR
STARTCHAR 34A2
ENCODING 13474
SWIDTH 990 0
DWIDTH 11 0
BBX 10 10 0 0
BITMAP
0600
2500
2BC0
2FC0
EDC0
2FC0
3FC0
3FC0
3140
3000
ENDCHAR
STARTCHAR 34A3
ENCODING 13475
SWIDTH 990 0
DWIDTH 11 0
BBX 10 9 1 -1
BITMAP
2000
5FC0
5F80
DF80
5F80
5FC0
6000
6240
6780
ENDCHAR
STARTCHAR 34A4
ENCODING 13476
SWIDTH 990 0
DWIDTH 11 0
BBX 10 9 1 -1
BITMAP
3F80
4F00
4F00
5FC0
C100
5BC0
5B80
5B80
4880
ENDCHAR
STARTCHAR 34A5
ENCODING 13477
SWIDTH 990 0
DWIDTH 11 0
BBX 9 9 1 -1
BITMAP
1500
5780
5F80
DF80
5F80
4F80
4880
4F80
5F80
ENDCHAR
STARTCHAR 34A6
ENCODING 13478
SWIDTH 990 0
DWIDTH 11 0
BBX 9 10 1 -1
BITMAP
0F00
5500
4F00
4F00
FD80
7B80
7B80
4400
5F00
7F80
ENDCHAR
STARTCHAR 34A7
ENCODING 13479
SWIDTH 1080 0
DWIDTH 12 0
BBX 10 10 1 0
BITMAP
0900
3E00
5BC0
5E80
FFC0
7E80
77C0
7E80
67C0
6600
ENDCHAR
STARTCHAR 34A8
ENCODING 13480
SWIDTH 990 0
DWIDTH 11 0
BBX 9 10 1 -1
BITMAP
2000
5F80
6680
7680
DA80
5F80
4F00
5A80
4E00
4F00
ENDCHAR
STARTCHAR 34A9
ENCODING 13481
SWIDTH 990 0
DWIDTH 11 0
BBX 9 11 1 -3
BITMAP
0800
4F00
4E00
5F80
4D00
C700
5A00
7F80
7F80
5180
6E00
ENDCHAR
STARTCHAR 34AA
ENCODING 13482
SWIDTH 990 0
DWIDTH 11 0
BBX 9 11 1 -1
BITMAP
0800
3400
C380
EE00
DD00
EE00
4F80
C400
EB00
ED80
0200
ENDCHAR
STARTCHAR 34AB
ENCODING 13483
SWIDTH 1080 0
DWIDTH 12 0
BBX 10 9 1 -1
BITMAP
3F00
2000
3F00
2000
FFC0
1400
2440
2440
47C0
ENDCHAR
STARTCHAR 34AC
ENCODING 13484
SWIDTH 990 0
DWIDTH 11 0
BBX 9 9 1 -1
BITMAP
F700
0200
0200
FF00
5200
5200
9100
9080
1F80
ENDCHAR
STARTCHAR 34AD
ENCODING 13485
SWIDTH 1080 0
DWIDTH 12 0
BBX 10 9 1 -1
BITMAP
F780
9480
9480
F780
6300
6300
6500
B540
29C0
ENDCHAR
STARTCHAR 34AE
ENCODING 13486
SWIDTH 990 0
DWIDTH 11 0
BBX 9 9 1 -1
BITMAP
F780
0200
0200
FF00
5100
5780
5100
9280
1F80
ENDCHAR
STARTCHAR 34AF
ENCODING 13487
SWIDTH 1080 0
DWIDTH 12 0
BBX 10 11 1 -2
BITMAP
2500
27C0
B500
2680
5FC0
5680
57C0
5200
9FC0
9200
0200
ENDCHAR
STARTCHAR 34B0
ENCODING 13488
SWIDTH 990 0
DWIDTH 11 0
BBX 9 9 1 0
BITMAP
1800
1400
2200
4180
FF00
0800
0800
0800
FF80
ENDCHAR
STARTCHAR 34B1
ENCODING 13489
SWIDTH 990 0
DWIDTH 11 0
BBX 9 10 1 -1
BITMAP
0800
1400
2300
5080
9F00
2100
1200
0C00
3000
4000
ENDCHAR
STARTCHAR 34B2
ENCODING 13490
SWIDTH 990 0
DWIDTH 11 0
BBX 10 11 0 -2
BITMAP
1000
0C00
0A00
1100
20C0
FF80
3F80
2080
2080
3F80
2080
ENDCHAR
STARTCHAR 34B3
ENCODING 13491
SWIDTH 990 0
DWIDTH 11 0
BBX 9 10 1 -1
BITMAP
FF80
8880
8880
AC80
AA80
BD80
9980
8880
8880
8180
ENDCHAR
STARTCHAR 34B4
ENCODING 13492
SWIDTH 990 0
DWIDTH 11 0
BBX 9 9 1 -1
BITMAP
1800
1400
2200
C980
4900
7F00
0800
8880
FF80
ENDCHAR
STARTCHAR 34B5
ENCODING 13493
SWIDTH 990 0
DWIDTH 11 0
BBX 8 10 2 -2
BITMAP
10
10
FF
81
FF
81
FF
20
42
81
ENDCHAR
STARTCHAR 34B6
ENCODING 13494
SWIDTH 990 0
DWIDTH 11 0
BBX 10 9 0 -1
BITMAP
0200
1200
2100
48C0
BF80
2080
3F80
2080
3F80
ENDCHAR
STARTCHAR 34B7
ENCODING 13495
SWIDTH 990 0
DWIDTH 11 0
BBX 10 10 0 0
BITMAP
3F00
2100
2500
2900
2D00
2300
FFC0
1000
2380
4000
ENDCHAR
STARTCHAR 34B8
ENCODING 13496
SWIDTH 990 0
DWIDTH 11 0
BBX 8 10 1 0
BITMAP
22
04
FF
10
73
1C
6C
1A
69
90
ENDCHAR
STARTCHAR 34B9
ENCODING 13497
SWIDTH 900 0
DWIDTH 10 0
BBX 9 10 0 0
BITMAP
2100
7780
7380
9480
7380
7380
7380
FF80
4200
8400
ENDCHAR
STARTCHAR 34BA
ENCODING 13498
SWIDTH 990 0
DWIDTH 11 0
BBX 9 9 1 0
BITMAP
FF80
9480
BE80
8080
A880
A680
BE80
8080
8180
ENDCHAR
STARTCHAR 34BB
ENCODING 13499
SWIDTH 1080 0
DWIDTH 12 0
BBX 9 10 2 -2
BITMAP
FF00
BD00
BD00
7E00
7E00
7E00
7E00
2800
2880
CF80
ENDCHAR
STARTCHAR 34BC
ENCODING 13500
SWIDTH 900 0
DWIDTH 10 0
BBX 10 10 0 -1
BITMAP
1200
FFC0
1200
1E00
7F80
6480
5780
6C80
4480
4180
ENDCHAR
STARTCHAR 34BD
ENCODING 13501
SWIDTH 990 0
DWIDTH 11 0
BBX 9 10 1 -1
BITMAP
7F00
7F00
7F00
2A00
7F00
FF80
2200
FD80
2500
3F00
ENDCHAR
STARTCHAR 34BE
ENCODING 13502
SWIDTH 990 0
DWIDTH 11 0
BBX 9 9 1 -1
BITMAP
7F00
7D00
7D00
0780
F200
7A80
5F00
9880
2F80
ENDCHAR
STARTCHAR 34BF
ENCODING 13503
SWIDTH 1080 0
DWIDTH 12 0
BBX 10 9 1 -1
BITMAP
7F80
5E80
5E80
F800
57C0
F780
FD00
DFC0
AFC0
ENDCHAR
STARTCHAR 34C0
ENCODING 13504
SWIDTH 900 0
DWIDTH 10 0
BBX 9 9 0 -1
BITMAP
7F80
8880
8900
0800
0E00
0800
0800
0800
0800
ENDCHAR
STARTCHAR 34C1
ENCODING 13505
SWIDTH 990 0
DWIDTH 11 0
BBX 9 5 1 2
BITMAP
7F80
9500
2200
4100
0080
ENDCHAR
STARTCHAR 34C2
ENCODING 13506
SWIDTH 990 0
DWIDTH 11 0
BBX 9 9 1 -2
BITMAP
7F80
8300
2F00
0500
FE00
6600
6580
A080
BF80
ENDCHAR
STARTCHAR 34C3
ENCODING 13507
SWIDTH 1080 0
DWIDTH 12 0
BBX 10 9 1 -2
BITMAP
7FC0
E080
F700
0200
7200
7F00
7200
5200
73C0
ENDCHAR
STARTCHAR 34C4
ENCODING 13508
SWIDTH 990 0
DWIDTH 11 0
BBX 10 10 0 -2
BITMAP
2900
7900
47C0
B500
6980
5180
2280
1AC0
34C0
28C0
ENDCHAR
STARTCHAR 34C5
ENCODING 13509
SWIDTH 990 0
DWIDTH 11 0
BBX 8 9 2 -1
BITMAP
9F
A4
44
44
44
84
84
84
84
ENDCHAR
STARTCHAR 34C6
ENCODING 13510
SWIDTH 990 0
DWIDTH 11 0
BBX 9 10 1 0
BITMAP
0800
8800
5400
6200
6180
5200
9C00
9100
9100
9F00
ENDCHAR
STARTCHAR 34C7
ENCODING 13511
SWIDTH 990 0
DWIDTH 11 0
BBX 9 9 1 -2
BITMAP
0300
DC00
4400
7F80
8400
8A00
8A00
9100
A080
ENDCHAR
STARTCHAR 34C8
ENCODING 13512
SWIDTH 990 0
DWIDTH 11 0
BBX 9 10 1 0
BITMAP
3F80
A400
4800
4800
5F80
B880
C880
8880
8F80
0800
ENDCHAR
STARTCHAR 34C9
ENCODING 13513
SWIDTH 990 0
DWIDTH 11 0
BBX 9 10 1 -2
BITMAP
0100
0E00
D400
3F80
4400
9F00
9100
9100
9F00
9100
ENDCHAR
STARTCHAR 34CA
ENCODING 13514
SWIDTH 990 0
DWIDTH 11 0
BBX 10 9 0 -1
BITMAP
1FC0
7040
3740
3740
3540
5540
D740
5040
50C0
ENDCHAR
STARTCHAR 34CB
ENCODING 13515
SWIDTH 990 0
DWIDTH 11 0
BBX 9 9 1 0
BITMAP
0A00
CA00
5F00
4A00
8A00
BF80
8800
9180
E080
ENDCHAR
STARTCHAR 34CC
ENCODING 13516
SWIDTH 990 0
DWIDTH 11 0
BBX 10 10 0 0
BITMAP
0200
6700
2880
3040
4F80
4200
CF80
4200
4200
7FC0
ENDCHAR
STARTCHAR 34CD
ENCODING 13517
SWIDTH 990 0
DWIDTH 11 0
BBX 9 10 1 -2
BITMAP
0400
0000
5F80
4800
5100
9F00
8A00
8A00
9280
A380
ENDCHAR
STARTCHAR 34CE
ENCODING 13518
SWIDTH 990 0
DWIDTH 11 0
BBX 9 10 1 0
BITMAP
3F00
0100
DF00
5F00
BF80
7E00
9200
8C00
8C00
7300
ENDCHAR
STARTCHAR 34CF
ENCODING 13519
SWIDTH 990 0
DWIDTH 11 0
BBX 9 9 1 -1
BITMAP
1F80
9080
7580
5880
5780
5580
D780
9480
1080
ENDCHAR
STARTCHAR 34D0
ENCODING 13520
SWIDTH 990 0
DWIDTH 11 0
BBX 9 10 1 -2
BITMAP
0400
9F00
4400
3F80
4800
B580
8400
BF00
8400
BF80
ENDCHAR
STARTCHAR 34D1
ENCODING 13521
SWIDTH 990 0
DWIDTH 11 0
BBX 9 9 1 -1
BITMAP
0400
BF00
4400
7F80
9200
BF00
8400
FF80
8400
ENDCHAR
STARTCHAR 34D2
ENCODING 13522
SWIDTH 990 0
DWIDTH 11 0
BBX 9 9 1 0
BITMAP
6800
4F00
D900
1F00
2400
D380
9200
9500
1000
ENDCHAR
STARTCHAR 34D3
ENCODING 13523
SWIDTH 900 0
DWIDTH 10 0
BBX 8 9 1 -1
BITMAP
05
BF
C8
7F
A9
BF
BF
A5
A5
ENDCHAR
STARTCHAR 34D4
ENCODING 13524
SWIDTH 900 0
DWIDTH 10 0
BBX 10 10 0 -2
BITMAP
0800
0880
DC80
3480
5DC0
5D80
5580
4C80
4C80
D480
ENDCHAR
STARTCHAR 34D5
ENCODING 13525
SWIDTH 990 0
DWIDTH 11 0
BBX 9 10 1 -1
BITMAP
0400
0500
BF80
7C00
AD00
AD00
AE00
D200
CD80
1080
ENDCHAR
STARTCHAR 34D6
ENCODING 13526
SWIDTH 990 0
DWIDTH 11 0
BBX 9 10 1 -1
BITMAP
3F80
2480
FF80
7F80
9500
BF80
BF80
8400
BF80
0400
ENDCHAR
STARTCHAR 34D7
ENCODING 13527
SWIDTH 990 0
DWIDTH 11 0
BBX 9 10 1 -2
BITMAP
1000
3B80
BA80
7E80
9900
9200
9C00
BF00
A700
4C00
ENDCHAR
STARTCHAR 34D8
ENCODING 13528
SWIDTH 990 0
DWIDTH 11 0
BBX 10 9 1 -1
BITMAP
7F00
7F00
5D00
4500
5900
7F00
5D40
8C80
BE80
ENDCHAR
STARTCHAR 34D9
ENCODING 13529
SWIDTH 990 0
DWIDTH 11 0
BBX 9 10 1 -1
BITMAP
0800
8880
BF80
8080
9480
8880
9480
A280
FF80
0080
ENDCHAR
STARTCHAR 34DA
ENCODING 13530
SWIDTH 990 0
DWIDTH 11 0
BBX 9 10 1 -2
BITMAP
0080
FA80
2280
2280
2280
2280
2280
3880
C080
0080
ENDCHAR
STARTCHAR 34DB
ENCODING 13531
SWIDTH 900 0
DWIDTH 10 0
BBX 9 10 0 -1
BITMAP
0780
FA80
2280
2280
2280
2480
2C80
D480
0B80
1100
ENDCHAR
STARTCHAR 34DC
ENCODING 13532
SWIDTH 990 0
DWIDTH 11 0
BBX 10 10 0 -2
BITMAP
2000
2FC0
4240
9240
E240
2440
5440
EC40
0840
0180
ENDCHAR
STARTCHAR 34DD
ENCODING 13533
SWIDTH 990 0
DWIDTH 11 0
BBX 9 10 1 -1
BITMAP
5080
5280
FA80
5280
5280
FE80
5280
5080
9080
1180
ENDCHAR
STARTCHAR 34DE
ENCODING 13534
SWIDTH 990 0
DWIDTH 11 0
BBX 9 11 1 -2
BITMAP
2000
2780
FA80
2280
FA80
2280
2480
FC80
2480
2880
2100
ENDCHAR
STARTCHAR 34DF
ENCODING 13535
SWIDTH 900 0
DWIDTH 10 0
BBX 9 9 0 -1
BITMAP
1080
1080
7E80
5280
7E80
4A80
4A80
5A80
A480
ENDCHAR
STARTCHAR 34E0
ENCODING 13536
SWIDTH 990 0
DWIDTH 11 0
BBX 9 9 1 -1
BITMAP
2080
2280
3A80
2280
FA80
8A80
8A80
F880
8180
ENDCHAR
STARTCHAR 34E1
ENCODING 13537
SWIDTH 990 0
DWIDTH 11 0
BBX 10 10 0 -2
BITMAP
2040
4040
7D40
1140
FD40
1540
5540
5540
5C40
60C0
ENDCHAR
STARTCHAR 34E2
ENCODING 13538
SWIDTH 990 0
DWIDTH 11 0
BBX 9 9 1 -1
BITMAP
2080
7A80
5280
9280
6A80
FA80
4A80
7880
4980
ENDCHAR
STARTCHAR 34E3
ENCODING 13539
SWIDTH 990 0
DWIDTH 11 0
BBX 9 10 1 -1
BITMAP
2080
5A80
4680
FA80
0280
7A80
4A80
4880
7980
4000
ENDCHAR
STARTCHAR 34E4
ENCODING 13540
SWIDTH 990 0
DWIDTH 11 0
BBX 9 10 1 -2
BITMAP
2080
2080
FE80
2280
FA80
FA80
8A80
8880
F880
8980
ENDCHAR
STARTCHAR 34E5
ENCODING 13541
SWIDTH 990 0
DWIDTH 11 0
BBX 10 9 0 -1
BITMAP
1440
5540
5940
7D40
0540
7D40
0540
FC40
04C0
ENDCHAR
STARTCHAR 34E6
ENCODING 13542
SWIDTH 990 0
DWIDTH 11 0
BBX 9 10 1 -2
BITMAP
0080
F880
4280
FA80
8A80
8A80
FA80
8A80
F880
8980
ENDCHAR
STARTCHAR 34E7
ENCODING 13543
SWIDTH 990 0
DWIDTH 11 0
BBX 9 10 1 -1
BITMAP
2080
5280
A280
FA80
1280
FA80
8A80
8880
FB80
8800
ENDCHAR
STARTCHAR 34E8
ENCODING 13544
SWIDTH 990 0
DWIDTH 11 0
BBX 10 11 0 -1
BITMAP
1040
1040
7D40
5140
5D40
B940
9140
2940
2440
41C0
8000
ENDCHAR
STARTCHAR 34E9
ENCODING 13545
SWIDTH 900 0
DWIDTH 10 0
BBX 9 9 0 -1
BITMAP
2080
3880
5280
7E80
5680
7E80
7E80
5680
9480
ENDCHAR
STARTCHAR 34EA
ENCODING 13546
SWIDTH 990 0
DWIDTH 11 0
BBX 9 8 1 0
BITMAP
F780
F280
9280
F280
8280
A480
D880
1300
ENDCHAR
STARTCHAR 34EB
ENCODING 13547
SWIDTH 900 0
DWIDTH 10 0
BBX 9 10 0 -2
BITMAP
1000
1080
7E80
2680
FE80
2A80
FE80
2A80
4880
0880
ENDCHAR
STARTCHAR 34EC
ENCODING 13548
SWIDTH 1080 0
DWIDTH 12 0
BBX 10 10 1 -1
BITMAP
48C0
2080
7E80
FE80
4A80
BA80
2880
4880
4880
9080
ENDCHAR
STARTCHAR 34ED
ENCODING 13549
SWIDTH 990 0
DWIDTH 11 0
BBX 9 10 1 -1
BITMAP
F880
FA80
8A80
FA80
7A80
CA80
BA80
E880
2B80
1000
ENDCHAR
STARTCHAR 34EE
ENCODING 13550
SWIDTH 990 0
DWIDTH 11 0
BBX 10 10 0 -1
BITMAP
7C40
5540
7D40
5540
4540
7D40
6D40
7C40
8440
84C0
ENDCHAR
STARTCHAR 34EF
ENCODING 13551
SWIDTH 990 0
DWIDTH 11 0
BBX 9 10 1 0
BITMAP
2880
D280
B280
2A80
FA80
AA80
FA80
A880
F880
8900
ENDCHAR
STARTCHAR 34F0
ENCODING 13552
SWIDTH 990 0
DWIDTH 11 0
BBX 9 11 1 -3
BITMAP
0080
7C80
2280
7A80
EE80
FE80
EE80
FE80
8480
FC80
0180
ENDCHAR
STARTCHAR 34F1
ENCODING 13553
SWIDTH 990 0
DWIDTH 11 0
BBX 9 10 1 -1
BITMAP
3080
4E80
7680
EA80
BA80
FA80
FA80
B880
A880
8100
ENDCHAR
STARTCHAR 34F2
ENCODING 13554
SWIDTH 990 0
DWIDTH 11 0
BBX 9 10 1 -1
BITMAP
0080
7C80
4680
7E80
7E80
6E80
7E80
EC80
6C80
4480
ENDCHAR
STARTCHAR 34F3
ENCODING 13555
SWIDTH 1080 0
DWIDTH 12 0
BBX 10 10 0 -1
BITMAP
3C40
2540
3D40
3D40
0140
7D40
7C40
7040
50C0
8FC0
ENDCHAR
STARTCHAR 34F4
ENCODING 13556
SWIDTH 990 0
DWIDTH 11 0
BBX 10 9 0 -1
BITMAP
7C40
7D40
6D40
6D40
1540
FD40
2140
2840
44C0
ENDCHAR
STARTCHAR 34F5
ENCODING 13557
SWIDTH 990 0
DWIDTH 11 0
BBX 9 10 1 -1
BITMAP
D880
D880
DA80
FA80
FA80
8280
7A80
1280
1080
2180
ENDCHAR
STARTCHAR 34F6
ENCODING 13558
SWIDTH 990 0
DWIDTH 11 0
BBX 9 10 1 -1
BITMAP
4080
5C80
EC80
EE80
F680
4680
6280
FE80
3080
4080
ENDCHAR
STARTCHAR 34F7
ENCODING 13559
SWIDTH 990 0
DWIDTH 11 0
BBX 9 10 1 -1
BITMAP
0080
7880
7A80
4A80
7A80
7A80
FA80
2280
6880
A180
ENDCHAR
STARTCHAR 34F8
ENCODING 13560
SWIDTH 990 0
DWIDTH 11 0
BBX 9 11 1 -2
BITMAP
0080
FC80
B680
FE80
3280
FE80
8A80
FA80
3080
3C80
C100
ENDCHAR
STARTCHAR 34F9
ENCODING 13561
SWIDTH 990 0
DWIDTH 11 0
BBX 10 10 0 -1
BITMAP
7E40
4940
4D40
6940
5540
4940
4D40
A840
1440
2080
ENDCHAR
STARTCHAR 34FA
ENCODING 13562
SWIDTH 990 0
DWIDTH 11 0
BBX 9 11 1 -1
BITMAP
2080
3880
FC80
B280
E280
BA80
FA80
9280
B080
2880
0100
ENDCHAR
STARTCHAR 34FB
ENCODING 13563
SWIDTH 990 0
DWIDTH 11 0
BBX 10 10 0 -2
BITMAP
0040
7C40
6D40
5540
7D40
1140
5D40
5040
5C40
F0C0
ENDCHAR
STARTCHAR 34FC
ENCODING 13564
SWIDTH 990 0
DWIDTH 11 0
BBX 9 10 1 0
BITMAP
2080
F880
7280
2A80
2280
5A80
6A80
3080
E880
2180
ENDCHAR
STARTCHAR 34FD
ENCODING 13565
SWIDTH 990 0
DWIDTH 11 0
BBX 9 10 1 -2
BITMAP
2080
A880
FA80
2280
FA80
F280
FA80
2280
B880
6B80
ENDCHAR
STARTCHAR 34FE
ENCODING 13566
SWIDTH 990 0
DWIDTH 11 0
BBX 10 9 0 -1
BITMAP
7C40
7D40
6D40
5D40
6540
7940
BC40
8840
88C0
ENDCHAR
STARTCHAR 34FF
ENCODING 13567
SWIDTH 990 0
DWIDTH 11 0
BBX 9 8 1 -1
BITMAP
7D80
1180
7980
3180
5D80
3D80
3880
D480
ENDCHAR
STARTCHAR 3500
ENCODING 13568
SWIDTH 990 0
DWIDTH 11 0
BBX 9 10 1 -1
BITMAP
F880
F280
F280
FA80
F280
8A80
FA80
2280
A880
0100
ENDCHAR
STARTCHAR 3501
ENCODING 13569
SWIDTH 990 0
DWIDTH 11 0
BBX 9 10 1 -1
BITMAP
0080
E880
AE80
7680
8280
7A80
7A80
0280
1880
E180
ENDCHAR
STARTCHAR 3502
ENCODING 13570
SWIDTH 990 0
DWIDTH 11 0
BBX 10 10 0 0
BITMAP
1440
1940
7D40
3140
5140
6D40
AD40
3E40
4440
0480
ENDCHAR
STARTCHAR 3503
ENCODING 13571
SWIDTH 1080 0
DWIDTH 12 0
BBX 10 11 1 -2
BITMAP
2200
4300
5500
2FC0
4780
1440
A7C0
FFC0
1080
2100
4100
ENDCHAR
STARTCHAR 3504
ENCODING 13572
SWIDTH 990 0
DWIDTH 11 0
BBX 9 9 1 0
BITMAP
FC80
FA80
DA80
FA80
2A80
FE80
6280
B880
2180
ENDCHAR
STARTCHAR 3505
ENCODING 13573
SWIDTH 990 0
DWIDTH 11 0
BBX 10 10 0 -1
BITMAP
1040
3C40
7F40
3D40
7D40
7D40
7D40
5540
7C40
94C0
ENDCHAR
STARTCHAR 3506
ENCODING 13574
SWIDTH 990 0
DWIDTH 11 0
BBX 10 11 0 -2
BITMAP
0040
7E40
6D40
FF40
6540
2D40
7D40
4540
7C40
7C40
4480
ENDCHAR
STARTCHAR 3507
ENCODING 13575
SWIDTH 990 0
DWIDTH 11 0
BBX 9 10 1 -2
BITMAP
0080
7480
4A80
FE80
3A80
FE80
FA80
4A80
4880
5180
ENDCHAR
STARTCHAR 3508
ENCODING 13576
SWIDTH 990 0
DWIDTH 11 0
BBX 10 10 0 -1
BITMAP
2840
7C40
2940
6F40
2940
6D40
2940
EF40
2840
28C0
ENDCHAR
STARTCHAR 3509
ENCODING 13577
SWIDTH 990 0
DWIDTH 11 0
BBX 10 10 0 -1
BITMAP
7C40
7D40
4140
7D40
7D40
7F40
4B40
D240
C3C0
0400
ENDCHAR
STARTCHAR 350A
ENCODING 13578
SWIDTH 990 0
DWIDTH 11 0
BBX 9 10 1 -1
BITMAP
2080
F880
FA80
EA80
FA80
7280
7280
7080
0080
F100
ENDCHAR
STARTCHAR 350B
ENCODING 13579
SWIDTH 990 0
DWIDTH 11 0
BBX 9 10 1 -1
BITMAP
A880
D080
BE80
F280
C280
FE80
B680
B480
B480
4980
ENDCHAR
STARTCHAR 350C
ENCODING 13580
SWIDTH 900 0
DWIDTH 10 0
BBX 9 10 0 -1
BITMAP
7080
AC80
6580
6D80
3D80
7980
5180
1880
5080
9080
ENDCHAR
STARTCHAR 350D
ENCODING 13581
SWIDTH 990 0
DWIDTH 11 0
BBX 9 11 1 -2
BITMAP
0880
7C80
A680
7A80
7A80
7A80
7A80
2A80
FE80
4880
0880
ENDCHAR
STARTCHAR 350E
ENCODING 13582
SWIDTH 990 0
DWIDTH 11 0
BBX 9 11 1 -1
BITMAP
A200
D780
F500
FF80
F200
FF80
F200
FF80
2100
2100
C200
ENDCHAR
STARTCHAR 350F
ENCODING 13583
SWIDTH 990 0
DWIDTH 11 0
BBX 10 10 0 -1
BITMAP
7E40
2040
3D40
FD40
1340
6D40
7F40
DA40
7FC0
4800
ENDCHAR
STARTCHAR 3510
ENCODING 13584
SWIDTH 900 0
DWIDTH 10 0
BBX 9 11 0 -1
BITMAP
4880
5E80
FC80
3180
3180
3580
ED80
6D80
EC80
3080
CC80
ENDCHAR
STARTCHAR 3511
ENCODING 13585
SWIDTH 1080 0
DWIDTH 12 0
BBX 10 11 1 -1
BITMAP
3600
FFC0
4000
FF80
FFC0
9F80
F100
FF80
1080
2080
C300
ENDCHAR
STARTCHAR 3512
ENCODING 13586
SWIDTH 990 0
DWIDTH 11 0
BBX 9 10 1 -1
BITMAP
A880
F880
7A80
FA80
FE80
FE80
B480
B480
8780
8800
ENDCHAR
STARTCHAR 3513
ENCODING 13587
SWIDTH 990 0
DWIDTH 11 0
BBX 9 10 1 -2
BITMAP
0200
7200
2200
2780
FA80
2280
2280
2480
2480
2900
ENDCHAR
STARTCHAR 3514
ENCODING 13588
SWIDTH 1080 0
DWIDTH 12 0
BBX 10 11 1 -1
BITMAP
2000
2FC0
FC40
2C40
4FC0
5400
BF00
4100
4080
4080
3F00
ENDCHAR
STARTCHAR 3515
ENCODING 13589
SWIDTH 1080 0
DWIDTH 12 0
BBX 10 10 1 -1
BITMAP
4200
4200
FA00
F7C0
F240
1240
1240
1C40
0C40
0980
ENDCHAR
STARTCHAR 3516
ENCODING 13590
SWIDTH 990 0
DWIDTH 11 0
BBX 9 11 1 -1
BITMAP
2000
2B80
FA80
2A80
4B80
1200
7F80
0080
0080
0080
0080
ENDCHAR
STARTCHAR 3517
ENCODING 13591
SWIDTH 990 0
DWIDTH 11 0
BBX 10 10 0 -2
BITMAP
3100
3100
3FC0
7D40
B140
FD40
3640
5640
5440
1480
ENDCHAR
STARTCHAR 3518
ENCODING 13592
SWIDTH 990 0
DWIDTH 11 0
BBX 9 10 1 -2
BITMAP
2200
AA00
AF80
FA80
2280
AA80
AC80
AC80
DC80
0900
ENDCHAR
STARTCHAR 3519
ENCODING 13593
SWIDTH 990 0
DWIDTH 11 0
BBX 9 10 1 -1
BITMAP
0200
5200
FA80
5780
5280
FA80
5280
5480
9480
9B80
ENDCHAR
STARTCHAR 351A
ENCODING 13594
SWIDTH 990 0
DWIDTH 11 0
BBX 9 10 1 -1
BITMAP
1200
E200
2200
2F80
FA80
2280
F280
9480
F480
8980
ENDCHAR
STARTCHAR 351B
ENCODING 13595
SWIDTH 990 0
DWIDTH 11 0
BBX 10 10 1 -1
BITMAP
0800
FFC0
7F00
7F00
4100
7F00
FF80
1100
2100
C300
ENDCHAR
STARTCHAR 351C
ENCODING 13596
SWIDTH 990 0
DWIDTH 11 0
BBX 9 10 1 -2
BITMAP
7200
AA00
B780
FA80
2280
2A80
F480
2480
2880
6100
ENDCHAR
STARTCHAR 351D
ENCODING 13597
SWIDTH 1080 0
DWIDTH 12 0
BBX 10 10 1 -1
BITMAP
0900
F900
2100
FBC0
A940
E940
F940
AA40
AA40
8C80
ENDCHAR
STARTCHAR 351E
ENCODING 13598
SWIDTH 990 0
DWIDTH 11 0
BBX 9 10 1 -1
BITMAP
0A00
7200
FB80
7280
FA80
7680
FC80
6C80
2880
2900
ENDCHAR
STARTCHAR 351F
ENCODING 13599
SWIDTH 1080 0
DWIDTH 12 0
BBX 10 11 1 -2
BITMAP
2200
6200
7F80
A300
7300
24C0
C040
7F80
1080
1080
E100
ENDCHAR
STARTCHAR 3520
ENCODING 13600
SWIDTH 990 0
DWIDTH 11 0
BBX 10 10 0 -2
BITMAP
7D00
7940
4BC0
7940
3D40
E540
4640
7640
0440
0C80
ENDCHAR
STARTCHAR 3521
ENCODING 13601
SWIDTH 990 0
DWIDTH 11 0
BBX 9 10 1 -2
BITMAP
0200
FA00
BF80
DA80
FA80
9280
D480
9480
BC80
D900
ENDCHAR
STARTCHAR 3522
ENCODING 13602
SWIDTH 990 0
DWIDTH 11 0
BBX 10 10 0 0
BITMAP
2200
4700
6FC0
4780
2440
AFC0
7FC0
1080
1080
6100
ENDCHAR
STARTCHAR 3523
ENCODING 13603
SWIDTH 990 0
DWIDTH 11 0
BBX 9 9 1 -1
BITMAP
7200
7200
7380
4280
DA80
DC80
5C80
5C80
8980
ENDCHAR
STARTCHAR 3524
ENCODING 13604
SWIDTH 1080 0
DWIDTH 12 0
BBX 10 11 1 -1
BITMAP
1100
1100
7D00
73C0
5940
F940
3940
7A40
7A40
5D40
6080
ENDCHAR
STARTCHAR 3525
ENCODING 13605
SWIDTH 1080 0
DWIDTH 12 0
BBX 10 9 1 -1
BITMAP
F900
D900
ABC0
5940
B140
F940
FA40
F240
DCC0
ENDCHAR
STARTCHAR 3526
ENCODING 13606
SWIDTH 990 0
DWIDTH 11 0
BBX 9 11 1 -2
BITMAP
8000
A200
FF00
FA80
2280
5280
F480
F480
D480
F980
8000
ENDCHAR
STARTCHAR 3527
ENCODING 13607
SWIDTH 990 0
DWIDTH 11 0
BBX 10 11 0 -1
BITMAP
1100
1D00
7D00
5BC0
5D40
7D40
7940
4240
BE40
BFC0
8480
ENDCHAR
STARTCHAR 3528
ENCODING 13608
SWIDTH 990 0
DWIDTH 11 0
BBX 9 9 1 0
BITMAP
6000
7F80
F480
3880
FC80
7C80
7C80
4480
4900
ENDCHAR
STARTCHAR 3529
ENCODING 13609
SWIDTH 990 0
DWIDTH 11 0
BBX 9 9 1 -1
BITMAP
6000
7F80
9080
2C80
2080
3880
6C80
6E80
1100
ENDCHAR
STARTCHAR 352A
ENCODING 13610
SWIDTH 990 0
DWIDTH 11 0
BBX 10 11 0 -2
BITMAP
1000
1000
3FC0
4F40
FF40
6D40
7940
4D40
7F40
4040
0180
ENDCHAR
STARTCHAR 352B
ENCODING 13611
SWIDTH 990 0
DWIDTH 11 0
BBX 9 10 1 -2
BITMAP
1000
1000
1080
FF80
1000
1800
2A00
2C80
4880
8F80
ENDCHAR
STARTCHAR 352C
ENCODING 13612
SWIDTH 990 0
DWIDTH 11 0
BBX 10 10 0 -2
BITMAP
2300
3C80
3F80
3F80
3F80
2080
3F80
FFC0
0400
0400
ENDCHAR
STARTCHAR 352D
ENCODING 13613
SWIDTH 1080 0
DWIDTH 12 0
BBX 9 10 1 -1
BITMAP
8F00
8900
8F00
8F00
E900
9F80
8200
9380
DA00
2780
ENDCHAR
STARTCHAR 352E
ENCODING 13614
SWIDTH 1080 0
DWIDTH 12 0
BBX 10 10 1 -2
BITMAP
A100
FB80
ED40
FFC0
4F00
EB00
6F80
8B40
BB40
09C0
ENDCHAR
STARTCHAR 352F
ENCODING 13615
SWIDTH 990 0
DWIDTH 11 0
BBX 9 9 1 -1
BITMAP
FF80
9E00
9200
9200
A380
BE00
A200
BE00
FF80
ENDCHAR
STARTCHAR 3530
ENCODING 13616
SWIDTH 990 0
DWIDTH 11 0
BBX 9 9 1 -1
BITMAP
FF00
9200
9E00
AA00
9B80
9200
9200
A200
FF80
ENDCHAR
STARTCHAR 3531
ENCODING 13617
SWIDTH 990 0
DWIDTH 11 0
BBX 9 9 1 -1
BITMAP
FF80
8800
EB00
EB00
BF00
9400
A300
C080
FF80
ENDCHAR
STARTCHAR 3532
ENCODING 13618
SWIDTH 990 0
DWIDTH 11 0
BBX 9 9 1 -1
BITMAP
FF00
9200
8A00
BB00
BB00
BB00
A500
B980
FF80
ENDCHAR
STARTCHAR 3533
ENCODING 13619
SWIDTH 990 0
DWIDTH 11 0
BBX 9 9 1 -1
BITMAP
FF00
A700
C500
F500
F500
F500
D980
F180
FF80
ENDCHAR
STARTCHAR 3534
ENCODING 13620
SWIDTH 990 0
DWIDTH 11 0
BBX 9 9 1 -1
BITMAP
FF00
BF00
BF00
BF00
BF00
BF80
9200
8100
FF80
ENDCHAR
STARTCHAR 3535
ENCODING 13621
SWIDTH 990 0
DWIDTH 11 0
BBX 9 9 1 -1
BITMAP
FF80
BF00
BF00
BF00
BF00
FF80
9A00
A180
FF80
ENDCHAR
STARTCHAR 3536
ENCODING 13622
SWIDTH 990 0
DWIDTH 11 0
BBX 9 9 1 -1
BITMAP
FF80
9F80
8580
BF80
AF00
9700
FF00
9580
FF80
ENDCHAR
STARTCHAR 3537
ENCODING 13623
SWIDTH 990 0
DWIDTH 11 0
BBX 9 9 1 -1
BITMAP
FF00
FF00
BF00
A500
A500
AB00
B100
A100
FF80
ENDCHAR
STARTCHAR 3538
ENCODING 13624
SWIDTH 990 0
DWIDTH 11 0
BBX 9 9 1 -1
BITMAP
FF80
BC00
BF00
B400
BE00
B700
DA00
CA00
FF80
ENDCHAR
STARTCHAR 3539
ENCODING 13625
SWIDTH 990 0
DWIDTH 11 0
BBX 10 10 0 -1
BITMAP
2200
2200
27C0
FA40
2240
2240
2440
2440
2840
2180
ENDCHAR
STARTCHAR 353A
ENCODING 13626
SWIDTH 990 0
DWIDTH 11 0
BBX 11 10 0 -1
BITMAP
0400
0400
7FC0
0400
2100
FFE0
2100
2140
2040
3FC0
ENDCHAR
STARTCHAR 353B
ENCODING 13627
SWIDTH 990 0
DWIDTH 11 0
BBX 9 10 1 -1
BITMAP
FF80
0800
1800
2B80
C880
0800
FF80
0800
0800
0800
ENDCHAR
STARTCHAR 353C
ENCODING 13628
SWIDTH 990 0
DWIDTH 11 0
BBX 9 10 1 -2
BITMAP
4000
4A00
FF80
5F00
DF80
5F80
0800
FF80
0800
0800
ENDCHAR
STARTCHAR 353D
ENCODING 13629
SWIDTH 990 0
DWIDTH 11 0
BBX 9 11 1 -2
BITMAP
1000
1F80
1000
FF00
BD00
A500
A500
BD00
8100
FF00
8100
ENDCHAR
STARTCHAR 353E
ENCODING 13630
SWIDTH 990 0
DWIDTH 11 0
BBX 9 9 1 0
BITMAP
FE00
8200
8200
8200
8200
8600
8080
8080
FF80
ENDCHAR
STARTCHAR 353F
ENCODING 13631
SWIDTH 990 0
DWIDTH 11 0
BBX 10 10 0 -1
BITMAP
FFC0
2100
2100
2100
2100
2100
3F00
0100
0100
0100
ENDCHAR
STARTCHAR 3540
ENCODING 13632
SWIDTH 990 0
DWIDTH 11 0
BBX 9 10 1 0
BITMAP
1000
FE00
9200
FE00
FE00
FE00
8200
8200
8480
FF80
ENDCHAR
STARTCHAR 3541
ENCODING 13633
SWIDTH 1080 0
DWIDTH 12 0
BBX 10 10 1 -2
BITMAP
0800
73C0
1240
2A40
FA40
3240
5240
62C0
AA00
3200
ENDCHAR
STARTCHAR 3542
ENCODING 13634
SWIDTH 1080 0
DWIDTH 12 0
BBX 10 10 1 -1
BITMAP
7FC0
4400
4C00
4A00
5580
5F00
8100
8200
8400
0400
ENDCHAR
STARTCHAR 3543
ENCODING 13635
SWIDTH 990 0
DWIDTH 11 0
BBX 9 9 1 -1
BITMAP
7F80
5F00
4A00
4A00
7F80
4A00
4A00
9200
8200
ENDCHAR
STARTCHAR 3544
ENCODING 13636
SWIDTH 900 0
DWIDTH 10 0
BBX 9 9 0 -1
BITMAP
7F80
4000
5F80
4400
4900
5200
4C00
5800
9F80
ENDCHAR
STARTCHAR 3545
ENCODING 13637
SWIDTH 990 0
DWIDTH 11 0
BBX 9 9 1 -1
BITMAP
7F80
7F80
6480
7F80
6480
7F80
A480
8400
0400
ENDCHAR
STARTCHAR 3546
ENCODING 13638
SWIDTH 1080 0
DWIDTH 12 0
BBX 11 10 0 -1
BITMAP
3FE0
2200
2200
3FE0
2200
2FC0
4840
4840
4FC0
8840
ENDCHAR
STARTCHAR 3547
ENCODING 13639
SWIDTH 1080 0
DWIDTH 12 0
BBX 10 9 1 -1
BITMAP
7FC0
4000
4400
7F80
4100
4900
8A00
8200
BFC0
ENDCHAR
STARTCHAR 3548
ENCODING 13640
SWIDTH 1080 0
DWIDTH 12 0
BBX 11 9 0 -1
BITMAP
3FC0
2000
3FE0
2200
2660
2D80
5480
4540
8600
ENDCHAR
STARTCHAR 3549
ENCODING 13641
SWIDTH 1080 0
DWIDTH 12 0
BBX 9 9 1 -1
BITMAP
7F80
4400
4A00
5180
7F80
4000
9F00
9100
9F00
ENDCHAR
STARTCHAR 354A
ENCODING 13642
SWIDTH 990 0
DWIDTH 11 0
BBX 10 10 0 -2
BITMAP
3FC0
2280
2FC0
2200
2FC0
2FC0
2FC0
4A40
4A40
8A40
ENDCHAR
STARTCHAR 354B
ENCODING 13643
SWIDTH 1080 0
DWIDTH 12 0
BBX 10 9 1 -1
BITMAP
7F80
4400
4A00
5180
7F80
4400
7F80
9500
BFC0
ENDCHAR
STARTCHAR 354C
ENCODING 13644
SWIDTH 990 0
DWIDTH 11 0
BBX 9 9 1 -1
BITMAP
7F80
5F00
5F00
5100
5F00
7F00
BF80
8200
8200
ENDCHAR
STARTCHAR 354D
ENCODING 13645
SWIDTH 990 0
DWIDTH 11 0
BBX 9 10 1 -1
BITMAP
7F80
4000
5000
5F80
7F00
5200
9F80
9200
9F80
1000
ENDCHAR
STARTCHAR 354E
ENCODING 13646
SWIDTH 1080 0
DWIDTH 12 0
BBX 10 10 1 -1
BITMAP
7FC0
4400
5F00
7FC0
4900
5E00
BF80
AA80
AAC0
1500
ENDCHAR
STARTCHAR 354F
ENCODING 13647
SWIDTH 1080 0
DWIDTH 12 0
BBX 10 9 1 -1
BITMAP
7FC0
7A80
7880
6C80
7A80
6080
4F80
9080
0080
ENDCHAR
STARTCHAR 3550
ENCODING 13648
SWIDTH 990 0
DWIDTH 11 0
BBX 9 10 1 -1
BITMAP
7F80
7300
6100
7B00
7F00
5F80
A280
AC80
8880
0100
ENDCHAR
STARTCHAR 3551
ENCODING 13649
SWIDTH 1080 0
DWIDTH 12 0
BBX 10 9 1 0
BITMAP
7FC0
7C80
5080
7FC0
7C80
7E80
6480
8880
1100
ENDCHAR
STARTCHAR 3552
ENCODING 13650
SWIDTH 990 0
DWIDTH 11 0
BBX 10 10 0 -1
BITMAP
7FC0
5F80
5F80
7FC0
4A80
7FC0
4E00
B980
8B00
10C0
ENDCHAR
STARTCHAR 3553
ENCODING 13651
SWIDTH 990 0
DWIDTH 11 0
BBX 10 9 0 0
BITMAP
7F80
5D80
5F80
5F80
7FC0
6000
8400
9F80
BFC0
ENDCHAR
STARTCHAR 3554
ENCODING 13652
SWIDTH 900 0
DWIDTH 10 0
BBX 10 10 0 -1
BITMAP
7F80
7840
7B80
7940
6FC0
5DC0
5FC0
7A80
BE00
8B80
ENDCHAR
STARTCHAR 3555
ENCODING 13653
SWIDTH 990 0
DWIDTH 11 0
BBX 8 10 2 -1
BITMAP
10
20
44
82
FD
10
20
42
81
7F
ENDCHAR
STARTCHAR 3556
ENCODING 13654
SWIDTH 1080 0
DWIDTH 12 0
BBX 10 11 1 -2
BITMAP
0800
1000
3E00
2000
4400
F780
0800
FFC0
1C00
6B00
0880
ENDCHAR
STARTCHAR 3557
ENCODING 13655
SWIDTH 990 0
DWIDTH 11 0
BBX 9 10 1 -1
BITMAP
5000
FA00
2200
7A00
FD00
9480
9700
3000
4C00
8380
ENDCHAR
STARTCHAR 3558
ENCODING 13656
SWIDTH 990 0
DWIDTH 11 0
BBX 10 11 0 -3
BITMAP
0C00
1100
1F00
1000
D3C0
6C40
1200
65C0
2500
4480
0C00
ENDCHAR
STARTCHAR 3559
ENCODING 13657
SWIDTH 990 0
DWIDTH 11 0
BBX 10 10 0 -1
BITMAP
2200
4B80
7D00
07C0
4E40
7FC0
5500
1300
6500
89C0
ENDCHAR
STARTCHAR 355A
ENCODING 13658
SWIDTH 990 0
DWIDTH 11 0
BBX 9 10 1 -1
BITMAP
7F00
2100
2900
2A00
6200
5400
0800
1400
2300
C080
ENDCHAR
STARTCHAR 355B
ENCODING 13659
SWIDTH 900 0
DWIDTH 10 0
BBX 9 10 0 -1
BITMAP
3F00
0200
0C00
3380
7F00
2100
1200
0C00
1200
E180
ENDCHAR
STARTCHAR 355C
ENCODING 13660
SWIDTH 990 0
DWIDTH 11 0
BBX 9 11 1 -2
BITMAP
1000
1000
FF00
9100
FF00
1000
FF00
4200
2C00
3C00
C380
ENDCHAR
STARTCHAR 355D
ENCODING 13661
SWIDTH 990 0
DWIDTH 11 0
BBX 10 11 0 -1
BITMAP
0400
FFC0
0400
3F80
2080
3F80
7F80
1100
0E00
19C0
E040
ENDCHAR
STARTCHAR 355E
ENCODING 13662
SWIDTH 990 0
DWIDTH 11 0
BBX 10 9 0 -1
BITMAP
7FC0
4440
7E80
5280
7E80
7700
B500
9280
1440
ENDCHAR
STARTCHAR 355F
ENCODING 13663
SWIDTH 1080 0
DWIDTH 12 0
BBX 10 10 1 -1
BITMAP
2000
27C0
3C80
2480
FC80
EB00
F900
E900
CB00
94C0
ENDCHAR
STARTCHAR 3560
ENCODING 13664
SWIDTH 1080 0
DWIDTH 12 0
BBX 9 10 1 -1
BITMAP
9400
1F80
5400
9F00
9F80
FE00
2400
1800
1800
E780
ENDCHAR
STARTCHAR 3561
ENCODING 13665
SWIDTH 990 0
DWIDTH 11 0
BBX 10 10 0 -1
BITMAP
2000
3BC0
7E80
F280
1280
2280
5900
FD00
4A80
7840
ENDCHAR
STARTCHAR 3562
ENCODING 13666
SWIDTH 990 0
DWIDTH 11 0
BBX 10 10 1 -1
BITMAP
1000
1BC0
7E80
FA80
7A80
8A80
7900
7900
7900
4A80
ENDCHAR
STARTCHAR 3563
ENCODING 13667
SWIDTH 1080 0
DWIDTH 12 0
BBX 10 10 1 -1
BITMAP
0400
1400
2200
4100
80C0
7F00
4100
4100
7F00
4100
ENDCHAR
STARTCHAR 3564
ENCODING 13668
SWIDTH 1080 0
DWIDTH 12 0
BBX 10 10 1 -2
BITMAP
0800
0800
E800
BF00
AA00
AA00
F200
9240
1240
23C0
ENDCHAR
STARTCHAR 3565
ENCODING 13669
SWIDTH 1080 0
DWIDTH 12 0
BBX 10 10 1 -2
BITMAP
0400
E400
A400
A400
A400
AA00
EA00
B100
1080
20C0
ENDCHAR
STARTCHAR 3566
ENCODING 13670
SWIDTH 1080 0
DWIDTH 12 0
BBX 11 10 0 0
BITMAP
3F80
2080
2080
3F80
0400
7FE0
0C00
0B00
10C0
E000
ENDCHAR
STARTCHAR 3567
ENCODING 13671
SWIDTH 990 0
DWIDTH 11 0
BBX 9 10 1 -1
BITMAP
2F80
E880
A880
AF80
A800
E800
A800
1000
1000
2000
ENDCHAR
STARTCHAR 3568
ENCODING 13672
SWIDTH 1080 0
DWIDTH 12 0
BBX 10 9 1 -1
BITMAP
EF00
A900
A900
AD00
AB00
E900
1140
1140
21C0
ENDCHAR
STARTCHAR 3569
ENCODING 13673
SWIDTH 1080 0
DWIDTH 12 0
BBX 10 10 1 -2
BITMAP
0200
EF80
A200
AF80
A200
E200
BFC0
8200
0200
0200
ENDCHAR
STARTCHAR 356A
ENCODING 13674
SWIDTH 990 0
DWIDTH 11 0
BBX 9 10 1 -2
BITMAP
0400
E400
AF80
B500
A600
A600
EA00
0A00
1280
0380
ENDCHAR
STARTCHAR 356B
ENCODING 13675
SWIDTH 1080 0
DWIDTH 12 0
BBX 10 10 1 -2
BITMAP
0400
0200
FFC0
A400
A780
A480
E880
A880
1080
0100
ENDCHAR
STARTCHAR 356C
ENCODING 13676
SWIDTH 1080 0
DWIDTH 12 0
BBX 10 11 1 -2
BITMAP
0200
0200
EA00
A900
A900
B2C0
A400
E400
A900
0880
0F80
ENDCHAR
STARTCHAR 356D
ENCODING 13677
SWIDTH 1080 0
DWIDTH 12 0
BBX 10 10 1 -2
BITMAP
0100
2E00
E400
A400
BFC0
A600
E600
A900
0900
10C0
ENDCHAR
STARTCHAR 356E
ENCODING 13678
SWIDTH 1080 0
DWIDTH 12 0
BBX 9 11 1 -2
BITMAP
0400
E900
A880
B100
A900
A900
EA00
A600
0600
0980
3000
ENDCHAR
STARTCHAR 356F
ENCODING 13679
SWIDTH 990 0
DWIDTH 11 0
BBX 9 10 1 -1
BITMAP
0800
0800
FF80
9480
A080
FE80
A280
BE80
A080
8380
ENDCHAR
STARTCHAR 3570
ENCODING 13680
SWIDTH 990 0
DWIDTH 11 0
BBX 9 10 1 -1
BITMAP
0100
0600
FC00
A400
BF00
A480
FF00
A400
0480
0780
ENDCHAR
STARTCHAR 3571
ENCODING 13681
SWIDTH 990 0
DWIDTH 11 0
BBX 9 9 1 -1
BITMAP
0500
E400
BF80
A600
A600
EA00
8A00
1280
0380
ENDCHAR
STARTCHAR 3572
ENCODING 13682
SWIDTH 1080 0
DWIDTH 12 0
BBX 10 10 1 -1
BITMAP
0400
E400
BF80
A600
AE00
AE00
F500
A4C0
0400
0400
ENDCHAR
STARTCHAR 3573
ENCODING 13683
SWIDTH 990 0
DWIDTH 11 0
BBX 9 10 1 -1
BITMAP
0900
EA00
BA80
B680
B280
B680
FA80
9080
1F80
0080
ENDCHAR
STARTCHAR 3574
ENCODING 13684
SWIDTH 1080 0
DWIDTH 12 0
BBX 10 10 1 -3
BITMAP
AFC0
F040
B080
AF00
A900
A900
E900
8940
1140
21C0
ENDCHAR
STARTCHAR 3575
ENCODING 13685
SWIDTH 1080 0
DWIDTH 12 0
BBX 10 9 1 -1
BITMAP
EFC0
A200
A200
A200
AF80
E200
8200
0200
1FC0
ENDCHAR
STARTCHAR 3576
ENCODING 13686
SWIDTH 990 0
DWIDTH 11 0
BBX 9 9 1 -2
BITMAP
EF00
A400
A400
BF00
A900
E900
A900
0900
3F80
ENDCHAR
STARTCHAR 3577
ENCODING 13687
SWIDTH 990 0
DWIDTH 11 0
BBX 9 10 1 -2
BITMAP
0200
0400
EF80
A880
A880
AF80
E880
8880
0F80
0880
ENDCHAR
STARTCHAR 3578
ENCODING 13688
SWIDTH 990 0
DWIDTH 11 0
BBX 9 9 1 -1
BITMAP
0400
E080
BF80
A100
A100
A900
EA00
AA00
1F80
ENDCHAR
STARTCHAR 3579
ENCODING 13689
SWIDTH 1080 0
DWIDTH 12 0
BBX 9 11 1 -2
BITMAP
0500
E400
BF80
A400
A780
AC80
ED00
B300
2200
0580
0800
ENDCHAR
STARTCHAR 357A
ENCODING 13690
SWIDTH 1080 0
DWIDTH 12 0
BBX 10 9 1 -1
BITMAP
7780
5480
7780
0000
FFC0
3F80
0100
0100
0600
ENDCHAR
STARTCHAR 357B
ENCODING 13691
SWIDTH 990 0
DWIDTH 11 0
BBX 9 10 1 -1
BITMAP
0800
FF80
0800
3A00
4980
8800
7F00
4100
7F00
4000
ENDCHAR
STARTCHAR 357C
ENCODING 13692
SWIDTH 1080 0
DWIDTH 12 0
BBX 10 11 1 -1
BITMAP
0800
E840
AFC0
B040
AA40
B540
BD40
F140
9F40
0040
0180
ENDCHAR
STARTCHAR 357D
ENCODING 13693
SWIDTH 990 0
DWIDTH 11 0
BBX 9 11 1 -2
BITMAP
0900
F500
B500
B100
B100
B100
F600
BA00
1300
0480
1800
ENDCHAR
STARTCHAR 357E
ENCODING 13694
SWIDTH 990 0
DWIDTH 11 0
BBX 9 9 1 0
BITMAP
0800
2800
4900
8880
0000
F400
9700
F480
9780
ENDCHAR
STARTCHAR 357F
ENCODING 13695
SWIDTH 1080 0
DWIDTH 12 0
BBX 10 10 1 -2
BITMAP
0100
3E00
FFC0
1C00
2B00
48C0
3F00
2100
3F00
2100
ENDCHAR
STARTCHAR 3580
ENCODING 13696
SWIDTH 1080 0
DWIDTH 12 0
BBX 10 10 1 -2
BITMAP
0400
EF80
A480
BFC0
AF80
BF80
E400
1FC0
0400
0400
ENDCHAR
STARTCHAR 3581
ENCODING 13697
SWIDTH 990 0
DWIDTH 11 0
BBX 10 10 0 -1
BITMAP
0900
E700
A480
AA00
BFC0
A400
E900
8A00
1400
07C0
ENDCHAR
STARTCHAR 3582
ENCODING 13698
SWIDTH 990 0
DWIDTH 11 0
BBX 9 10 1 -1
BITMAP
0400
FF80
B480
BF80
B480
EF00
A580
0600
0980
0080
ENDCHAR
STARTCHAR 3583
ENCODING 13699
SWIDTH 990 0
DWIDTH 11 0
BBX 9 9 1 -1
BITMAP
2F00
E800
AF80
A800
AF80
EC80
9480
1780
2480
ENDCHAR
STARTCHAR 3584
ENCODING 13700
SWIDTH 990 0
DWIDTH 11 0
BBX 9 10 1 -2
BITMAP
0A80
EA80
AA80
AF80
BA80
AA80
EA80
B280
1280
0280
ENDCHAR
STARTCHAR 3585
ENCODING 13701
SWIDTH 990 0
DWIDTH 11 0
BBX 9 10 1 -2
BITMAP
0200
E280
BF80
B200
B280
BF00
F100
B180
2380
2C80
ENDCHAR
STARTCHAR 3586
ENCODING 13702
SWIDTH 900 0
DWIDTH 10 0
BBX 8 10 1 -2
BITMAP
04
06
E6
BF
B7
BF
F7
97
1F
10
ENDCHAR
STARTCHAR 3587
ENCODING 13703
SWIDTH 990 0
DWIDTH 11 0
BBX 9 9 1 -1
BITMAP
EF00
A400
BF80
B580
B580
F580
B580
1480
1080
ENDCHAR
STARTCHAR 3588
ENCODING 13704
SWIDTH 990 0
DWIDTH 11 0
BBX 9 10 1 -1
BITMAP
0900
3D00
0A00
FF80
1200
7F00
0100
3F00
2100
3F00
ENDCHAR
STARTCHAR 3589
ENCODING 13705
SWIDTH 1080 0
DWIDTH 12 0
BBX 10 10 1 -2
BITMAP
0200
E600
A900
AAC0
B200
AA80
EB80
8A00
0A00
1FC0
ENDCHAR
STARTCHAR 358A
ENCODING 13706
SWIDTH 1080 0
DWIDTH 12 0
BBX 10 10 1 -2
BITMAP
E780
A080
AF80
AF80
A100
FFC0
A900
0500
0100
0300
ENDCHAR
STARTCHAR 358B
ENCODING 13707
SWIDTH 1080 0
DWIDTH 12 0
BBX 10 9 1 0
BITMAP
1800
2700
5280
2200
4400
F400
9500
F680
87C0
ENDCHAR
STARTCHAR 358C
ENCODING 13708
SWIDTH 990 0
DWIDTH 11 0
BBX 9 10 1 -2
BITMAP
2000
4400
5E00
4A00
5380
4400
F580
9600
F480
9780
ENDCHAR
STARTCHAR 358D
ENCODING 13709
SWIDTH 990 0
DWIDTH 11 0
BBX 9 10 1 -2
BITMAP
2400
1400
6400
0780
FC00
0400
F500
9600
F480
9780
ENDCHAR
STARTCHAR 358E
ENCODING 13710
SWIDTH 990 0
DWIDTH 11 0
BBX 9 10 1 -1
BITMAP
E500
A600
A480
DF80
2400
E780
2400
2400
4400
0400
ENDCHAR
STARTCHAR 358F
ENCODING 13711
SWIDTH 1080 0
DWIDTH 12 0
BBX 10 9 1 -2
BITMAP
EF80
AF80
A880
A880
AF80
E200
BF80
0200
3FC0
ENDCHAR
STARTCHAR 3590
ENCODING 13712
SWIDTH 900 0
DWIDTH 10 0
BBX 9 10 0 -1
BITMAP
7F00
5500
7700
3F00
0900
FF80
7F00
1000
2000
C000
ENDCHAR
STARTCHAR 3591
ENCODING 13713
SWIDTH 990 0
DWIDTH 11 0
BBX 9 10 1 -1
BITMAP
0280
E280
BF80
B200
B680
BF00
F700
B500
2780
0480
ENDCHAR
STARTCHAR 3592
ENCODING 13714
SWIDTH 990 0
DWIDTH 11 0
BBX 9 11 1 -1
BITMAP
0100
E200
AF80
A280
AF80
B200
AF80
E680
8A80
1280
0200
ENDCHAR
STARTCHAR 3593
ENCODING 13715
SWIDTH 1080 0
DWIDTH 12 0
BBX 10 11 1 -2
BITMAP
0400
2780
ED00
A500
A300
AEC0
AF80
E280
8700
1FC0
0200
ENDCHAR
STARTCHAR 3594
ENCODING 13716
SWIDTH 1080 0
DWIDTH 12 0
BBX 10 11 1 -2
BITMAP
0F80
E200
A200
BFC0
A500
A880
FF80
A880
0880
0F80
0880
ENDCHAR
STARTCHAR 3595
ENCODING 13717
SWIDTH 990 0
DWIDTH 11 0
BBX 10 10 1 -1
BITMAP
0600
E280
AF80
A500
BFC0
A200
CF80
0200
0200
0200
ENDCHAR
STARTCHAR 3596
ENCODING 13718
SWIDTH 990 0
DWIDTH 11 0
BBX 10 11 1 -1
BITMAP
0800
7F00
1000
FFC0
0800
7F00
7F00
4100
4100
7F00
4100
ENDCHAR
STARTCHAR 3597
ENCODING 13719
SWIDTH 990 0
DWIDTH 11 0
BBX 9 10 1 -1
BITMAP
0A00
EA80
AF80
A200
A600
AB80
CF00
0100
0200
0200
ENDCHAR
STARTCHAR 3598
ENCODING 13720
SWIDTH 990 0
DWIDTH 11 0
BBX 9 10 1 -1
BITMAP
1F80
F000
B700
B000
BF80
B600
F700
9600
2780
2000
ENDCHAR
STARTCHAR 3599
ENCODING 13721
SWIDTH 990 0
DWIDTH 11 0
BBX 9 10 1 0
BITMAP
2000
2F80
FC80
4C80
5780
9000
F400
9700
F480
8780
ENDCHAR
STARTCHAR 359A
ENCODING 13722
SWIDTH 990 0
DWIDTH 11 0
BBX 9 10 1 -1
BITMAP
2200
4200
5F80
D200
4A00
4600
F500
9600
F480
9780
ENDCHAR
STARTCHAR 359B
ENCODING 13723
SWIDTH 990 0
DWIDTH 11 0
BBX 9 9 1 0
BITMAP
0800
FF80
7E00
4200
7E00
F400
9700
F480
9780
ENDCHAR
STARTCHAR 359C
ENCODING 13724
SWIDTH 990 0
DWIDTH 11 0
BBX 9 8 1 1
BITMAP
FF80
7E00
7E00
0000
F400
9700
F480
9780
ENDCHAR
STARTCHAR 359D
ENCODING 13725
SWIDTH 990 0
DWIDTH 11 0
BBX 10 8 0 1
BITMAP
1F00
7F80
1A00
E5C0
7C80
4F00
7C40
07C0
ENDCHAR
STARTCHAR 359E
ENCODING 13726
SWIDTH 990 0
DWIDTH 11 0
BBX 9 9 1 -1
BITMAP
EF00
A900
AF00
A200
BF80
F280
9580
1080
1080
ENDCHAR
STARTCHAR 359F
ENCODING 13727
SWIDTH 990 0
DWIDTH 11 0
BBX 9 10 1 -2
BITMAP
0100
EE00
AB00
BF80
B100
AF00
E900
0600
0D80
3000
ENDCHAR
STARTCHAR 35A0
ENCODING 13728
SWIDTH 1080 0
DWIDTH 12 0
BBX 10 10 1 -1
BITMAP
0200
FF80
A600
A980
BFC0
A000
FF80
8300
12C0
0400
ENDCHAR
STARTCHAR 35A1
ENCODING 13729
SWIDTH 1080 0
DWIDTH 12 0
BBX 10 9 1 -1
BITMAP
0200
EFC0
A200
AB80
AC80
BC80
ED00
8B00
0A80
ENDCHAR
STARTCHAR 35A2
ENCODING 13730
SWIDTH 1080 0
DWIDTH 12 0
BBX 10 10 1 -2
BITMAP
0400
0200
FFC0
B100
B500
BDC0
FD00
BD00
1F40
09C0
ENDCHAR
STARTCHAR 35A3
ENCODING 13731
SWIDTH 1080 0
DWIDTH 12 0
BBX 10 10 1 -1
BITMAP
0200
EFC0
A080
A500
BFC0
A000
EF80
0880
0F80
0880
ENDCHAR
STARTCHAR 35A4
ENCODING 13732
SWIDTH 990 0
DWIDTH 11 0
BBX 9 9 1 -1
BITMAP
0F00
E100
A200
BB00
B280
B280
F680
1680
1F80
ENDCHAR
STARTCHAR 35A5
ENCODING 13733
SWIDTH 990 0
DWIDTH 11 0
BBX 9 9 1 0
BITMAP
1F80
F180
B680
BF80
B280
F780
1280
1F80
1080
ENDCHAR
STARTCHAR 35A6
ENCODING 13734
SWIDTH 990 0
DWIDTH 11 0
BBX 9 11 1 -2
BITMAP
0200
FF80
BF80
B280
BF80
BF80
F680
AB00
0B00
1280
0200
ENDCHAR
STARTCHAR 35A7
ENCODING 13735
SWIDTH 990 0
DWIDTH 11 0
BBX 10 11 1 -2
BITMAP
0080
0F00
EA00
AF80
AD00
A0C0
EF80
0F80
0880
0F80
0800
ENDCHAR
STARTCHAR 35A8
ENCODING 13736
SWIDTH 990 0
DWIDTH 11 0
BBX 9 9 1 -1
BITMAP
0F00
EF00
A100
BF80
A200
EB00
8200
1300
0E00
ENDCHAR
STARTCHAR 35A9
ENCODING 13737
SWIDTH 1080 0
DWIDTH 12 0
BBX 10 10 1 -1
BITMAP
FC40
B7C0
B640
BE80
B580
BD80
F480
9680
0D40
0400
ENDCHAR
STARTCHAR 35AA
ENCODING 13738
SWIDTH 990 0
DWIDTH 11 0
BBX 9 10 1 -1
BITMAP
0200
0280
FF80
A200
BE80
B680
FD00
8100
0F80
0800
ENDCHAR
STARTCHAR 35AB
ENCODING 13739
SWIDTH 1080 0
DWIDTH 12 0
BBX 10 11 1 -2
BITMAP
0200
EF80
A200
BFC0
A400
BF80
ED00
A500
0200
0DC0
1000
ENDCHAR
STARTCHAR 35AC
ENCODING 13740
SWIDTH 1080 0
DWIDTH 12 0
BBX 10 12 1 -3
BITMAP
0400
3980
F080
B980
B080
BF80
A000
FF80
A900
0600
09C0
3000
ENDCHAR
STARTCHAR 35AD
ENCODING 13741
SWIDTH 1080 0
DWIDTH 12 0
BBX 10 9 1 -2
BITMAP
E700
BF80
AA00
AD00
B4C0
E400
8680
0400
0400
ENDCHAR
STARTCHAR 35AE
ENCODING 13742
SWIDTH 990 0
DWIDTH 11 0
BBX 9 10 1 -2
BITMAP
0400
EA00
A980
BF80
A000
BF80
F680
9F80
1680
1680
ENDCHAR
STARTCHAR 35AF
ENCODING 13743
SWIDTH 990 0
DWIDTH 11 0
BBX 9 10 1 0
BITMAP
7F80
4080
7E80
6480
7C80
0500
F480
9500
F600
8780
ENDCHAR
STARTCHAR 35B0
ENCODING 13744
SWIDTH 990 0
DWIDTH 11 0
BBX 9 11 1 -2
BITMAP
0800
F980
9E00
9880
EF80
FF00
BD00
BD00
A500
BD00
8300
ENDCHAR
STARTCHAR 35B1
ENCODING 13745
SWIDTH 990 0
DWIDTH 11 0
BBX 9 10 1 -1
BITMAP
0800
FF80
0F00
5E00
4600
4600
7900
7F00
4100
7F00
ENDCHAR
STARTCHAR 35B2
ENCODING 13746
SWIDTH 990 0
DWIDTH 11 0
BBX 9 8 1 1
BITMAP
F780
A480
5780
8000
F480
9700
F480
9780
ENDCHAR
STARTCHAR 35B3
ENCODING 13747
SWIDTH 990 0
DWIDTH 11 0
BBX 9 11 1 -2
BITMAP
0400
0400
9F80
2A00
4A00
4500
7C00
F500
9600
F480
9780
ENDCHAR
STARTCHAR 35B4
ENCODING 13748
SWIDTH 990 0
DWIDTH 11 0
BBX 9 10 1 -1
BITMAP
0500
EF80
A500
AF80
B580
EA80
AA80
0480
0A80
0100
ENDCHAR
STARTCHAR 35B5
ENCODING 13749
SWIDTH 990 0
DWIDTH 11 0
BBX 9 9 1 -1
BITMAP
EF00
AF00
A900
AF00
AF00
E900
9F80
0000
1980
ENDCHAR
STARTCHAR 35B6
ENCODING 13750
SWIDTH 990 0
DWIDTH 11 0
BBX 10 9 1 -2
BITMAP
EF80
BF80
B680
B680
BF80
E200
9F80
0200
1FC0
ENDCHAR
STARTCHAR 35B7
ENCODING 13751
SWIDTH 1080 0
DWIDTH 12 0
BBX 10 10 1 -1
BITMAP
0F00
E900
AF00
AF00
A000
BFC0
E380
1A00
2600
0180
ENDCHAR
STARTCHAR 35B8
ENCODING 13752
SWIDTH 990 0
DWIDTH 11 0
BBX 9 10 1 -1
BITMAP
0200
2380
FF80
B280
BE80
B380
F780
1F80
2400
2780
ENDCHAR
STARTCHAR 35B9
ENCODING 13753
SWIDTH 1080 0
DWIDTH 12 0
BBX 10 10 1 -1
BITMAP
0600
EA00
A380
A500
A900
A200
FF80
1680
16C0
0900
ENDCHAR
STARTCHAR 35BA
ENCODING 13754
SWIDTH 1080 0
DWIDTH 12 0
BBX 10 11 1 -1
BITMAP
0400
EF00
AF00
A800
AF80
AF00
E9C0
0F00
0900
0F00
0800
ENDCHAR
STARTCHAR 35BB
ENCODING 13755
SWIDTH 990 0
DWIDTH 11 0
BBX 9 10 1 0
BITMAP
0F00
0100
EF00
A600
AA00
A000
FF80
8600
0B00
0200
ENDCHAR
STARTCHAR 35BC
ENCODING 13756
SWIDTH 990 0
DWIDTH 11 0
BBX 10 11 1 -2
BITMAP
0900
FF80
A900
AF00
AF00
A200
FF80
A600
0B00
02C0
0200
ENDCHAR
STARTCHAR 35BD
ENCODING 13757
SWIDTH 990 0
DWIDTH 11 0
BBX 9 9 1 -1
BITMAP
EF80
AF80
AF80
A880
AF80
E880
8F80
0500
1800
ENDCHAR
STARTCHAR 35BE
ENCODING 13758
SWIDTH 1080 0
DWIDTH 12 0
BBX 10 10 1 -1
BITMAP
7780
5480
7780
2300
FFC0
4880
7F80
0800
1000
6000
ENDCHAR
STARTCHAR 35BF
ENCODING 13759
SWIDTH 1080 0
DWIDTH 12 0
BBX 10 9 1 -2
BITMAP
FD80
B580
BD80
B500
BD80
F540
9740
1D80
0500
ENDCHAR
STARTCHAR 35C0
ENCODING 13760
SWIDTH 990 0
DWIDTH 11 0
BBX 9 10 1 -2
BITMAP
0200
0200
E300
BA80
BE80
BF80
BB80
FE80
9B80
1F80
ENDCHAR
STARTCHAR 35C1
ENCODING 13761
SWIDTH 990 0
DWIDTH 11 0
BBX 9 10 1 -1
BITMAP
1F80
F680
BF80
AF00
A080
EF00
8F80
0100
0100
0200
ENDCHAR
STARTCHAR 35C2
ENCODING 13762
SWIDTH 1080 0
DWIDTH 12 0
BBX 10 11 1 -2
BITMAP
0200
EA80
B240
A300
AF80
B880
EF80
0F80
0880
0F80
0880
ENDCHAR
STARTCHAR 35C3
ENCODING 13763
SWIDTH 990 0
DWIDTH 11 0
BBX 9 11 1 -2
BITMAP
1F80
F080
BF80
BF80
B200
B980
EF80
0F80
0880
0F80
0880
ENDCHAR
STARTCHAR 35C4
ENCODING 13764
SWIDTH 990 0
DWIDTH 11 0
BBX 9 9 1 -1
BITMAP
FF80
B580
BF80
A200
BF80
E780
8900
0900
3100
ENDCHAR
STARTCHAR 35C5
ENCODING 13765
SWIDTH 990 0
DWIDTH 11 0
BBX 9 11 1 -2
BITMAP
0800
0B80
EA80
BE80
AB80
BE80
F780
9E80
1480
0480
0800
ENDCHAR
STARTCHAR 35C6
ENCODING 13766
SWIDTH 1080 0
DWIDTH 12 0
BBX 10 9 1 -1
BITMAP
0900
EF80
AF00
BF80
B280
FF80
1FC0
0200
0200
ENDCHAR
STARTCHAR 35C7
ENCODING 13767
SWIDTH 1080 0
DWIDTH 12 0
BBX 9 10 1 -2
BITMAP
FD80
B480
BF80
B300
BE80
F300
9D00
1100
1280
0400
ENDCHAR
STARTCHAR 35C8
ENCODING 13768
SWIDTH 990 0
DWIDTH 11 0
BBX 9 10 1 -2
BITMAP
1F80
E300
BF80
BF80
BF80
B280
FF80
8480
0880
0300
ENDCHAR
STARTCHAR 35C9
ENCODING 13769
SWIDTH 990 0
DWIDTH 11 0
BBX 9 11 1 -2
BITMAP
2000
2780
7480
7480
F880
0100
3E00
5400
1C00
FF80
3F00
ENDCHAR
STARTCHAR 35CA
ENCODING 13770
SWIDTH 990 0
DWIDTH 11 0
BBX 9 9 1 -1
BITMAP
F780
9480
9480
F780
F780
9480
9480
F780
9480
ENDCHAR
STARTCHAR 35CB
ENCODING 13771
SWIDTH 1080 0
DWIDTH 12 0
BBX 10 10 1 -1
BITMAP
0800
2F00
F200
BF80
B480
B780
BA00
FFC0
A300
2480
ENDCHAR
STARTCHAR 35CC
ENCODING 13772
SWIDTH 990 0
DWIDTH 11 0
BBX 10 11 1 -1
BITMAP
0200
2200
EF80
B100
BF80
A400
A980
EF80
9F80
0200
1FC0
ENDCHAR
STARTCHAR 35CD
ENCODING 13773
SWIDTH 1080 0
DWIDTH 12 0
BBX 9 10 1 -3
BITMAP
0100
E600
BF80
A600
AB80
AF00
E900
0F00
0900
0F00
ENDCHAR
STARTCHAR 35CE
ENCODING 13774
SWIDTH 1080 0
DWIDTH 12 0
BBX 9 9 1 -1
BITMAP
0800
FF80
AE80
B580
A200
FF80
8600
0B80
0200
ENDCHAR
STARTCHAR 35CF
ENCODING 13775
SWIDTH 1080 0
DWIDTH 12 0
BBX 10 10 1 -2
BITMAP
0F80
E400
A700
AA00
A200
BF80
E200
8B80
0A00
1FC0
ENDCHAR
STARTCHAR 35D0
ENCODING 13776
SWIDTH 1080 0
DWIDTH 12 0
BBX 10 9 1 0
BITMAP
E400
BFC0
A600
AD80
F240
BF80
1680
16C0
0100
ENDCHAR
STARTCHAR 35D1
ENCODING 13777
SWIDTH 990 0
DWIDTH 11 0
BBX 10 10 1 -2
BITMAP
0400
2BC0
E900
AF80
BD00
AB80
BD00
EBC0
1100
1100
ENDCHAR
STARTCHAR 35D2
ENCODING 13778
SWIDTH 1080 0
DWIDTH 12 0
BBX 10 10 1 -2
BITMAP
0400
FF80
BF00
B100
B100
BF00
EC80
AD00
1B00
0CC0
ENDCHAR
STARTCHAR 35D3
ENCODING 13779
SWIDTH 1080 0
DWIDTH 12 0
BBX 9 9 1 0
BITMAP
0200
EF80
A480
A780
AF80
EC80
8F80
0C00
0380
ENDCHAR
STARTCHAR 35D4
ENCODING 13780
SWIDTH 990 0
DWIDTH 11 0
BBX 9 11 1 -2
BITMAP
0400
0700
F480
BF00
B600
B700
F280
BF80
A900
0600
1D80
ENDCHAR
STARTCHAR 35D5
ENCODING 13781
SWIDTH 990 0
DWIDTH 11 0
BBX 10 10 1 0
BITMAP
0500
EF80
AF80
BFC0
AF80
EF80
AA80
1FC0
0880
0880
ENDCHAR
STARTCHAR 35D6
ENCODING 13782
SWIDTH 990 0
DWIDTH 11 0
BBX 9 11 1 -2
BITMAP
0180
EE80
B280
AB00
B980
B080
FD80
1080
1080
1F80
1000
ENDCHAR
STARTCHAR 35D7
ENCODING 13783
SWIDTH 990 0
DWIDTH 11 0
BBX 9 9 1 1
BITMAP
FF80
9A80
9F80
FA80
4F80
F600
6F80
A200
2200
ENDCHAR
STARTCHAR 35D8
ENCODING 13784
SWIDTH 990 0
DWIDTH 11 0
BBX 10 10 1 0
BITMAP
0200
A280
FFC0
B280
BF80
BF80
DF80
0100
0100
0100
ENDCHAR
STARTCHAR 35D9
ENCODING 13785
SWIDTH 990 0
DWIDTH 11 0
BBX 9 11 1 -2
BITMAP
0400
0F80
EC80
BD80
AF80
A980
A780
E880
8D80
0680
1880
ENDCHAR
STARTCHAR 35DA
ENCODING 13786
SWIDTH 1080 0
DWIDTH 12 0
BBX 10 10 1 -2
BITMAP
1F80
E600
BF80
B680
BF80
A200
FFC0
8600
0B00
12C0
ENDCHAR
STARTCHAR 35DB
ENCODING 13787
SWIDTH 1080 0
DWIDTH 12 0
BBX 10 10 1 -2
BITMAP
0900
EFC0
B680
B600
AD00
A400
FFC0
A600
0500
08C0
ENDCHAR
STARTCHAR 35DC
ENCODING 13788
SWIDTH 990 0
DWIDTH 11 0
BBX 9 10 1 -2
BITMAP
0200
FF80
A600
A900
A600
BD00
FF80
1F80
1280
1F80
ENDCHAR
STARTCHAR 35DD
ENCODING 13789
SWIDTH 1080 0
DWIDTH 12 0
BBX 10 9 1 -1
BITMAP
0500
EF80
A200
AF80
A200
FFC0
8000
0540
3500
ENDCHAR
STARTCHAR 35DE
ENCODING 13790
SWIDTH 1080 0
DWIDTH 12 0
BBX 10 10 1 -1
BITMAP
0100
FFC0
B300
BB00
BBC0
FA80
9B80
1D00
1580
0240
ENDCHAR
STARTCHAR 35DF
ENCODING 13791
SWIDTH 990 0
DWIDTH 11 0
BBX 9 9 1 0
BITMAP
4400
BF00
5E00
8400
3F80
F400
9700
9480
F780
ENDCHAR
STARTCHAR 35E0
ENCODING 13792
SWIDTH 990 0
DWIDTH 11 0
BBX 9 11 1 -3
BITMAP
0400
4400
F900
AF80
AF00
6900
CF00
FB00
9C00
9880
EF80
ENDCHAR
STARTCHAR 35E1
ENCODING 13793
SWIDTH 990 0
DWIDTH 11 0
BBX 9 11 1 -3
BITMAP
2000
FF80
2000
5F00
CB80
5100
0100
F500
9600
F480
8780
ENDCHAR
STARTCHAR 35E2
ENCODING 13794
SWIDTH 990 0
DWIDTH 11 0
BBX 9 10 1 -2
BITMAP
0500
E900
BD00
BD80
BD80
AD80
FE80
1E80
0E80
0400
ENDCHAR
STARTCHAR 35E3
ENCODING 13795
SWIDTH 990 0
DWIDTH 11 0
BBX 10 10 1 0
BITMAP
0F00
EF00
BFC0
A7C0
AF80
EF80
8A80
0A80
0B00
0200
ENDCHAR
STARTCHAR 35E4
ENCODING 13796
SWIDTH 990 0
DWIDTH 11 0
BBX 9 11 1 -1
BITMAP
0300
7F80
5A00
7F00
5100
B300
9480
3F00
2100
3F00
2000
ENDCHAR
STARTCHAR 35E5
ENCODING 13797
SWIDTH 1080 0
DWIDTH 12 0
BBX 10 11 1 -1
BITMAP
0800
EDC0
BF40
BD80
BD00
A180
ED40
8B40
0D80
0900
1900
ENDCHAR
STARTCHAR 35E6
ENCODING 13798
SWIDTH 1080 0
DWIDTH 12 0
BBX 10 10 1 -2
BITMAP
7FC0
ED40
EF40
DF40
EF40
DF40
EF40
AB40
3D00
0D00
ENDCHAR
STARTCHAR 35E7
ENCODING 13799
SWIDTH 990 0
DWIDTH 11 0
BBX 10 10 1 0
BITMAP
0200
0200
EFC0
B480
AF80
A400
AF00
E200
8F80
1F80
ENDCHAR
STARTCHAR 35E8
ENCODING 13800
SWIDTH 990 0
DWIDTH 11 0
BBX 9 10 1 -1
BITMAP
F700
8500
F700
D500
D200
F580
7F00
4100
7F00
4000
ENDCHAR
STARTCHAR 35E9
ENCODING 13801
SWIDTH 990 0
DWIDTH 11 0
BBX 9 9 1 -1
BITMAP
ED80
AD80
AD80
B480
A000
EF80
0F80
0880
0F80
ENDCHAR
STARTCHAR 35EA
ENCODING 13802
SWIDTH 990 0
DWIDTH 11 0
BBX 10 11 1 -2
BITMAP
0800
FB00
BE00
BA00
B5C0
A500
EE00
9F80
0A00
1380
0600
ENDCHAR
STARTCHAR 35EB
ENCODING 13803
SWIDTH 1080 0
DWIDTH 12 0
BBX 9 9 1 -2
BITMAP
0F80
EE80
B700
A900
A780
EF80
A200
0B80
1200
ENDCHAR
STARTCHAR 35EC
ENCODING 13804
SWIDTH 990 0
DWIDTH 11 0
BBX 9 9 1 0
BITMAP
7F00
BE00
3E00
1800
3E00
7400
4F80
7B00
FC00
ENDCHAR
STARTCHAR 35ED
ENCODING 13805
SWIDTH 990 0
DWIDTH 11 0
BBX 9 10 1 -1
BITMAP
0100
2600
EB00
BF80
A600
AB80
E000
9880
0900
0F00
ENDCHAR
STARTCHAR 35EE
ENCODING 13806
SWIDTH 1080 0
DWIDTH 12 0
BBX 10 10 1 -2
BITMAP
0100
7FC0
9900
AF80
4FC0
7980
5F80
5B00
7300
54C0
ENDCHAR
STARTCHAR 35EF
ENCODING 13807
SWIDTH 1080 0
DWIDTH 12 0
BBX 9 11 2 -2
BITMAP
1000
7F00
FF80
7E00
C200
7E00
7E00
E980
AE80
E880
AF80
ENDCHAR
STARTCHAR 35F0
ENCODING 13808
SWIDTH 1080 0
DWIDTH 12 0
BBX 10 10 1 0
BITMAP
0A80
F480
A700
B9C0
B100
B500
F5C0
9500
1B00
00C0
ENDCHAR
STARTCHAR 35F1
ENCODING 13809
SWIDTH 1080 0
DWIDTH 12 0
BBX 10 10 1 -2
BITMAP
0A00
EF80
BF80
AF80
AF80
E240
BFC0
8700
0A80
1240
ENDCHAR
STARTCHAR 35F2
ENCODING 13810
SWIDTH 1080 0
DWIDTH 12 0
BBX 10 10 1 -2
BITMAP
0400
EF80
BFC0
AF80
BF80
BFC0
FF80
9F80
1F80
1FC0
ENDCHAR
STARTCHAR 35F3
ENCODING 13811
SWIDTH 990 0
DWIDTH 11 0
BBX 9 11 1 -2
BITMAP
0900
ED80
A600
A400
AB00
A680
EF00
0900
0900
0F00
0800
ENDCHAR
STARTCHAR 35F4
ENCODING 13812
SWIDTH 1080 0
DWIDTH 12 0
BBX 10 10 1 -1
BITMAP
FDC0
BDC0
BDC0
B740
B740
F740
9940
1940
1840
1080
ENDCHAR
STARTCHAR 35F5
ENCODING 13813
SWIDTH 990 0
DWIDTH 11 0
BBX 10 10 0 -1
BITMAP
0900
3900
ED80
B900
B300
A900
FD80
A980
1680
0040
ENDCHAR
STARTCHAR 35F6
ENCODING 13814
SWIDTH 1080 0
DWIDTH 12 0
BBX 10 9 1 0
BITMAP
FE80
AB00
AFC0
B700
B9C0
FF80
8700
0500
0880
ENDCHAR
STARTCHAR 35F7
ENCODING 13815
SWIDTH 990 0
DWIDTH 11 0
BBX 9 10 1 -1
BITMAP
AF80
F080
B600
AF80
AF80
AF80
E880
A880
0480
0980
ENDCHAR
STARTCHAR 35F8
ENCODING 13816
SWIDTH 990 0
DWIDTH 11 0
BBX 10 10 1 -1
BITMAP
1800
CF80
C400
DE40
D680
DE80
DE80
9E80
1080
1000
ENDCHAR
STARTCHAR 35F9
ENCODING 13817
SWIDTH 990 0
DWIDTH 11 0
BBX 9 9 1 0
BITMAP
0A00
EF80
BF80
AF80
EF80
A800
9A00
2800
0F80
ENDCHAR
STARTCHAR 35FA
ENCODING 13818
SWIDTH 1080 0
DWIDTH 12 0
BBX 9 10 1 -2
BITMAP
0F80
E400
BF80
A500
AE80
BF80
EF80
A600
1F80
0600
ENDCHAR
STARTCHAR 35FB
ENCODING 13819
SWIDTH 1080 0
DWIDTH 12 0
BBX 10 9 1 0
BITMAP
0780
E780
A580
BFC0
BB40
FB40
BB40
18C0
07C0
ENDCHAR
STARTCHAR 35FC
ENCODING 13820
SWIDTH 990 0
DWIDTH 11 0
BBX 9 11 1 -1
BITMAP
0400
ED00
AE00
BF80
BF00
A200
EF00
9F80
0600
0B00
0200
ENDCHAR
STARTCHAR 35FD
ENCODING 13821
SWIDTH 990 0
DWIDTH 11 0
BBX 10 10 1 -1
BITMAP
4800
9FC0
B680
DF00
BE80
D200
9E80
7F00
4100
7F00
ENDCHAR
STARTCHAR 35FE
ENCODING 13822
SWIDTH 1080 0
DWIDTH 12 0
BBX 10 10 1 -2
BITMAP
1500
F900
BF00
BB00
BF80
BF00
FF00
AB00
9F40
0BC0
ENDCHAR
STARTCHAR 35FF
ENCODING 13823
SWIDTH 990 0
DWIDTH 11 0
BBX 9 11 1 -1
BITMAP
3580
FE80
BD80
BD80
BF80
BF80
FB80
9F80
1180
1080
1080
ENDCHAR
STARTCHAR 3600
ENCODING 13824
SWIDTH 1080 0
DWIDTH 12 0
BBX 10 11 1 -1
BITMAP
0600
B980
FD80
B080
BF80
AB00
FF80
8700
0B00
12C0
0200
ENDCHAR
STARTCHAR 3601
ENCODING 13825
SWIDTH 990 0
DWIDTH 11 0
BBX 9 9 1 -1
BITMAP
1F80
F680
A300
AF00
BF80
E500
1F80
1F80
0200
ENDCHAR
STARTCHAR 3602
ENCODING 13826
SWIDTH 990 0
DWIDTH 11 0
BBX 9 9 1 0
BITMAP
0C00
FF80
B200
BB00
B600
FD80
0A00
2900
0700
ENDCHAR
STARTCHAR 3603
ENCODING 13827
SWIDTH 990 0
DWIDTH 11 0
BBX 9 10 1 -1
BITMAP
0900
BF80
E900
BF80
AF00
A900
EF00
1A00
0800
0F00
ENDCHAR
STARTCHAR 3604
ENCODING 13828
SWIDTH 1080 0
DWIDTH 12 0
BBX 10 9 1 -1
BITMAP
F7C0
B740
BF40
B080
FFC0
B3C0
3280
1480
1180
ENDCHAR
STARTCHAR 3605
ENCODING 13829
SWIDTH 990 0
DWIDTH 11 0
BBX 9 9 1 0
BITMAP
1400
C980
D400
D480
D480
DE80
9E80
1880
1080
ENDCHAR
STARTCHAR 3606
ENCODING 13830
SWIDTH 1080 0
DWIDTH 12 0
BBX 10 11 1 -1
BITMAP
0200
BFC0
EF00
AF80
AF80
B040
A700
E900
0F80
0200
1FC0
ENDCHAR
STARTCHAR 3607
ENCODING 13831
SWIDTH 1080 0
DWIDTH 12 0
BBX 10 11 1 -2
BITMAP
0900
AB00
ED80
BB00
A080
BF40
B200
FFC0
8600
0B80
1240
ENDCHAR
STARTCHAR 3608
ENCODING 13832
SWIDTH 1080 0
DWIDTH 12 0
BBX 10 10 1 -1
BITMAP
1380
F900
BC00
ABC0
B900
AB80
FFC0
8B00
1500
00C0
ENDCHAR
STARTCHAR 3609
ENCODING 13833
SWIDTH 990 0
DWIDTH 11 0
BBX 9 11 1 -1
BITMAP
0200
F600
BF80
B880
BF80
B680
BE80
FE80
9A80
1F00
0200
ENDCHAR
STARTCHAR 360A
ENCODING 13834
SWIDTH 1080 0
DWIDTH 12 0
BBX 10 10 1 -2
BITMAP
A700
EFC0
B200
AB00
BFC0
EF80
8F80
0F80
0880
0F80
ENDCHAR
STARTCHAR 360B
ENCODING 13835
SWIDTH 1080 0
DWIDTH 12 0
BBX 10 10 1 0
BITMAP
1FC0
FA80
B580
B980
A040
FF80
8F80
0F80
0200
19C0
ENDCHAR
STARTCHAR 360C
ENCODING 13836
SWIDTH 1080 0
DWIDTH 12 0
BBX 10 11 1 -2
BITMAP
0C00
2E40
FE40
B940
BF40
BF40
FB40
9D40
2A40
2540
0480
ENDCHAR
STARTCHAR 360D
ENCODING 13837
SWIDTH 990 0
DWIDTH 11 0
BBX 10 9 1 0
BITMAP
0900
F900
A940
B980
BD80
FD80
9D00
1EC0
1040
ENDCHAR
STARTCHAR 360E
ENCODING 13838
SWIDTH 1080 0
DWIDTH 12 0
BBX 10 9 1 0
BITMAP
EBC0
B040
BE40
BFC0
BD40
FE40
9E40
1640
10C0
ENDCHAR
STARTCHAR 360F
ENCODING 13839
SWIDTH 990 0
DWIDTH 11 0
BBX 9 10 1 -2
BITMAP
4800
5F00
5F00
5F00
5F00
3F00
F400
9600
F480
8780
ENDCHAR
STARTCHAR 3610
ENCODING 13840
SWIDTH 990 0
DWIDTH 11 0
BBX 9 9 1 -1
BITMAP
F900
BF80
B980
BE00
BC80
EE80
9D00
3500
0E80
ENDCHAR
STARTCHAR 3611
ENCODING 13841
SWIDTH 1080 0
DWIDTH 12 0
BBX 10 9 1 -1
BITMAP
0900
E980
BF80
AFC0
A180
BF80
EB80
2B80
0940
ENDCHAR
STARTCHAR 3612
ENCODING 13842
SWIDTH 900 0
DWIDTH 10 0
BBX 9 10 1 -2
BITMAP
2100
C600
EF00
4F00
6F00
CF00
5F80
F500
9600
E780
ENDCHAR
STARTCHAR 3613
ENCODING 13843
SWIDTH 1080 0
DWIDTH 12 0
BBX 10 10 1 -1
BITMAP
3DC0
F640
BDC0
BDC0
BF40
BF40
FF40
9340
1740
10C0
ENDCHAR
STARTCHAR 3614
ENCODING 13844
SWIDTH 1080 0
DWIDTH 12 0
BBX 10 11 1 -1
BITMAP
0200
BFC0
FF80
AF80
A500
AF80
EF40
8F00
0F00
0500
0800
ENDCHAR
STARTCHAR 3615
ENCODING 13845
SWIDTH 1080 0
DWIDTH 12 0
BBX 10 11 1 -1
BITMAP
0900
FFC0
A800
B900
B7C0
BC80
F400
9F80
1680
16C0
0900
ENDCHAR
STARTCHAR 3616
ENCODING 13846
SWIDTH 990 0
DWIDTH 11 0
BBX 9 11 1 -2
BITMAP
0800
CB80
DE00
CB80
D380
D480
D780
9B80
2400
2280
0800
ENDCHAR
STARTCHAR 3617
ENCODING 13847
SWIDTH 990 0
DWIDTH 11 0
BBX 9 10 1 -2
BITMAP
FF80
BF80
BF80
BF80
A000
AF80
EA00
8F80
0F80
0F80
ENDCHAR
STARTCHAR 3618
ENCODING 13848
SWIDTH 990 0
DWIDTH 11 0
BBX 10 10 0 -1
BITMAP
4080
AF40
4EC0
2E00
1A00
BF00
3F80
2080
3F80
2000
ENDCHAR
STARTCHAR 3619
ENCODING 13849
SWIDTH 990 0
DWIDTH 11 0
BBX 9 9 1 -1
BITMAP
FF80
BF80
BF80
BD00
BD80
FF00
9F00
2D00
2480
ENDCHAR
STARTCHAR 361A
ENCODING 13850
SWIDTH 1080 0
DWIDTH 12 0
BBX 10 10 1 -1
BITMAP
F9C0
B9C0
B9C0
B140
BDC0
FF40
9F40
14C0
1440
1040
ENDCHAR
STARTCHAR 361B
ENCODING 13851
SWIDTH 1080 0
DWIDTH 12 0
BBX 10 9 1 -1
BITMAP
0400
EBC0
AF00
AA00
A380
EF80
BF80
1FC0
17C0
ENDCHAR
STARTCHAR 361C
ENCODING 13852
SWIDTH 990 0
DWIDTH 11 0
BBX 10 10 1 -1
BITMAP
0880
FFC0
C680
DF80
D680
FFC0
7F80
4100
7F00
4000
ENDCHAR
STARTCHAR 361D
ENCODING 13853
SWIDTH 990 0
DWIDTH 11 0
BBX 9 10 1 -1
BITMAP
FF80
8080
BE80
8280
9480
8C80
9A80
A180
FF80
8080
ENDCHAR
STARTCHAR 361E
ENCODING 13854
SWIDTH 990 0
DWIDTH 11 0
BBX 9 9 1 -1
BITMAP
FF80
8880
BE80
8A80
9280
9280
A280
C480
FF80
ENDCHAR
STARTCHAR 361F
ENCODING 13855
SWIDTH 990 0
DWIDTH 11 0
BBX 9 10 1 -1
BITMAP
FF80
8080
9480
FF80
9480
9480
A480
8080
FF80
8080
ENDCHAR
STARTCHAR 3620
ENCODING 13856
SWIDTH 990 0
DWIDTH 11 0
BBX 9 11 1 -1
BITMAP
FF80
8080
8880
9480
9A80
9980
9080
BE80
8080
FF80
8080
ENDCHAR
STARTCHAR 3621
ENCODING 13857
SWIDTH 990 0
DWIDTH 11 0
BBX 9 10 1 -1
BITMAP
FF80
8080
BE80
BE80
AA80
BE80
8880
8880
FF80
8080
ENDCHAR
STARTCHAR 3622
ENCODING 13858
SWIDTH 990 0
DWIDTH 11 0
BBX 9 10 1 -1
BITMAP
FF80
8080
AA80
9C80
BE80
9480
A480
8680
FF80
8080
ENDCHAR
STARTCHAR 3623
ENCODING 13859
SWIDTH 990 0
DWIDTH 11 0
BBX 9 9 1 -1
BITMAP
FF80
BE80
BE80
BE80
BE80
BE80
A280
A280
FF80
ENDCHAR
STARTCHAR 3624
ENCODING 13860
SWIDTH 990 0
DWIDTH 11 0
BBX 9 10 1 -1
BITMAP
FF80
9E80
FE80
9E80
FE80
DE80
DE80
CE80
FF80
8080
ENDCHAR
STARTCHAR 3625
ENCODING 13861
SWIDTH 990 0
DWIDTH 11 0
BBX 9 9 1 -1
BITMAP
FF80
9380
ED80
8680
FD80
F680
A780
FA80
FF80
ENDCHAR
STARTCHAR 3626
ENCODING 13862
SWIDTH 990 0
DWIDTH 11 0
BBX 9 10 1 -2
BITMAP
4400
4400
4400
EF80
4480
4480
4480
C880
1080
0300
ENDCHAR
STARTCHAR 3627
ENCODING 13863
SWIDTH 990 0
DWIDTH 11 0
BBX 9 10 1 -1
BITMAP
4000
4F00
4A00
E400
5F80
4400
4400
4400
8400
0400
ENDCHAR
STARTCHAR 3628
ENCODING 13864
SWIDTH 990 0
DWIDTH 11 0
BBX 9 10 1 -1
BITMAP
4200
4200
4F80
FA80
4A80
4A80
4D80
6880
8880
0880
ENDCHAR
STARTCHAR 3629
ENCODING 13865
SWIDTH 990 0
DWIDTH 11 0
BBX 9 10 1 -1
BITMAP
5200
5200
5280
F300
5E00
5200
5200
5280
9A80
1380
ENDCHAR
STARTCHAR 362A
ENCODING 13866
SWIDTH 900 0
DWIDTH 10 0
BBX 9 10 1 0
BITMAP
4100
4E00
4400
E500
5E00
4480
4F00
C400
0480
0780
ENDCHAR
STARTCHAR 362B
ENCODING 13867
SWIDTH 990 0
DWIDTH 11 0
BBX 10 10 1 0
BITMAP
4900
4900
5FC0
E900
4900
5FC0
4900
C900
1100
2100
ENDCHAR
STARTCHAR 362C
ENCODING 13868
SWIDTH 990 0
DWIDTH 11 0
BBX 9 10 1 -1
BITMAP
4400
4800
4F80
E880
4480
4480
4980
6F80
8080
0100
ENDCHAR
STARTCHAR 362D
ENCODING 13869
SWIDTH 990 0
DWIDTH 11 0
BBX 9 9 1 -1
BITMAP
4000
4B80
F480
5480
5880
4880
D280
1E80
0100
ENDCHAR
STARTCHAR 362E
ENCODING 13870
SWIDTH 990 0
DWIDTH 11 0
BBX 9 11 1 -2
BITMAP
4000
4F80
4880
E880
4F80
4A00
4A00
5A00
F100
1080
0080
ENDCHAR
STARTCHAR 362F
ENCODING 13871
SWIDTH 990 0
DWIDTH 11 0
BBX 9 9 1 -1
BITMAP
4800
4F80
F400
4F80
4480
4480
4880
8880
1100
ENDCHAR
STARTCHAR 3630
ENCODING 13872
SWIDTH 990 0
DWIDTH 11 0
BBX 8 10 1 -2
BITMAP
42
4A
46
E2
4A
42
57
EA
02
02
ENDCHAR
STARTCHAR 3631
ENCODING 13873
SWIDTH 990 0
DWIDTH 11 0
BBX 10 11 1 -2
BITMAP
0200
4200
4F80
4A80
EF80
4A80
5FC0
7880
8880
0880
0800
ENDCHAR
STARTCHAR 3632
ENCODING 13874
SWIDTH 1080 0
DWIDTH 12 0
BBX 10 9 1 -1
BITMAP
4F80
4F80
EC00
4C00
4F00
4D00
5500
3940
29C0
ENDCHAR
STARTCHAR 3633
ENCODING 13875
SWIDTH 990 0
DWIDTH 11 0
BBX 10 9 1 -1
BITMAP
1400
F700
1480
7480
1780
0800
7F80
0800
FFC0
ENDCHAR
STARTCHAR 3634
ENCODING 13876
SWIDTH 990 0
DWIDTH 11 0
BBX 9 10 1 -2
BITMAP
0800
0900
E900
A900
AB00
E880
0800
7F00
0800
FF80
ENDCHAR
STARTCHAR 3635
ENCODING 13877
SWIDTH 990 0
DWIDTH 11 0
BBX 9 10 1 -2
BITMAP
4400
4400
5F80
EA00
4F80
4A80
5A80
6A80
8B80
0200
ENDCHAR
STARTCHAR 3636
ENCODING 13878
SWIDTH 990 0
DWIDTH 11 0
BBX 9 10 1 -2
BITMAP
4000
4200
7F80
9200
DA00
2780
4A00
7F00
0800
FF80
ENDCHAR
STARTCHAR 3637
ENCODING 13879
SWIDTH 990 0
DWIDTH 11 0
BBX 9 11 1 -2
BITMAP
0A00
4A00
5F80
E800
4100
5200
4A00
6400
8A00
1180
2000
ENDCHAR
STARTCHAR 3638
ENCODING 13880
SWIDTH 990 0
DWIDTH 11 0
BBX 10 10 0 -1
BITMAP
7FC0
2200
3E80
4B00
0A40
1240
27C0
7F80
0400
FFC0
ENDCHAR
STARTCHAR 3639
ENCODING 13881
SWIDTH 990 0
DWIDTH 11 0
BBX 10 10 0 -1
BITMAP
1200
5280
5B80
5200
5240
63C0
0800
7F80
0800
FFC0
ENDCHAR
STARTCHAR 363A
ENCODING 13882
SWIDTH 990 0
DWIDTH 11 0
BBX 10 9 1 -1
BITMAP
4600
4B80
EB00
5A80
4A80
4B00
6A00
0900
08C0
ENDCHAR
STARTCHAR 363B
ENCODING 13883
SWIDTH 990 0
DWIDTH 11 0
BBX 9 10 1 0
BITMAP
5F80
5080
5280
DF80
5280
5280
5680
5080
1F80
1080
ENDCHAR
STARTCHAR 363C
ENCODING 13884
SWIDTH 990 0
DWIDTH 11 0
BBX 9 11 1 -2
BITMAP
4000
4500
4F00
4600
FF80
4400
4F00
C700
0100
0100
0200
ENDCHAR
STARTCHAR 363D
ENCODING 13885
SWIDTH 990 0
DWIDTH 11 0
BBX 9 11 1 -2
BITMAP
2400
2500
FD00
2400
FF80
2580
FE00
2200
2A80
DD80
1080
ENDCHAR
STARTCHAR 363E
ENCODING 13886
SWIDTH 990 0
DWIDTH 11 0
BBX 9 9 1 -1
BITMAP
4200
4F80
E080
4F00
4200
4F80
4200
0200
0600
ENDCHAR
STARTCHAR 363F
ENCODING 13887
SWIDTH 1080 0
DWIDTH 12 0
BBX 10 10 1 -2
BITMAP
4000
4F80
4880
EF80
4880
4F80
4400
7F80
0400
1FC0
ENDCHAR
STARTCHAR 3640
ENCODING 13888
SWIDTH 1080 0
DWIDTH 12 0
BBX 10 10 1 -2
BITMAP
4200
5D80
5080
E500
4A80
4F00
4500
0540
0940
11C0
ENDCHAR
STARTCHAR 3641
ENCODING 13889
SWIDTH 990 0
DWIDTH 11 0
BBX 9 9 1 -1
BITMAP
4800
4F80
4000
EF00
4B00
5F80
4900
7300
0D00
ENDCHAR
STARTCHAR 3642
ENCODING 13890
SWIDTH 990 0
DWIDTH 11 0
BBX 9 9 1 -1
BITMAP
4100
4200
FD00
4900
4F00
4A00
6A00
1280
0380
ENDCHAR
STARTCHAR 3643
ENCODING 13891
SWIDTH 1080 0
DWIDTH 12 0
BBX 10 9 1 -1
BITMAP
4080
4F00
EF80
4900
4900
7FC0
8000
0980
1040
ENDCHAR
STARTCHAR 3644
ENCODING 13892
SWIDTH 990 0
DWIDTH 11 0
BBX 9 10 1 -2
BITMAP
4900
4980
4D00
E900
4D80
4B80
4200
4F00
A200
1F80
ENDCHAR
STARTCHAR 3645
ENCODING 13893
SWIDTH 990 0
DWIDTH 11 0
BBX 9 9 1 -1
BITMAP
4F00
4900
6F00
4400
5F80
4600
6E00
9500
0400
ENDCHAR
STARTCHAR 3646
ENCODING 13894
SWIDTH 990 0
DWIDTH 11 0
BBX 10 11 1 -1
BITMAP
4000
4200
4FC0
E400
4F80
4400
4B00
6A00
9400
2880
0700
ENDCHAR
STARTCHAR 3647
ENCODING 13895
SWIDTH 1080 0
DWIDTH 12 0
BBX 10 10 1 -1
BITMAP
4000
4F80
4400
FC80
4700
4D00
5700
6680
8A40
0600
ENDCHAR
STARTCHAR 3648
ENCODING 13896
SWIDTH 990 0
DWIDTH 11 0
BBX 9 10 1 -1
BITMAP
4000
4380
5F80
F480
5680
5380
5700
5500
2500
2980
ENDCHAR
STARTCHAR 3649
ENCODING 13897
SWIDTH 990 0
DWIDTH 11 0
BBX 9 10 1 -2
BITMAP
0600
4600
5F80
F680
5F80
5680
5F80
8800
0980
1000
ENDCHAR
STARTCHAR 364A
ENCODING 13898
SWIDTH 990 0
DWIDTH 11 0
BBX 9 10 1 -1
BITMAP
4F00
4F00
E900
4F00
5F80
4C00
6B00
8A00
0D80
0800
ENDCHAR
STARTCHAR 364B
ENCODING 13899
SWIDTH 990 0
DWIDTH 11 0
BBX 9 10 1 -1
BITMAP
4900
4900
5F80
E900
4F00
4F00
4900
7F80
8900
1080
ENDCHAR
STARTCHAR 364C
ENCODING 13900
SWIDTH 990 0
DWIDTH 11 0
BBX 10 10 1 -2
BITMAP
4200
4F80
5FC0
6F80
4A00
5680
5780
F280
1280
0280
ENDCHAR
STARTCHAR 364D
ENCODING 13901
SWIDTH 990 0
DWIDTH 11 0
BBX 9 9 1 -1
BITMAP
5F80
4900
ED00
4280
5F80
4700
6B00
8D00
1280
ENDCHAR
STARTCHAR 364E
ENCODING 13902
SWIDTH 990 0
DWIDTH 11 0
BBX 9 9 1 0
BITMAP
4200
5F80
FE00
5A80
5F00
5500
7600
AF00
1080
ENDCHAR
STARTCHAR 364F
ENCODING 13903
SWIDTH 990 0
DWIDTH 11 0
BBX 8 10 2 -1
BITMAP
90
9E
BE
DE
9E
88
8E
DC
0C
33
ENDCHAR
STARTCHAR 3650
ENCODING 13904
SWIDTH 990 0
DWIDTH 11 0
BBX 9 10 1 -1
BITMAP
4A80
4A80
7F80
DF80
4400
5F80
5680
D680
1480
1000
ENDCHAR
STARTCHAR 3651
ENCODING 13905
SWIDTH 900 0
DWIDTH 10 0
BBX 10 11 0 -3
BITMAP
0100
3E00
3F00
3F00
7F80
4480
5B80
4480
7F00
0400
FFC0
ENDCHAR
STARTCHAR 3652
ENCODING 13906
SWIDTH 990 0
DWIDTH 11 0
BBX 9 10 1 -2
BITMAP
F300
D200
FF80
D200
F200
9600
0800
7F00
0800
FF80
ENDCHAR
STARTCHAR 3653
ENCODING 13907
SWIDTH 990 0
DWIDTH 11 0
BBX 9 10 1 -1
BITMAP
0800
3F00
0800
FF80
3200
7300
6F80
7F00
0800
FF80
ENDCHAR
STARTCHAR 3654
ENCODING 13908
SWIDTH 1080 0
DWIDTH 12 0
BBX 10 11 1 -1
BITMAP
4400
4F80
4480
5FC0
6F80
4880
4F80
4F80
9FC0
0200
0200
ENDCHAR
STARTCHAR 3655
ENCODING 13909
SWIDTH 990 0
DWIDTH 11 0
BBX 9 10 1 0
BITMAP
5F80
5280
5F80
F280
5F80
4F80
4F80
CF80
0880
0880
ENDCHAR
STARTCHAR 3656
ENCODING 13910
SWIDTH 1080 0
DWIDTH 12 0
BBX 10 10 1 -2
BITMAP
4180
4F80
EA80
4F80
4200
5FC0
7240
9540
1040
1080
ENDCHAR
STARTCHAR 3657
ENCODING 13911
SWIDTH 990 0
DWIDTH 11 0
BBX 9 9 1 -1
BITMAP
5F80
5280
5F80
DF80
4000
5F80
4B00
8B00
1C80
ENDCHAR
STARTCHAR 3658
ENCODING 13912
SWIDTH 990 0
DWIDTH 11 0
BBX 9 11 1 -1
BITMAP
4780
4500
4F80
ED80
4A00
4400
4F80
6900
8700
0480
0800
ENDCHAR
STARTCHAR 3659
ENCODING 13913
SWIDTH 1080 0
DWIDTH 12 0
BBX 10 9 1 -1
BITMAP
0500
BFC0
4680
4B80
5B40
67C0
0800
7F00
FFC0
ENDCHAR
STARTCHAR 365A
ENCODING 13914
SWIDTH 990 0
DWIDTH 11 0
BBX 9 9 1 -2
BITMAP
0800
4600
4F80
E000
4F00
4F00
7400
9F80
0400
ENDCHAR
STARTCHAR 365B
ENCODING 13915
SWIDTH 990 0
DWIDTH 11 0
BBX 10 10 1 -1
BITMAP
4500
4400
5F80
F480
5F80
5F80
5500
5FC0
0900
0300
ENDCHAR
STARTCHAR 365C
ENCODING 13916
SWIDTH 990 0
DWIDTH 11 0
BBX 11 11 0 -2
BITMAP
0400
7FC0
3F00
3F00
7FC0
5E40
4040
44C0
3F80
0400
FFE0
ENDCHAR
STARTCHAR 365D
ENCODING 13917
SWIDTH 990 0
DWIDTH 11 0
BBX 10 10 1 -1
BITMAP
0200
4F80
4D80
EB40
4D40
5400
4F80
4F80
AF80
0880
ENDCHAR
STARTCHAR 365E
ENCODING 13918
SWIDTH 990 0
DWIDTH 11 0
BBX 9 10 1 -2
BITMAP
4000
5F00
5F00
F100
5F00
5F00
5F80
4C00
9600
0580
ENDCHAR
STARTCHAR 365F
ENCODING 13919
SWIDTH 990 0
DWIDTH 11 0
BBX 9 10 1 -2
BITMAP
0800
5F80
5680
FF80
5E80
5780
5A80
9E80
1480
0100
ENDCHAR
STARTCHAR 3660
ENCODING 13920
SWIDTH 990 0
DWIDTH 11 0
BBX 9 10 1 0
BITMAP
FF00
D500
E480
F700
D200
FD80
0800
7F00
0800
FF80
ENDCHAR
STARTCHAR 3661
ENCODING 13921
SWIDTH 1080 0
DWIDTH 12 0
BBX 9 10 1 0
BITMAP
4A80
5500
4780
F100
5100
5500
5580
5500
1B00
1080
ENDCHAR
STARTCHAR 3662
ENCODING 13922
SWIDTH 990 0
DWIDTH 11 0
BBX 9 10 1 -1
BITMAP
4900
5F80
6F00
EA00
5F80
5280
5B80
9680
1680
1000
ENDCHAR
STARTCHAR 3663
ENCODING 13923
SWIDTH 1080 0
DWIDTH 12 0
BBX 10 9 1 -1
BITMAP
5B80
4B80
FA00
5380
5FC0
4E80
4D00
0C80
1E40
ENDCHAR
STARTCHAR 3664
ENCODING 13924
SWIDTH 990 0
DWIDTH 11 0
BBX 9 11 1 -1
BITMAP
4200
4380
5F80
F500
5600
5700
6F00
EF80
A100
2100
0200
ENDCHAR
STARTCHAR 3665
ENCODING 13925
SWIDTH 1080 0
DWIDTH 12 0
BBX 10 10 1 -2
BITMAP
4200
5FC0
4C00
5500
4900
4600
4680
4900
B900
0CC0
ENDCHAR
STARTCHAR 3666
ENCODING 13926
SWIDTH 990 0
DWIDTH 11 0
BBX 9 10 1 -1
BITMAP
2100
5300
7900
F900
7380
E900
0800
7F00
0800
FF80
ENDCHAR
STARTCHAR 3667
ENCODING 13927
SWIDTH 990 0
DWIDTH 11 0
BBX 8 10 2 -1
BITMAP
BF
8C
BB
BB
88
BF
BF
25
3F
20
ENDCHAR
STARTCHAR 3668
ENCODING 13928
SWIDTH 1080 0
DWIDTH 12 0
BBX 10 10 1 -1
BITMAP
4A00
5780
EB00
5780
4A00
5FC0
7280
9540
02C0
0400
ENDCHAR
STARTCHAR 3669
ENCODING 13929
SWIDTH 1080 0
DWIDTH 12 0
BBX 10 10 1 -2
BITMAP
4200
5FC0
4680
E900
4F80
4F00
4F00
4200
9B80
0600
ENDCHAR
STARTCHAR 366A
ENCODING 13930
SWIDTH 990 0
DWIDTH 11 0
BBX 9 10 1 -2
BITMAP
4200
5F80
4F00
EF80
5000
4700
4F00
6F00
8000
1F80
ENDCHAR
STARTCHAR 366B
ENCODING 13931
SWIDTH 1080 0
DWIDTH 12 0
BBX 10 10 1 -1
BITMAP
4800
4F80
EA00
4F80
4FC0
4200
5FC0
8600
0B80
0200
ENDCHAR
STARTCHAR 366C
ENCODING 13932
SWIDTH 990 0
DWIDTH 11 0
BBX 9 10 1 -1
BITMAP
2300
FA00
B780
BA00
3500
6D00
A880
7F00
0800
FF80
ENDCHAR
STARTCHAR 366D
ENCODING 13933
SWIDTH 1080 0
DWIDTH 12 0
BBX 10 9 1 -1
BITMAP
5FC0
5100
FFC0
5C80
5F00
5F00
5700
AA80
2840
ENDCHAR
STARTCHAR 366E
ENCODING 13934
SWIDTH 1080 0
DWIDTH 12 0
BBX 10 11 1 -2
BITMAP
4900
4FC0
4400
E200
4500
4FC0
4F80
C880
0880
0F80
0800
ENDCHAR
STARTCHAR 366F
ENCODING 13935
SWIDTH 990 0
DWIDTH 11 0
BBX 9 11 1 -1
BITMAP
2200
7200
FF00
2F00
7500
3080
7F00
FF80
1200
7F00
4000
ENDCHAR
STARTCHAR 3670
ENCODING 13936
SWIDTH 990 0
DWIDTH 11 0
BBX 10 11 0 -2
BITMAP
23C0
7A40
DAC0
D800
7BC0
7BC0
5900
0500
3F80
0400
7FC0
ENDCHAR
STARTCHAR 3671
ENCODING 13937
SWIDTH 990 0
DWIDTH 11 0
BBX 9 10 1 -2
BITMAP
E300
EF80
FF00
E900
3380
5580
4800
7F00
0800
FF80
ENDCHAR
STARTCHAR 3672
ENCODING 13938
SWIDTH 990 0
DWIDTH 11 0
BBX 10 10 1 -2
BITMAP
4200
5FC0
4900
5780
5B00
4B80
5700
CB80
0B00
1380
ENDCHAR
STARTCHAR 3673
ENCODING 13939
SWIDTH 990 0
DWIDTH 11 0
BBX 9 10 1 -1
BITMAP
4000
4200
5F80
FE00
5F00
5B00
5F80
4080
1980
1F00
ENDCHAR
STARTCHAR 3674
ENCODING 13940
SWIDTH 990 0
DWIDTH 11 0
BBX 10 11 1 -1
BITMAP
4400
4700
4FC0
E880
4FC0
4800
4F80
5F80
F780
1780
2000
ENDCHAR
STARTCHAR 3675
ENCODING 13941
SWIDTH 990 0
DWIDTH 11 0
BBX 9 11 1 -2
BITMAP
4200
5F80
4F80
E000
5F80
5780
5580
5280
8F80
0200
1F80
ENDCHAR
STARTCHAR 3676
ENCODING 13942
SWIDTH 1080 0
DWIDTH 12 0
BBX 10 11 1 -2
BITMAP
0400
FFC0
3F00
3F00
3500
7FC0
3F80
3F00
7F80
0400
FFC0
ENDCHAR
STARTCHAR 3677
ENCODING 13943
SWIDTH 990 0
DWIDTH 11 0
BBX 9 9 1 -1
BITMAP
5F80
5F80
DF80
4880
5500
6880
7500
1980
2500
ENDCHAR
STARTCHAR 3678
ENCODING 13944
SWIDTH 1080 0
DWIDTH 12 0
BBX 10 10 1 -2
BITMAP
0300
5300
5780
F480
5300
57C0
5780
5FC0
1300
14C0
ENDCHAR
STARTCHAR 3679
ENCODING 13945
SWIDTH 990 0
DWIDTH 11 0
BBX 10 10 1 0
BITMAP
4500
5F80
5580
F580
5FC0
6480
4F00
9D00
0600
1800
ENDCHAR
STARTCHAR 367A
ENCODING 13946
SWIDTH 990 0
DWIDTH 11 0
BBX 10 9 1 -1
BITMAP
5FC0
5F80
F200
5FC0
5F80
5F80
5F80
1480
1FC0
ENDCHAR
STARTCHAR 367B
ENCODING 13947
SWIDTH 990 0
DWIDTH 11 0
BBX 9 10 1 0
BITMAP
4600
5F80
5F80
FF80
5F80
5F00
5F80
DA80
AF00
2F80
ENDCHAR
STARTCHAR 367C
ENCODING 13948
SWIDTH 1080 0
DWIDTH 12 0
BBX 10 10 1 0
BITMAP
4F80
4F80
4A80
EF80
4800
5DC0
7DC0
9DC0
1DC0
1140
ENDCHAR
STARTCHAR 367D
ENCODING 13949
SWIDTH 1080 0
DWIDTH 12 0
BBX 9 9 1 -1
BITMAP
4200
5F80
E300
5B80
5B80
7B80
4600
8900
0080
ENDCHAR
STARTCHAR 367E
ENCODING 13950
SWIDTH 1080 0
DWIDTH 12 0
BBX 10 11 1 -1
BITMAP
5380
5880
7A80
F080
6F40
6F00
4200
5FC0
8200
0200
0400
ENDCHAR
STARTCHAR 367F
ENCODING 13951
SWIDTH 990 0
DWIDTH 11 0
BBX 9 10 1 -2
BITMAP
4600
5F80
4F80
5000
4E80
5F80
5A80
D680
9F00
2680
ENDCHAR
STARTCHAR 3680
ENCODING 13952
SWIDTH 990 0
DWIDTH 11 0
BBX 9 10 1 -1
BITMAP
4100
4780
5F00
F900
5700
5F80
5F80
5F00
2380
2E00
ENDCHAR
STARTCHAR 3681
ENCODING 13953
SWIDTH 990 0
DWIDTH 11 0
BBX 10 11 0 -2
BITMAP
0100
7780
2100
F7C0
F680
7680
F000
33C0
5340
5540
10C0
ENDCHAR
STARTCHAR 3682
ENCODING 13954
SWIDTH 1080 0
DWIDTH 12 0
BBX 9 11 2 -2
BITMAP
8400
9F00
9F00
9F00
9B00
9B00
BF80
FA80
2F80
1A00
0100
ENDCHAR
STARTCHAR 3683
ENCODING 13955
SWIDTH 990 0
DWIDTH 11 0
BBX 9 10 1 -1
BITMAP
0400
7F80
1F00
0000
7F80
8300
2F00
3F00
1000
FF80
ENDCHAR
STARTCHAR 3684
ENCODING 13956
SWIDTH 1080 0
DWIDTH 12 0
BBX 10 11 1 -3
BITMAP
0C00
7F80
3F80
7FC0
BF00
3F00
3F00
7FC0
2700
5400
8FC0
ENDCHAR
STARTCHAR 3685
ENCODING 13957
SWIDTH 990 0
DWIDTH 11 0
BBX 9 10 1 0
BITMAP
2000
3E00
6200
1C00
FF00
0800
7E00
3E00
0800
FF80
ENDCHAR
STARTCHAR 3686
ENCODING 13958
SWIDTH 990 0
DWIDTH 11 0
BBX 10 11 0 -2
BITMAP
0800
0000
FFC0
3F00
3F00
3F00
1F00
3200
0C00
33C0
C080
ENDCHAR
STARTCHAR 3687
ENCODING 13959
SWIDTH 990 0
DWIDTH 11 0
BBX 9 11 1 -1
BITMAP
0200
5D00
5500
6300
7F00
2200
DE00
3400
4C00
1400
6380
ENDCHAR
STARTCHAR 3688
ENCODING 13960
SWIDTH 990 0
DWIDTH 11 0
BBX 10 10 0 -1
BITMAP
0100
2100
3D00
47C0
6900
1100
1100
2100
4100
8100
ENDCHAR
STARTCHAR 3689
ENCODING 13961
SWIDTH 990 0
DWIDTH 11 0
BBX 9 11 1 -1
BITMAP
FE00
2400
2780
5C80
B900
1400
2F00
1100
2600
1800
6000
ENDCHAR
STARTCHAR 368A
ENCODING 13962
SWIDTH 990 0
DWIDTH 11 0
BBX 9 10 1 -2
BITMAP
0200
7200
EF80
6400
4900
F680
9580
2200
4500
8880
ENDCHAR
STARTCHAR 368B
ENCODING 13963
SWIDTH 1080 0
DWIDTH 12 0
BBX 10 10 1 0
BITMAP
27C0
4D40
7D40
2540
7440
7FC0
56C0
17C0
2840
C840
ENDCHAR
STARTCHAR 368C
ENCODING 13964
SWIDTH 1080 0
DWIDTH 12 0
BBX 10 9 1 -1
BITMAP
77C0
D7C0
2540
67C0
57C0
5300
2580
2100
C940
ENDCHAR
STARTCHAR 368D
ENCODING 13965
SWIDTH 990 0
DWIDTH 11 0
BBX 9 11 1 -1
BITMAP
0200
5F80
7A80
EF80
4F80
0F80
7F00
6900
2F00
2F00
4800
ENDCHAR
STARTCHAR 368E
ENCODING 13966
SWIDTH 990 0
DWIDTH 11 0
BBX 9 9 1 -1
BITMAP
1000
FF00
2800
2600
C180
4200
4200
7E00
4200
ENDCHAR
STARTCHAR 368F
ENCODING 13967
SWIDTH 900 0
DWIDTH 10 0
BBX 9 10 0 -2
BITMAP
0800
0800
7F80
1400
2300
C200
FF80
2200
2200
4200
ENDCHAR
STARTCHAR 3690
ENCODING 13968
SWIDTH 900 0
DWIDTH 10 0
BBX 8 11 1 -2
BITMAP
10
FF
18
26
49
90
FF
18
24
43
80
ENDCHAR
STARTCHAR 3691
ENCODING 13969
SWIDTH 990 0
DWIDTH 11 0
BBX 9 10 1 -1
BITMAP
7F00
0100
7F00
7F00
0800
FF80
1800
1400
2300
C080
ENDCHAR
STARTCHAR 3692
ENCODING 13970
SWIDTH 990 0
DWIDTH 11 0
BBX 9 11 1 -1
BITMAP
0800
0800
FF80
0800
4B00
6980
0A80
1400
1200
2100
C080
ENDCHAR
STARTCHAR 3693
ENCODING 13971
SWIDTH 990 0
DWIDTH 11 0
BBX 9 10 1 -1
BITMAP
0800
FF00
0800
1600
2100
FF80
1C00
2A00
4900
0800
ENDCHAR
STARTCHAR 3694
ENCODING 13972
SWIDTH 990 0
DWIDTH 11 0
BBX 9 10 1 -2
BITMAP
0800
7F80
1400
2200
D580
7F00
0800
FF80
0800
0800
ENDCHAR
STARTCHAR 3695
ENCODING 13973
SWIDTH 990 0
DWIDTH 11 0
BBX 9 10 1 -1
BITMAP
0800
FF00
2200
5580
FF00
1500
7F00
FF00
2500
4500
ENDCHAR
STARTCHAR 3696
ENCODING 13974
SWIDTH 990 0
DWIDTH 11 0
BBX 9 9 1 -1
BITMAP
7F00
4100
7F00
7F00
0800
FF80
1400
2200
C180
ENDCHAR
STARTCHAR 3697
ENCODING 13975
SWIDTH 1080 0
DWIDTH 12 0
BBX 10 11 1 -3
BITMAP
0800
0800
FF80
1400
2300
7E80
2200
3E00
3E00
2200
FFC0
ENDCHAR
STARTCHAR 3698
ENCODING 13976
SWIDTH 900 0
DWIDTH 10 0
BBX 9 10 0 -1
BITMAP
2200
2200
2780
7200
2200
F780
2200
3300
4500
4480
ENDCHAR
STARTCHAR 3699
ENCODING 13977
SWIDTH 990 0
DWIDTH 11 0
BBX 10 10 0 -1
BITMAP
2000
7F80
2C80
4F80
1400
FFC0
0C00
1200
21C0
4000
ENDCHAR
STARTCHAR 369A
ENCODING 13978
SWIDTH 990 0
DWIDTH 11 0
BBX 9 9 1 -1
BITMAP
0800
FF00
2400
DF80
2400
1800
FE00
2200
3E00
ENDCHAR
STARTCHAR 369B
ENCODING 13979
SWIDTH 1080 0
DWIDTH 12 0
BBX 9 9 2 -1
BITMAP
1100
FF00
4F80
F200
7E00
7E00
7E00
4200
7E00
ENDCHAR
STARTCHAR 369C
ENCODING 13980
SWIDTH 1080 0
DWIDTH 12 0
BBX 9 11 1 -1
BITMAP
0800
FF80
1200
6580
7F80
7500
5500
7600
1200
6D80
1000
ENDCHAR
STARTCHAR 369D
ENCODING 13981
SWIDTH 990 0
DWIDTH 11 0
BBX 9 10 0 -2
BITMAP
0800
7F80
1400
3780
E500
2600
7F80
2400
2600
3F80
ENDCHAR
STARTCHAR 369E
ENCODING 13982
SWIDTH 990 0
DWIDTH 11 0
BBX 9 10 1 -2
BITMAP
0800
FF80
1400
6300
2200
F780
2200
6F00
AA80
2200
ENDCHAR
STARTCHAR 369F
ENCODING 13983
SWIDTH 990 0
DWIDTH 11 0
BBX 10 11 0 -1
BITMAP
1000
1E00
3F80
3F80
3F80
2480
3780
7F80
0A00
31C0
C000
ENDCHAR
STARTCHAR 36A0
ENCODING 13984
SWIDTH 990 0
DWIDTH 11 0
BBX 9 10 1 -1
BITMAP
0080
FF80
1200
7100
7E00
0800
3E00
FF80
5000
9080
ENDCHAR
STARTCHAR 36A1
ENCODING 13985
SWIDTH 990 0
DWIDTH 11 0
BBX 10 10 1 -1
BITMAP
4200
FF80
4200
B580
FFC0
DE80
DA80
DE80
1080
2100
ENDCHAR
STARTCHAR 36A2
ENCODING 13986
SWIDTH 990 0
DWIDTH 11 0
BBX 9 11 1 -1
BITMAP
2400
4400
4800
5F80
C900
5200
5200
4E00
4500
4880
1000
ENDCHAR
STARTCHAR 36A3
ENCODING 13987
SWIDTH 900 0
DWIDTH 10 0
BBX 10 11 0 -1
BITMAP
0800
7F80
1200
1C00
1B80
2800
FFC0
2200
1E00
3980
4000
ENDCHAR
STARTCHAR 36A4
ENCODING 13988
SWIDTH 990 0
DWIDTH 11 0
BBX 9 9 1 -1
BITMAP
4600
4500
F400
5500
A600
A400
6400
5200
8180
ENDCHAR
STARTCHAR 36A5
ENCODING 13989
SWIDTH 990 0
DWIDTH 11 0
BBX 9 10 1 -1
BITMAP
4000
4F80
4200
F200
5F80
A200
A200
6200
5200
8E00
ENDCHAR
STARTCHAR 36A6
ENCODING 13990
SWIDTH 990 0
DWIDTH 11 0
BBX 9 10 1 -2
BITMAP
4000
4000
4F80
F500
5500
A500
A500
6900
5900
8100
ENDCHAR
STARTCHAR 36A7
ENCODING 13991
SWIDTH 1080 0
DWIDTH 12 0
BBX 9 9 1 -1
BITMAP
4100
F680
5400
5400
9400
A400
6400
5800
4800
ENDCHAR
STARTCHAR 36A8
ENCODING 13992
SWIDTH 990 0
DWIDTH 11 0
BBX 9 9 1 0
BITMAP
4F00
4500
F500
5500
AF00
A500
6500
5500
8480
ENDCHAR
STARTCHAR 36A9
ENCODING 13993
SWIDTH 990 0
DWIDTH 11 0
BBX 10 9 0 0
BITMAP
4780
4480
F480
5FC0
5480
AFC0
6480
4480
4480
ENDCHAR
STARTCHAR 36AA
ENCODING 13994
SWIDTH 1080 0
DWIDTH 12 0
BBX 10 9 1 -1
BITMAP
4080
4300
F600
5280
6F00
A240
6F80
5240
03C0
ENDCHAR
STARTCHAR 36AB
ENCODING 13995
SWIDTH 990 0
DWIDTH 11 0
BBX 10 10 1 -2
BITMAP
2000
4F80
4500
F500
5580
6480
A480
6B00
5900
16C0
ENDCHAR
STARTCHAR 36AC
ENCODING 13996
SWIDTH 990 0
DWIDTH 11 0
BBX 9 10 1 -1
BITMAP
4C00
4800
8F80
F080
B080
A680
C180
4680
4880
0300
ENDCHAR
STARTCHAR 36AD
ENCODING 13997
SWIDTH 990 0
DWIDTH 11 0
BBX 10 10 0 -1
BITMAP
2200
4280
F200
57C0
5300
5300
6500
3540
4940
01C0
ENDCHAR
STARTCHAR 36AE
ENCODING 13998
SWIDTH 990 0
DWIDTH 11 0
BBX 10 10 0 -2
BITMAP
2000
47C0
F880
5000
5700
6500
A500
7540
5940
09C0
ENDCHAR
STARTCHAR 36AF
ENCODING 13999
SWIDTH 990 0
DWIDTH 11 0
BBX 9 10 1 -2
BITMAP
4000
4F00
FB00
AF00
AD00
AD00
AF00
6900
5180
9080
ENDCHAR
STARTCHAR 36B0
ENCODING 14000
SWIDTH 990 0
DWIDTH 11 0
BBX 9 9 1 -1
BITMAP
4F80
4200
F200
5200
6600
AA80
6200
5200
0F80
ENDCHAR
STARTCHAR 36B1
ENCODING 14001
SWIDTH 990 0
DWIDTH 11 0
BBX 9 9 1 -1
BITMAP
4100
FE00
A800
AF80
A900
A900
4900
4900
9F80
ENDCHAR
STARTCHAR 36B2
ENCODING 14002
SWIDTH 990 0
DWIDTH 11 0
BBX 9 10 1 -1
BITMAP
4200
4200
F380
5200
5200
AF80
A880
5880
4F80
8880
ENDCHAR
STARTCHAR 36B3
ENCODING 14003
SWIDTH 990 0
DWIDTH 11 0
BBX 9 10 1 -2
BITMAP
4800
8800
FD80
AD80
AD80
CD80
4D80
7580
9580
8400
ENDCHAR
STARTCHAR 36B4
ENCODING 14004
SWIDTH 990 0
DWIDTH 11 0
BBX 10 10 0 -2
BITMAP
2200
4200
4FC0
F400
57C0
5540
AD40
6540
5540
0500
ENDCHAR
STARTCHAR 36B5
ENCODING 14005
SWIDTH 900 0
DWIDTH 10 0
BBX 9 10 0 -1
BITMAP
2200
4780
FC80
5B00
5100
5680
6B00
2100
4300
0080
ENDCHAR
STARTCHAR 36B6
ENCODING 14006
SWIDTH 990 0
DWIDTH 11 0
BBX 10 11 0 -1
BITMAP
2000
47C0
4480
FC80
5780
5400
57C0
2440
2440
47C0
0400
ENDCHAR
STARTCHAR 36B7
ENCODING 14007
SWIDTH 990 0
DWIDTH 11 0
BBX 10 11 0 -1
BITMAP
2100
4300
F480
5540
5100
5380
6540
3900
4900
4500
0200
ENDCHAR
STARTCHAR 36B8
ENCODING 14008
SWIDTH 990 0
DWIDTH 11 0
BBX 9 10 1 -1
BITMAP
4000
4F80
E280
AF80
AE80
AA80
4E80
6080
8080
0180
ENDCHAR
STARTCHAR 36B9
ENCODING 14009
SWIDTH 1080 0
DWIDTH 12 0
BBX 10 9 1 -1
BITMAP
4000
4DC0
FD40
5D40
6D40
AD40
6D40
5900
0900
ENDCHAR
STARTCHAR 36BA
ENCODING 14010
SWIDTH 990 0
DWIDTH 11 0
BBX 10 10 0 -1
BITMAP
2F80
4480
F4C0
57C0
51C0
AFC0
6100
3100
4100
0200
ENDCHAR
STARTCHAR 36BB
ENCODING 14011
SWIDTH 990 0
DWIDTH 11 0
BBX 9 11 1 -2
BITMAP
7F00
4900
7F00
4900
7F00
FF80
2400
1C00
0A00
3100
4000
ENDCHAR
STARTCHAR 36BC
ENCODING 14012
SWIDTH 990 0
DWIDTH 11 0
BBX 9 9 1 -1
BITMAP
4000
4F80
FA80
6A80
AF80
AA80
6A80
5F80
0880
ENDCHAR
STARTCHAR 36BD
ENCODING 14013
SWIDTH 1080 0
DWIDTH 12 0
BBX 10 10 1 -1
BITMAP
1F80
F400
2780
2080
6100
1300
FFC0
2400
1F00
7000
ENDCHAR
STARTCHAR 36BE
ENCODING 14014
SWIDTH 1080 0
DWIDTH 12 0
BBX 10 10 1 -2
BITMAP
4000
4F80
4880
F880
AF80
A600
A600
4600
4A40
93C0
ENDCHAR
STARTCHAR 36BF
ENCODING 14015
SWIDTH 990 0
DWIDTH 11 0
BBX 9 9 1 -1
BITMAP
4800
8F00
EF00
AB00
AB00
AF00
CB00
6880
8F80
ENDCHAR
STARTCHAR 36C0
ENCODING 14016
SWIDTH 990 0
DWIDTH 11 0
BBX 10 11 0 -2
BITMAP
2200
2200
4580
F980
5FC0
5040
5040
67C0
3040
47C0
0040
ENDCHAR
STARTCHAR 36C1
ENCODING 14017
SWIDTH 990 0
DWIDTH 11 0
BBX 10 11 0 -2
BITMAP
2000
27C0
2100
FD40
5500
5FC0
5100
2100
2100
4100
0100
ENDCHAR
STARTCHAR 36C2
ENCODING 14018
SWIDTH 1080 0
DWIDTH 12 0
BBX 10 9 1 -1
BITMAP
4080
4F00
AF80
AE80
AE80
AD00
5400
7440
97C0
ENDCHAR
STARTCHAR 36C3
ENCODING 14019
SWIDTH 990 0
DWIDTH 11 0
BBX 9 11 1 -1
BITMAP
2000
2780
7A80
2280
FD00
3900
FF80
2400
1C00
0B00
7080
ENDCHAR
STARTCHAR 36C4
ENCODING 14020
SWIDTH 1080 0
DWIDTH 12 0
BBX 10 10 1 -1
BITMAP
4200
4200
4FC0
F200
6200
A680
AF00
6500
5480
0400
ENDCHAR
STARTCHAR 36C5
ENCODING 14021
SWIDTH 990 0
DWIDTH 11 0
BBX 10 9 0 -1
BITMAP
2000
4FC0
F480
5780
5480
6780
6480
5780
4080
ENDCHAR
STARTCHAR 36C6
ENCODING 14022
SWIDTH 990 0
DWIDTH 11 0
BBX 9 9 1 -1
BITMAP
4F00
4580
F500
A900
B300
BF80
4A00
5300
A280
ENDCHAR
STARTCHAR 36C7
ENCODING 14023
SWIDTH 990 0
DWIDTH 11 0
BBX 9 10 1 -2
BITMAP
4000
4200
4F80
FA00
AA00
AA00
AF80
AA00
6A00
9F80
ENDCHAR
STARTCHAR 36C8
ENCODING 14024
SWIDTH 1080 0
DWIDTH 12 0
BBX 10 11 1 -2
BITMAP
0200
4200
4780
F280
5FC0
5200
A780
6780
3080
4080
0100
ENDCHAR
STARTCHAR 36C9
ENCODING 14025
SWIDTH 990 0
DWIDTH 11 0
BBX 9 10 1 -1
BITMAP
4000
4F80
F500
6F80
AD80
AD80
6980
2880
5F80
8880
ENDCHAR
STARTCHAR 36CA
ENCODING 14026
SWIDTH 1080 0
DWIDTH 12 0
BBX 10 9 1 -1
BITMAP
4700
4500
F500
6980
A200
AFC0
A600
5B00
0280
ENDCHAR
STARTCHAR 36CB
ENCODING 14027
SWIDTH 990 0
DWIDTH 11 0
BBX 9 10 1 0
BITMAP
4400
8C00
EA00
B100
B480
A500
B680
5680
8400
0400
ENDCHAR
STARTCHAR 36CC
ENCODING 14028
SWIDTH 990 0
DWIDTH 11 0
BBX 9 9 1 -1
BITMAP
4000
4C00
EF80
A600
AF80
B200
7F80
4200
8200
ENDCHAR
STARTCHAR 36CD
ENCODING 14029
SWIDTH 990 0
DWIDTH 11 0
BBX 9 10 1 -1
BITMAP
4200
4200
EF80
A200
AB00
B680
B300
4600
6500
8880
ENDCHAR
STARTCHAR 36CE
ENCODING 14030
SWIDTH 990 0
DWIDTH 11 0
BBX 9 10 1 -1
BITMAP
4F80
4880
F880
5F80
5000
AF80
6880
3880
4F80
8880
ENDCHAR
STARTCHAR 36CF
ENCODING 14031
SWIDTH 990 0
DWIDTH 11 0
BBX 10 10 0 0
BITMAP
2100
4100
F7C0
5100
5500
6380
2580
3140
4100
0200
ENDCHAR
STARTCHAR 36D0
ENCODING 14032
SWIDTH 1080 0
DWIDTH 12 0
BBX 10 9 1 0
BITMAP
4FC0
FF80
5A80
6F80
AA80
AF80
6200
5600
8980
ENDCHAR
STARTCHAR 36D1
ENCODING 14033
SWIDTH 990 0
DWIDTH 11 0
BBX 9 11 1 -2
BITMAP
2000
7700
7D00
5600
2600
5100
FF80
2400
1C00
1300
E000
ENDCHAR
STARTCHAR 36D2
ENCODING 14034
SWIDTH 990 0
DWIDTH 11 0
BBX 10 10 1 -2
BITMAP
4000
5F80
EF80
A880
A880
AF80
C000
6100
8600
1FC0
ENDCHAR
STARTCHAR 36D3
ENCODING 14035
SWIDTH 900 0
DWIDTH 10 0
BBX 9 9 0 -1
BITMAP
4300
4100
7680
5F80
6500
A780
6D80
5580
0100
ENDCHAR
STARTCHAR 36D4
ENCODING 14036
SWIDTH 990 0
DWIDTH 11 0
BBX 9 10 1 -1
BITMAP
4400
4700
FD00
6200
AF80
AF80
A200
6F00
5F80
8200
ENDCHAR
STARTCHAR 36D5
ENCODING 14037
SWIDTH 1080 0
DWIDTH 12 0
BBX 10 9 1 -1
BITMAP
4F80
4880
FF80
5FC0
AA80
AF80
6800
5840
0FC0
ENDCHAR
STARTCHAR 36D6
ENCODING 14038
SWIDTH 990 0
DWIDTH 11 0
BBX 10 9 1 0
BITMAP
4200
4400
7F80
5580
6C40
A780
6D00
5200
8D80
ENDCHAR
STARTCHAR 36D7
ENCODING 14039
SWIDTH 990 0
DWIDTH 11 0
BBX 10 9 1 -1
BITMAP
4200
4680
FA80
5A80
6F40
A280
6F80
3200
CF80
ENDCHAR
STARTCHAR 36D8
ENCODING 14040
SWIDTH 990 0
DWIDTH 11 0
BBX 10 9 0 -1
BITMAP
2100
47C0
F100
56C0
5780
5100
2FC0
3100
4100
ENDCHAR
STARTCHAR 36D9
ENCODING 14041
SWIDTH 990 0
DWIDTH 11 0
BBX 10 10 1 -1
BITMAP
4200
4F80
F400
5500
6FC0
A200
6F80
5200
0200
0200
ENDCHAR
STARTCHAR 36DA
ENCODING 14042
SWIDTH 990 0
DWIDTH 11 0
BBX 9 11 1 -1
BITMAP
4000
4F00
4600
F280
6F80
AA80
AF80
6F80
2A80
5A80
0800
ENDCHAR
STARTCHAR 36DB
ENCODING 14043
SWIDTH 990 0
DWIDTH 11 0
BBX 10 11 1 -2
BITMAP
4400
4F80
F880
AF80
AFC0
BF80
C180
2280
4480
9A80
0100
ENDCHAR
STARTCHAR 36DC
ENCODING 14044
SWIDTH 990 0
DWIDTH 11 0
BBX 9 11 1 -2
BITMAP
2400
4780
5D00
5200
5500
0800
FF80
1400
0C00
1300
6000
ENDCHAR
STARTCHAR 36DD
ENCODING 14045
SWIDTH 990 0
DWIDTH 11 0
BBX 9 10 1 -2
BITMAP
4000
4F80
4880
FF80
6880
AF80
A880
AF80
6400
C980
ENDCHAR
STARTCHAR 36DE
ENCODING 14046
SWIDTH 990 0
DWIDTH 11 0
BBX 9 9 1 -1
BITMAP
4F80
4F80
F200
6F80
A500
AF80
6500
5500
0900
ENDCHAR
STARTCHAR 36DF
ENCODING 14047
SWIDTH 990 0
DWIDTH 11 0
BBX 9 11 1 -2
BITMAP
4400
4600
FA00
AF00
AB00
AB00
BF80
4600
4600
8980
1000
ENDCHAR
STARTCHAR 36E0
ENCODING 14048
SWIDTH 990 0
DWIDTH 11 0
BBX 9 10 1 -1
BITMAP
4400
4780
F880
6B80
AD80
AB80
AD80
6B80
5880
0880
ENDCHAR
STARTCHAR 36E1
ENCODING 14049
SWIDTH 990 0
DWIDTH 11 0
BBX 9 11 1 -2
BITMAP
4000
4C80
4F80
7800
5700
6000
AF80
A600
6600
4A80
8380
ENDCHAR
STARTCHAR 36E2
ENCODING 14050
SWIDTH 990 0
DWIDTH 11 0
BBX 9 10 1 -1
BITMAP
4700
4200
FF80
6700
A200
AF00
6580
5480
8900
1100
ENDCHAR
STARTCHAR 36E3
ENCODING 14051
SWIDTH 990 0
DWIDTH 11 0
BBX 9 9 1 0
BITMAP
4F80
4880
FF80
6F80
A880
AA80
6C80
5600
8900
ENDCHAR
STARTCHAR 36E4
ENCODING 14052
SWIDTH 1080 0
DWIDTH 12 0
BBX 10 9 1 0
BITMAP
4FC0
FFC0
5B40
6B40
AFC0
ABC0
6B40
5B40
8B40
ENDCHAR
STARTCHAR 36E5
ENCODING 14053
SWIDTH 990 0
DWIDTH 11 0
BBX 9 11 1 -2
BITMAP
4200
4200
4E80
FB00
AA00
B600
AF80
6F80
5880
8F80
0880
ENDCHAR
STARTCHAR 36E6
ENCODING 14054
SWIDTH 990 0
DWIDTH 11 0
BBX 10 9 0 0
BITMAP
4500
4500
7FC0
6580
6580
A580
AD80
6540
4500
ENDCHAR
STARTCHAR 36E7
ENCODING 14055
SWIDTH 990 0
DWIDTH 11 0
BBX 9 10 1 -1
BITMAP
4A80
4A80
FA80
AF80
AF80
A400
A780
6C80
8780
0400
ENDCHAR
STARTCHAR 36E8
ENCODING 14056
SWIDTH 990 0
DWIDTH 11 0
BBX 10 10 1 -2
BITMAP
4480
4100
F680
5780
6200
AFC0
6300
5500
4940
81C0
ENDCHAR
STARTCHAR 36E9
ENCODING 14057
SWIDTH 990 0
DWIDTH 11 0
BBX 10 10 0 -1
BITMAP
2100
4FC0
7400
57C0
57C0
5440
67C0
3440
4440
8400
ENDCHAR
STARTCHAR 36EA
ENCODING 14058
SWIDTH 990 0
DWIDTH 11 0
BBX 9 9 1 -1
BITMAP
4200
4F80
F500
AF80
AB00
AF00
6F80
4280
8380
ENDCHAR
STARTCHAR 36EB
ENCODING 14059
SWIDTH 990 0
DWIDTH 11 0
BBX 10 10 0 -1
BITMAP
2780
4780
F480
5780
53C0
6740
2580
3A80
4480
8880
ENDCHAR
STARTCHAR 36EC
ENCODING 14060
SWIDTH 990 0
DWIDTH 11 0
BBX 10 10 1 -2
BITMAP
4200
4F80
F200
5FC0
A400
AA80
6F80
5200
4200
8FC0
ENDCHAR
STARTCHAR 36ED
ENCODING 14061
SWIDTH 990 0
DWIDTH 11 0
BBX 10 11 0 -1
BITMAP
2280
2280
47C0
F280
5280
5540
57C0
27C0
3440
47C0
8440
ENDCHAR
STARTCHAR 36EE
ENCODING 14062
SWIDTH 990 0
DWIDTH 11 0
BBX 9 12 1 -3
BITMAP
0200
4A80
4F80
7200
5300
6A00
A580
AF00
6900
5600
0500
0800
ENDCHAR
STARTCHAR 36EF
ENCODING 14063
SWIDTH 1080 0
DWIDTH 12 0
BBX 11 10 1 -1
BITMAP
4100
4700
FD40
6FC0
AF40
AF40
A540
66E0
5E20
97E0
ENDCHAR
STARTCHAR 36F0
ENCODING 14064
SWIDTH 990 0
DWIDTH 11 0
BBX 9 10 1 -1
BITMAP
4F80
4880
FF80
6F80
AD00
AF80
6880
5F80
8F80
0800
ENDCHAR
STARTCHAR 36F1
ENCODING 14065
SWIDTH 990 0
DWIDTH 11 0
BBX 9 10 1 -2
BITMAP
4000
4F80
4A80
FF80
AF80
A000
BF80
6B00
4900
8C80
ENDCHAR
STARTCHAR 36F2
ENCODING 14066
SWIDTH 990 0
DWIDTH 11 0
BBX 9 11 1 -2
BITMAP
4000
4F80
4200
EF80
AF80
A880
AF80
4F80
6400
8880
1000
ENDCHAR
ENDFONT
